<svg width="20" height="20" viewBox="0 0 20 20" fill="none" xmlns="http://www.w3.org/2000/svg">
<g id="People outline" clip-path="url(#clip0_26_4147)">
<path id="Union" fill-rule="evenodd" clip-rule="evenodd" d="M2.78194 14.3753C2.78194 14.1955 2.8652 13.9769 3.15131 13.7126C3.44321 13.4429 3.88753 13.1853 4.44386 12.9625C5.55782 12.5163 6.91081 12.292 7.78194 12.292C8.65308 12.292 10.0061 12.5163 11.12 12.9625C11.6764 13.1853 12.1207 13.4429 12.4126 13.7126C12.6987 13.9769 12.7819 14.1955 12.7819 14.3753V15.0003H7.78194H2.78194V14.3753ZM13.6153 14.3753V15.0003V15.8337H12.7819H7.78194H2.78194H1.94861V15.0003V14.3753C1.94861 12.4337 5.83194 11.4587 7.78194 11.4587C9.73194 11.4587 13.6153 12.4337 13.6153 14.3753ZM9.86527 7.08366C9.86527 8.23175 8.93004 9.16699 7.78194 9.16699C6.63385 9.16699 5.69861 8.23176 5.69861 7.08366C5.69861 5.93556 6.63385 5.00033 7.78194 5.00033C8.93004 5.00033 9.86527 5.93556 9.86527 7.08366ZM7.78194 10.0003C9.39027 10.0003 10.6986 8.69199 10.6986 7.08366C10.6986 5.47533 9.39027 4.16699 7.78194 4.16699C6.17361 4.16699 4.86527 5.47533 4.86527 7.08366C4.86527 8.69199 6.17361 10.0003 7.78194 10.0003ZM12.3865 4.16732C11.9155 4.16732 11.4824 4.28113 11.0906 4.46851C10.883 4.5678 10.7952 4.81658 10.8945 5.02417C10.9938 5.23177 11.2426 5.31958 11.4502 5.22029C11.7429 5.08029 12.0538 5.00065 12.3865 5.00065C13.5924 5.00065 14.574 5.98226 14.574 7.18815C14.574 8.39404 13.5924 9.37565 12.3865 9.37565C12.0538 9.37565 11.7429 9.29601 11.4502 9.15601C11.2426 9.05673 10.9938 9.14453 10.8945 9.35213C10.7952 9.55973 10.883 9.8085 11.0906 9.90779C11.4824 10.0952 11.9155 10.209 12.3865 10.209C14.0526 10.209 15.4073 8.85428 15.4073 7.18815C15.4073 5.52202 14.0526 4.16732 12.3865 4.16732ZM13.2648 11.1277C13.0361 11.1026 12.8303 11.2677 12.8052 11.4964C12.7801 11.7252 12.9451 11.9309 13.1739 11.9561C14.0556 12.0528 15.1152 12.3075 15.9411 12.7082C16.8035 13.1267 17.2372 13.6132 17.2372 14.1014V14.9868H14.6777C14.4476 14.9868 14.261 15.1734 14.261 15.4035C14.261 15.6336 14.4476 15.8202 14.6777 15.8202H17.6539H18.0705V15.4035V14.1014C18.0705 13.0866 17.2021 12.3938 16.3049 11.9585C15.3711 11.5054 14.2135 11.2318 13.2648 11.1277Z" fill="#9CA1A5"/>
</g>
<defs>
<clipPath id="clip0_26_4147">
<rect width="20" height="20" fill="white"/>
</clipPath>
</defs>
</svg>
