<svg width="24" height="24" viewBox="0 0 24 24" fill="none" xmlns="http://www.w3.org/2000/svg">
<path fill-rule="evenodd" clip-rule="evenodd" d="M16.905 21.3954C16.905 21.7954 16.745 22.1654 16.475 22.4454C16.195 22.7254 15.815 22.8854 15.425 22.8854H8.54496C7.73496 22.8754 7.07496 22.2154 7.07496 21.3954V4.58539C7.07496 3.7654 7.73496 3.1054 8.54496 3.0954H15.425C16.245 3.0954 16.905 3.7654 16.905 4.58539V21.3954ZM10.835 1.1254H13.175L13.685 2.1054H10.325L10.835 1.1254ZM17.185 2.8254C16.715 2.3654 16.085 2.1054 15.425 2.1054H14.755L13.895 0.405395C13.815 0.235395 13.645 0.125395 13.465 0.135395H10.515C10.325 0.125395 10.155 0.235395 10.075 0.405395L9.22496 2.1054H8.54496C7.18496 2.1154 6.08496 3.21539 6.08496 4.58539V21.3954C6.08496 21.6254 6.10996 21.8609 6.17946 22.0709C6.19096 22.1224 6.32496 22.4454 6.38496 22.5654C6.44496 22.6854 6.51496 22.7954 6.59496 22.8954C6.67496 23.0054 6.76496 23.0954 6.86496 23.1854C6.95496 23.2854 7.06496 23.3654 7.17496 23.4354C7.27496 23.5054 7.38496 23.5754 7.49496 23.6254C7.51496 23.6354 7.52496 23.6454 7.54496 23.6454C7.66496 23.6954 7.78496 23.7454 7.90496 23.7754C8.10496 23.8354 8.32496 23.8654 8.54496 23.8654H15.445C15.665 23.8654 15.885 23.8354 16.085 23.7754C16.215 23.7354 16.345 23.6954 16.475 23.6354C16.595 23.5754 16.715 23.5154 16.825 23.4354C16.935 23.3654 17.035 23.2854 17.135 23.1854C17.215 23.1154 17.285 23.0454 17.335 22.9654C17.385 22.9254 17.415 22.8854 17.435 22.8454C17.485 22.7854 17.535 22.7054 17.575 22.6354C17.595 22.6054 17.615 22.5654 17.625 22.5354C17.675 22.4454 17.725 22.3454 17.755 22.2454C17.785 22.1854 17.805 22.1254 17.815 22.0554C17.885 21.8454 17.915 21.6254 17.915 21.3954V4.58539C17.915 3.92539 17.645 3.2954 17.185 2.8254Z" fill="#1D1D1B"/>
<mask id="mask0_7264_33384" style="mask-type:luminance" maskUnits="userSpaceOnUse" x="0" y="0" width="24" height="24">
<path fill-rule="evenodd" clip-rule="evenodd" d="M0 24H24V0H0V24Z" fill="white"/>
</mask>
<g mask="url(#mask0_7264_33384)">
<path fill-rule="evenodd" clip-rule="evenodd" d="M10.0288 20.8513H13.9698V19.8643H10.0288V20.8513Z" fill="#1D1D1B"/>
<path fill-rule="evenodd" clip-rule="evenodd" d="M12.4903 5.08545H11.5038V6.56595H10.0293V7.54745H11.5038V9.02795H12.4903V7.54745H13.9698V6.56595H12.4903V5.08545Z" fill="#1D1D1B"/>
</g>
</svg>
