<svg width="63" height="64" viewBox="0 0 63 64" fill="none" xmlns="http://www.w3.org/2000/svg">
<path d="M31.5 3.49999C45.5416 3.56552 57.4618 13.8082 59.64 27.68C60.8526 35.8754 58.4468 44.1934 53.0467 50.4762C47.6466 56.759 39.7845 60.3874 31.5 60.42C20.763 60.4224 10.9385 54.3819 6.09455 44.7996C1.25059 35.2174 2.21173 23.7246 8.58 15.08C13.9411 7.79167 22.4523 3.49155 31.5 3.49999ZM31.5 0.899555C29.9195 0.891264 28.3409 1.01166 26.78 1.26C10.7305 3.72506 -0.711799 18.1363 0.525558 34.3269C1.76292 50.5174 15.2623 63.0225 31.5 63.02C33.0801 63.018 34.6579 62.8976 36.22 62.66C52.2695 60.1949 63.7118 45.7836 62.4744 29.5931C61.2371 13.4026 47.7377 0.897515 31.5 0.899555Z" fill="#BE8B13"/>
<path d="M19.84 33.04L27.94 39.4C28.8547 40.1229 30.1797 39.9806 30.92 39.08L44.92 22.08" stroke="#BE8B13" stroke-width="2.6"/>
</svg>
