<svg width="76" height="37" viewBox="0 0 76 37" fill="none" xmlns="http://www.w3.org/2000/svg">
<path d="M16.938 36.8443L19.2998 30.924H20.0598L22.3963 36.8443H21.1887L20.7157 35.6171H19.1675L18.8353 34.7738H20.4005L19.7783 33.1459L19.6123 32.6331L19.4462 33.1459L18.0471 36.8443H16.938Z" fill="white"/>
<path d="M24.319 36.8443V30.924H25.4731V36.8443H24.319Z" fill="white"/>
<path fill-rule="evenodd" clip-rule="evenodd" d="M29.8168 34.9026L31.1821 36.8443H32.477L30.8583 34.7457C31.244 34.5944 31.5396 34.3479 31.7507 34.0088C31.9618 33.6698 32.066 33.272 32.066 32.8125C32.066 32.1848 31.8802 31.7141 31.5142 31.3975C31.1455 31.0809 30.6134 30.924 29.9125 30.924H28.0067V36.8443H29.1609V34.9026H29.8168ZM29.9153 34.0929H29.1637V31.8402H29.9069C30.2615 31.8402 30.5149 31.9327 30.6669 32.1176C30.8189 32.3025 30.8949 32.5743 30.8949 32.9273C30.8949 33.7034 30.5684 34.0929 29.9153 34.0929Z" fill="white"/>
<path d="M35.5312 36.8443L33.7747 30.924H34.9739L36.0661 35.138H36.1111L37.1696 31.8654L36.8627 30.924H38L39.3737 35.138H39.4075L40.5082 30.924H41.6454L39.8438 36.8443H38.8727L37.6735 33.1795L36.4658 36.8443H35.5312Z" fill="white"/>
<path d="M42.5519 36.8443L44.9137 30.924H45.6737L48.0102 36.8443H46.8026L46.3296 35.6171H44.7814L44.4492 34.7738H46.0144L45.3922 33.1459L45.2261 32.6331L45.0601 33.1459L43.661 36.8443H42.5519Z" fill="white"/>
<path d="M50.6169 36.8443V34.4151L48.6746 30.924H49.9526L51.2475 33.4149L52.5762 30.924H53.7219L51.7711 34.4151V36.8443H50.6169Z" fill="white"/>
<path d="M56.8353 36.9816C56.2047 36.9816 55.7009 36.8499 55.3236 36.5894V35.3874C55.7797 35.7936 56.2948 35.9954 56.8719 35.9954C57.5897 35.9954 57.9472 35.7208 57.9472 35.1688C57.9472 34.9531 57.8769 34.7878 57.7333 34.6673C57.5897 34.5496 57.342 34.4487 56.9845 34.3675L56.7649 34.3143C55.7628 34.0705 55.2617 33.5045 55.2617 32.6163C55.2617 32.0364 55.4447 31.5853 55.8078 31.263C56.171 30.9408 56.6946 30.7811 57.3786 30.7811C58.0261 30.7811 58.5328 30.91 58.9015 31.165V32.367C58.7383 32.2157 58.5159 32.0784 58.2372 31.9579C57.9585 31.8346 57.6573 31.7758 57.3364 31.7758C56.9986 31.7758 56.7537 31.8346 56.6017 31.9495C56.4497 32.0644 56.3737 32.2465 56.3737 32.4903C56.3737 32.7116 56.4356 32.8769 56.5623 32.9918C56.6889 33.1039 56.931 33.2047 57.2913 33.2916L57.5109 33.3448C58.0486 33.4737 58.4399 33.6642 58.6904 33.9248C58.9409 34.1826 59.0676 34.5468 59.0676 35.0175C59.0676 35.6199 58.8818 36.099 58.5074 36.4549C58.1302 36.8051 57.5757 36.9816 56.8353 36.9816Z" fill="white"/>
<path d="M40.5673 2.37597L41.5807 1.3645L42.5068 2.29472L42.5997 2.37317L41.5807 3.39304L40.5673 2.37597Z" fill="white"/>
<path d="M42.6053 2.37597L43.6188 1.3645L44.5477 2.29191L44.635 2.37597L43.6188 3.39304L42.6053 2.37597Z" fill="white"/>
<path d="M41.2203 12.4542C40.9416 12.4542 40.753 12.3505 40.7446 12.3449C40.3589 12.1908 40.1393 11.7678 40.1393 11.1569C40.1393 11.0505 40.1421 10.9888 40.1506 10.9496V10.7899H31.5338C31.5338 10.7899 31.5338 3.62838 31.5338 3.06801C31.5338 2.7402 31.3199 2.65054 31.1369 2.55527C30.9849 2.47682 30.8273 2.39277 30.7963 2.17422C30.7963 2.1378 30.7935 2.11818 30.7907 2.10137L30.7878 2.05654C31.9758 1.18797 32.8372 0.0532227 32.8372 0.0532227V9.48705H40.1506V9.1172C40.1393 8.79499 40.114 8.12255 38.5151 8.10854C38.5151 8.10854 37.7719 8.11974 37.0259 8.11974C36.6065 8.11974 36.1927 8.11414 35.9055 8.10013C35.4467 8.06651 35.1933 7.55937 35.1877 7.09987C35.1877 6.78606 35.3088 6.5311 35.5199 6.39661L35.6297 6.32096L35.6972 6.44144C35.8408 6.71322 36.4432 6.8393 37.5917 6.8393H37.6987C38.1491 6.8393 38.6727 6.82529 39.2695 6.81128C39.2976 6.80848 39.3371 6.80848 39.368 6.80848C41.3019 6.80848 41.5243 8.48118 41.53 9.20126L41.5328 9.33294C41.5328 9.38898 41.5328 9.44222 41.53 9.48424H43.447V6.63757C43.447 6.63757 43.4779 6.43023 43.0754 6.21169C42.8052 6.06319 42.7489 5.75779 42.7489 5.75779C44.2943 4.64265 44.725 3.69563 44.725 3.69563L44.7278 10.7927H41.5159V10.8964C41.5102 11.3195 41.5975 11.877 41.848 12.0675L41.9888 12.1796L41.8396 12.2721C41.6426 12.3926 41.4342 12.4542 41.2203 12.4542Z" fill="white"/>
<path d="M25.8278 11.863V10.7899H21.4082V9.46466H27.0382L27.0354 11.2074C27.0411 11.2074 26.9707 11.7482 28.0376 11.7482C28.7047 11.7482 28.7104 11.1037 28.7104 11.0785V7.97968C28.7047 7.5482 28.426 7.49496 28.2149 7.48936C28.1783 7.48936 28.1474 7.49216 28.1474 7.49216H21.4138L21.411 3.62561C21.411 3.62561 22.1908 4.59785 22.9874 5.04895C23.1113 5.1302 23.0465 5.34314 22.6524 5.5869C22.5736 5.63454 22.4723 5.67656 22.4723 5.78584C22.4723 5.91472 22.4723 6.26775 22.4723 6.26775H29.1974C29.9884 6.27616 30.0559 7.1027 30.0588 7.35487C30.0588 7.3969 30.0531 11.7902 30.0531 11.7902C30.0531 11.8014 29.9884 12.9922 28.0601 12.9922C25.687 12.9922 25.8278 11.863 25.8278 11.863Z" fill="white"/>
<path d="M52.5394 10.7899V0L52.7703 0.367042C52.7731 0.369844 52.942 0.644425 53.6317 1.23842C54.0426 1.58865 54.2678 1.72594 54.3833 1.77917C54.5015 1.82961 54.5944 1.86883 54.5944 1.99492L54.5916 2.10419C54.5606 2.33114 54.403 2.41239 54.251 2.49364C54.068 2.58891 53.8963 2.67857 53.8794 3.00638C53.8569 3.25295 53.8794 10.7899 53.8794 10.7899H52.5394Z" fill="white"/>
<path fill-rule="evenodd" clip-rule="evenodd" d="M47.571 10.8264L46.2085 12.1853L48.4183 14.3819L50.614 12.1881L49.2487 10.8264L50.8927 9.09482V0.00842285C50.8927 0.00842285 50.279 1.39254 49.2065 2.08739L49.2093 2.16024C49.2289 2.37229 49.3546 2.45375 49.4752 2.5319L49.4767 2.53289L49.4793 2.53455C49.6247 2.6292 49.7639 2.71978 49.7779 3.05683C49.792 3.309 49.7779 8.52884 49.7779 8.52884L48.4155 9.94098L47.0474 8.52884C47.0474 8.52001 47.0472 8.45531 47.0468 8.3463C47.0437 7.41728 47.0297 3.26998 47.0474 3.05683C47.0614 2.71792 47.1993 2.62821 47.3456 2.53298L47.3458 2.53289C47.4668 2.45444 47.5907 2.37318 47.616 2.15464L47.6188 2.04817C46.6476 1.37012 45.9298 0.00842285 45.9298 0.00842285V9.2181L47.571 10.8264ZM49.3247 12.1881L48.4155 13.1015L47.495 12.1881L48.4155 11.2747L49.3247 12.1881Z" fill="white"/>
<path d="M42.7376 24.5834L45.06 22.1038C45.06 22.1038 45.06 17.237 45.06 17.2006C45.06 17.1642 45.1051 17.1277 45.1051 17.1277L45.4429 16.9596V16.6766H42.3266V16.954L42.6476 17.1585C42.7404 17.2146 42.7461 17.251 42.7461 17.2846V20.1005H36.5108L35.1033 21.8769V17.2958L35.1117 17.2062C35.1146 17.2034 35.1371 17.1838 35.1849 17.1557L35.4805 16.9708L35.5115 16.954V16.6738H32.4009V16.9512L32.7077 17.1501C32.7528 17.181 32.7725 17.1978 32.7809 17.1978H32.7837V25.6201L32.7668 25.7294C32.7556 25.749 32.7302 25.7714 32.7077 25.7854L32.3981 25.9928V26.2646H35.5087V25.99L35.1849 25.7854C35.1343 25.7574 35.1117 25.7406 35.1033 25.7406H35.1005V21.8769L35.4355 21.9805L35.8662 21.734C35.945 21.6863 36.0126 21.6527 36.0604 21.6415C36.0857 21.6331 36.1392 21.6219 36.2349 21.6219H42.732V24.5834H42.7376Z" fill="white"/>
<path d="M75.831 20.4255C75.4651 19.2767 74.629 18.3325 73.3482 17.6236C72.1912 16.9792 70.5501 16.6654 68.3318 16.6654H59.8643V16.94C59.8643 16.94 60.219 17.1753 60.2302 17.1753C60.233 17.1753 60.233 17.1753 60.233 17.1725L60.2302 18.1728H68.3178C69.9533 18.1728 71.1497 18.3885 71.8731 18.8144C73.0273 19.4841 73.5903 20.3554 73.5931 21.4762C73.5931 22.0394 73.4411 22.5521 73.1427 23.006C72.8471 23.4543 72.3939 23.8409 71.7943 24.1491C71.0117 24.5526 69.8182 24.7571 68.2474 24.7571H64.0305V18.8649H61.725V25.6285L61.7109 25.7294C61.6968 25.7462 61.6715 25.7714 61.649 25.791L61.3647 25.9703L61.3393 25.9872V26.2617H68.253C69.5817 26.2617 70.6289 26.1861 71.3608 26.0376C72.3658 25.8274 73.2553 25.466 74.0097 24.9589C74.7782 24.4433 75.33 23.8493 75.6453 23.1881C75.8789 22.7062 75.9999 22.171 75.9999 21.6023C76.0028 21.196 75.9465 20.8009 75.831 20.4255Z" fill="white"/>
<path d="M45.4316 25.8975C45.364 25.8863 45.3246 25.8723 45.3049 25.861L51.1095 19.8539L49.7667 18.4305L42.2562 26.2421H45.7131V25.9143H45.592C45.5357 25.9143 45.4822 25.9059 45.4316 25.8975Z" fill="white"/>
<path d="M50.3916 18.0607L51.8752 19.627L53.4093 21.1624H50.8195L49.4008 22.6418L49.7076 22.8519L50.0426 22.6726C50.0735 22.6586 50.1073 22.6474 50.1355 22.6446C50.158 22.6418 50.2424 22.639 50.3776 22.639H54.8056L57.8627 25.8891C57.8627 25.8891 57.8148 25.9451 57.5502 25.9451H57.432V26.2758H60.8888L51.7288 16.6682L50.3916 18.0607Z" fill="white"/>
<path d="M28.1868 16.954L28.4964 17.153C28.5668 17.2006 28.6034 17.2454 28.6034 17.2846L28.6062 25.6117L28.5837 25.7182C28.5555 25.7434 28.5246 25.7714 28.4992 25.7855L28.184 25.9872V26.2674H31.2692V25.99L30.9849 25.7911C30.9455 25.763 30.923 25.7462 30.9145 25.7462C30.9117 25.7462 30.9117 25.7462 30.9117 25.749V17.2987L30.9202 17.209L30.9905 17.1446L31.272 16.9568V16.6794H28.1868V16.954Z" fill="white"/>
<path d="M15.2462 24.4237L14.8408 24.6563C14.731 24.7235 14.6719 24.7431 14.6607 24.7487L7.74979 24.7655C6.17057 24.7655 4.97137 24.561 4.18316 24.1603C2.99241 23.5439 2.41252 22.6669 2.41252 21.479C2.41252 20.9438 2.56734 20.4367 2.87137 19.9716C3.46815 19.0974 4.32673 18.5034 5.55689 18.2764C5.88344 18.2176 6.1959 18.2036 6.40421 18.2036C6.75891 18.2036 9.9624 18.2036 9.9624 18.2036C10.1735 18.1952 10.1426 18.2456 10.1482 18.268L10.1088 18.5174H10.4044L11.9273 16.685H7.6766C6.69416 16.685 5.92566 16.7158 5.39644 16.7803C5.11494 16.8139 4.85032 16.8615 4.58853 16.9232C3.89322 17.0801 3.2148 17.3434 2.57016 17.7049C1.53142 18.2905 0.785438 19.0386 0.357555 19.9239C0.118279 20.4283 -0.00276703 20.9914 4.79915e-05 21.5966C-0.00276703 23.1433 0.833293 24.3761 2.48571 25.2643C3.23169 25.6705 4.06775 25.9535 4.977 26.102C5.65542 26.2113 6.59282 26.2673 7.75542 26.2673H14.1821L15.7135 24.4153H15.5896L15.2462 24.4237Z" fill="white"/>
<path d="M12.1778 22.1178L13.6754 20.2574H3.60044L2.58704 21.762H11.6683C11.84 21.7816 11.8991 21.8236 11.9047 21.8516L11.8681 22.1178H12.1778Z" fill="white"/>
<path d="M11.5557 18.4306L11.8428 18.5315L11.8822 18.5427L12.3185 18.3241C12.4396 18.2429 12.5578 18.2036 12.6873 18.2036H18.2526L18.2554 25.6285L18.2301 25.7322C18.2076 25.7602 18.1794 25.7798 18.1625 25.7883L17.8444 25.9984V26.273H20.955V25.9928L20.6313 25.7967L20.5525 25.7266C20.5496 25.7098 20.5496 25.6818 20.5496 25.6454V18.2036H25.4872C25.6758 18.2261 25.7011 18.2709 25.7011 18.2737V18.5371H25.9798L27.5112 16.6794H12.9604L11.5557 18.4306Z" fill="white"/>
</svg>
