<svg width="36" height="36" viewBox="0 0 36 36" fill="none" xmlns="http://www.w3.org/2000/svg">
<path fill-rule="evenodd" clip-rule="evenodd" d="M18 0C27.9375 0 36 8.57139 36 17.7173C36 27.5183 28.875 35.0576 20.25 36V22.6178H23.25L24.75 18.8263L20.25 18.8482V15.2821C20.25 14.3367 21.012 13.5707 21.9525 13.5707C22.629 13.5707 23.25 13.5707 23.25 13.5707V10.555H20.0588C18.9157 10.555 17.82 11.0111 17.0122 11.8238C16.2037 12.6358 15.75 13.7373 15.75 14.8863C15.75 16.8864 15.75 18.8263 15.75 18.8263H12.75V22.6178H15.75V36C7.125 35.0576 0 27.7068 0 17.7173C0 8.57139 7.875 0 18 0Z" fill="#2E4755"/>
</svg>
