<svg width="36" height="36" viewBox="0 0 36 36" fill="none" xmlns="http://www.w3.org/2000/svg">
<path d="M18 0C27.9255 0 36 8.0745 36 18C36 27.9255 27.9255 36 18 36C8.0745 36 0 27.9255 0 18C0 8.0745 8.0745 0 18 0ZM13.2052 24.6735C13.2052 22.7085 13.2052 18.1365 13.2052 16.1722C13.2052 15.6615 12.7913 15.2483 12.2812 15.2483C11.988 15.2483 11.6632 15.2483 11.37 15.2483C10.8593 15.2483 10.446 15.6622 10.446 16.1722C10.446 18.1372 10.446 22.7092 10.446 24.6735C10.446 25.1842 10.86 25.5975 11.37 25.5975C11.6632 25.5975 11.988 25.5975 12.2812 25.5975C12.7913 25.5975 13.2052 25.1842 13.2052 24.6735ZM11.8253 13.1782C12.5865 13.1782 13.2052 12.5595 13.2052 11.7983C13.2052 11.037 12.5865 10.4183 11.8253 10.4183C11.064 10.4183 10.4452 11.037 10.4452 11.7983C10.4452 12.5595 11.0633 13.1782 11.8253 13.1782ZM26.3153 24.6863C26.3153 23.0385 26.3153 19.7332 26.3153 19.7332C26.3153 17.256 24.3075 15.2483 21.8302 15.2483C20.6242 15.2483 19.5315 15.7267 18.7253 16.5015V16.1603C18.7253 15.657 18.3172 15.2483 17.8132 15.2483C17.5125 15.2483 17.178 15.2483 16.8765 15.2483C16.3732 15.2483 15.9645 15.6563 15.9645 16.1603C15.9645 18.1223 15.9645 22.725 15.9645 24.687C15.9645 25.1903 16.3725 25.599 16.8765 25.599C17.1772 25.599 17.5117 25.599 17.8132 25.599C18.3172 25.599 18.7253 25.191 18.7253 24.687C18.7253 23.202 18.7253 20.424 18.7253 20.424C18.7253 19.0957 19.812 18.009 21.1403 18.009C22.4685 18.009 23.5553 19.0957 23.5553 20.424V24.687C23.5553 25.1903 23.9633 25.599 24.4673 25.599C24.768 25.599 25.1025 25.599 25.404 25.599C25.9065 25.5975 26.3153 25.1895 26.3153 24.6863Z" fill="#2E4755"/>
</svg>
