<svg width="24" height="22" viewBox="0 0 24 22" fill="none" xmlns="http://www.w3.org/2000/svg">
<path d="M0.919572 11L0.0388733 8.25331C-0.0421108 8.00442 0.00344244 7.77776 0.175533 7.57331C0.347624 7.36887 0.575391 7.26665 0.858835 7.26665C1.10179 7.26665 1.29919 7.29331 1.45103 7.34665C1.60288 7.39998 1.71929 7.47109 1.80027 7.55998L3.34909 9.39998L10.0303 9.39998L7.41854 1.63998C7.31731 1.3022 7.37804 0.999979 7.60075 0.733312C7.82346 0.466646 8.13727 0.333312 8.54219 0.333312C8.84588 0.333312 9.09895 0.377757 9.30141 0.466646C9.50387 0.555535 9.65572 0.679979 9.75695 0.839979L15.4967 9.39998L22.1779 9.39998C22.684 9.39998 23.1142 9.55554 23.4685 9.86665C23.8228 10.1778 24 10.5555 24 11C24 11.4444 23.8228 11.8222 23.4685 12.1333C23.1142 12.4444 22.684 12.6 22.1779 12.6L15.4967 12.6L9.75695 21.16C9.65572 21.32 9.50387 21.4444 9.30141 21.5333C9.09895 21.6222 8.84588 21.6666 8.54219 21.6666C8.13727 21.6666 7.82345 21.5333 7.60075 21.2666C7.37804 21 7.31731 20.6978 7.41853 20.36L10.0303 12.6L3.34909 12.6L1.80027 14.44C1.71929 14.5289 1.60288 14.6 1.45103 14.6533C1.29919 14.7066 1.10179 14.7333 0.858835 14.7333C0.575391 14.7333 0.347623 14.6311 0.175533 14.4266C0.00344215 14.2222 -0.042111 13.9955 0.0388731 13.7466L0.919572 11Z" fill="#BE8B13"/>
</svg>
