<svg width="16" height="16" viewBox="0 0 16 16" fill="none" xmlns="http://www.w3.org/2000/svg">
<path d="M7.99971 1.8L9.80304 0H6.19971L7.99971 1.8Z" fill="#BD8B13"/>
<path d="M7.33333 8.92336H11.4567V8.28669H7.63667V3.19336H7V8.60336C7.00716 8.78223 7.15432 8.9235 7.33333 8.92336Z" fill="#4E4C4A"/>
<path d="M9.81705 1L9.29038 1.52908C12.6652 2.20014 14.9824 5.33423 14.6468 8.77384C14.3112 12.2135 11.4324 14.8359 7.99205 14.8359C4.55173 14.8359 1.67287 12.2135 1.33727 8.77384C1.00167 5.33423 3.31887 2.20014 6.69371 1.52908L6.16705 1C2.59148 1.92744 0.260184 5.38111 0.725496 9.0613C1.19081 12.7415 4.30755 15.5 8.00038 15.5C11.6932 15.5 14.81 12.7415 15.2753 9.0613C15.7406 5.38111 13.4093 1.92744 9.83371 1L9.81705 1Z" fill="#4E4C4A"/>
</svg>
