<svg width="19" height="16" viewBox="0 0 19 16" fill="none" xmlns="http://www.w3.org/2000/svg">
<path d="M0.856336 8L0.195812 5.94C0.135074 5.75333 0.169239 5.58333 0.298307 5.43C0.427376 5.27667 0.598202 5.2 0.810783 5.2C0.992998 5.2 1.14105 5.22 1.25493 5.26C1.36881 5.3 1.45613 5.35333 1.51686 5.42L2.67848 6.8L7.68936 6.8L5.73056 0.979999C5.65464 0.726666 5.70019 0.499999 5.86722 0.299999C6.03425 0.0999995 6.26961 -5.14425e-07 6.5733 -5.01293e-07C6.80107 -4.91445e-07 6.99087 0.0333329 7.14272 0.0999995C7.29456 0.166666 7.40845 0.26 7.48437 0.38L11.7892 6.8L16.8001 6.8C17.1797 6.8 17.5023 6.91667 17.7681 7.15C18.0338 7.38333 18.1667 7.66667 18.1667 8C18.1667 8.33333 18.0338 8.61667 17.7681 8.85C17.5023 9.08333 17.1797 9.2 16.8001 9.2L11.7892 9.2L7.48437 15.62C7.40844 15.74 7.29456 15.8333 7.14272 15.9C6.99087 15.9667 6.80106 16 6.5733 16C6.26961 16 6.03425 15.9 5.86722 15.7C5.70019 15.5 5.65464 15.2733 5.73056 15.02L7.68936 9.2L2.67848 9.2L1.51686 10.58C1.45612 10.6467 1.36881 10.7 1.25493 10.74C1.14105 10.78 0.992998 10.8 0.810783 10.8C0.598201 10.8 0.427375 10.7233 0.298307 10.57C0.169239 10.4167 0.135074 10.2467 0.195812 10.06L0.856336 8Z" fill="#2E4755"/>
</svg>
