<svg width="64" height="87" viewBox="0 0 64 87" fill="none" xmlns="http://www.w3.org/2000/svg">
<path d="M0.5 79C0.5 83.1421 3.85787 86.5 8 86.5H19.2871C21.6558 86.5 23.8853 85.381 25.3008 83.4817L37.1067 67.6402C38.7109 65.4877 41.2377 64.2195 43.9222 64.2195H56C60.1421 64.2195 63.5 60.8616 63.5 56.7195V15.3878C63.5 11.6214 60.7067 8.43917 56.972 7.95102L8.97205 1.67699C4.48209 1.0901 0.5 4.58558 0.5 9.11373V79Z" fill="#F9FAFB" stroke="#9CB9C9"/>
<path d="M64 44.5208C64 42.785 62.5929 41.3779 60.8571 41.3779C50.4426 41.3779 42 49.8206 42 60.2351L42 61.3849C42 63.2265 43.4929 64.7194 45.3345 64.7194L56 64.7194C60.4183 64.7194 64 61.1377 64 56.7194L64 44.5208Z" fill="#9CB9C9"/>
<path d="M4 51.1707C4 53.3798 5.79086 55.1707 8 55.1707H32C34.2091 55.1707 36 53.3798 36 51.1707V11.9303C36 9.92114 34.5097 8.22375 32.5174 7.96386L8.51741 4.83312C6.1231 4.52078 4 6.38491 4 8.79951L4 51.1707Z" fill="#111827"/>
</svg>
