<svg width="24" height="24" viewBox="0 0 24 24" fill="none" xmlns="http://www.w3.org/2000/svg">
<g clip-path="url(#clip0_2423_13773)">
<path d="M2 17H6L2 13V17Z" fill="#BE8B13"/>
<path d="M16 1.5H14.4907C14.2437 1.50023 14.0345 1.6779 14 1.91677L12.7093 10.2835H0V16.6288C0 17.9762 1.11664 19.0693 2.496 19.0722H6.99733V20.5361C6.99733 20.9243 7.15523 21.2967 7.43628 21.5712C7.71734 21.8458 8.09853 22 8.496 22H15.4933C16.321 22 16.992 21.3446 16.992 20.5361V19.0722H21.488C22.1528 19.0736 22.791 18.8169 23.262 18.3587C23.7331 17.9005 23.9986 17.2782 24 16.6288V9.33532C24.0057 7.25919 23.1653 5.26618 21.6644 3.79617C20.1635 2.32616 18.1254 1.5 16 1.5ZM22.4 6.60025L15.024 9.44473L20.2987 3.9277C21.2166 4.63313 21.9391 5.55195 22.4 6.60025ZM14.9333 2.47419H16C17.2183 2.47144 18.4158 2.7823 19.472 3.37548L13.8667 9.22071L14.9333 2.47419ZM16 20.5361C16 20.8045 15.7788 21.0229 15.504 21.0258H8.496C8.21912 21.0258 7.99467 20.8065 7.99467 20.5361V19.0722H16V20.5361ZM22.9973 16.6288C22.9973 17.4382 22.3272 18.0951 21.4987 18.098H16.992V15.1753H16V18.1084H8V15.1753H6.99733V18.1084H2.496C1.66745 18.1055 0.997333 17.4486 0.997333 16.6393V11.2629H22.9867L22.9973 16.6288ZM15.6 10.2835L22.736 7.52236C22.9013 8.10431 22.9856 8.70535 22.9867 9.30928V10.2835H15.6Z" fill="#111827"/>
<path d="M19.9893 12.3203H18.9919V13.3073H19.9893V12.3203Z" fill="#111827"/>
<path d="M21.9894 12.3203H20.9867V13.3073H21.9894V12.3203Z" fill="#111827"/>
<path d="M17.9893 12.3203H16.9919V13.3073H17.9893V12.3203Z" fill="#111827"/>
<path d="M9.99465 12.3203H8.99731V13.3073H9.99465V12.3203Z" fill="#111827"/>
<path d="M5.99465 12.3203H4.99731V13.3073H5.99465V12.3203Z" fill="#111827"/>
<path d="M7.99998 12.3203H6.99731V13.3073H7.99998V12.3203Z" fill="#111827"/>
<path d="M11.9946 12.3203H10.9919V13.3073H11.9946V12.3203Z" fill="#111827"/>
<path d="M13.9946 12.3203H12.9919V13.3073H13.9946V12.3203Z" fill="#111827"/>
<path d="M15.9999 12.3203H14.9919V13.3073H15.9999V12.3203Z" fill="#111827"/>
</g>
<defs>
<clipPath id="clip0_2423_13773">
<rect width="24" height="24" fill="white"/>
</clipPath>
</defs>
</svg>
