<svg width="12" height="15" viewBox="0 0 12 15" fill="none" xmlns="http://www.w3.org/2000/svg">
<path d="M4.33331 1.24952C4.2228 1.24952 4.11682 1.29342 4.03868 1.37156C3.96054 1.4497 3.91664 1.55568 3.91664 1.66619L3.91664 7.08285H1.08331C1.00332 7.08294 0.925047 7.10604 0.857835 7.14941C0.790622 7.19277 0.737314 7.25457 0.704274 7.32741C0.671234 7.40026 0.65986 7.48108 0.67151 7.56021C0.683161 7.63935 0.717345 7.71346 0.769977 7.77369L5.68664 13.3912C5.72575 13.4358 5.77393 13.4716 5.82797 13.496C5.88201 13.5205 5.94065 13.5332 5.99998 13.5332C6.0593 13.5332 6.11795 13.5205 6.17198 13.496C6.22602 13.4716 6.2742 13.4358 6.31331 13.3912L11.23 7.77369C11.2826 7.71346 11.3168 7.63935 11.3284 7.56021C11.3401 7.48108 11.3287 7.40026 11.2957 7.32741C11.2626 7.25457 11.2093 7.19277 11.1421 7.14941C11.0749 7.10604 10.9966 7.08294 10.9166 7.08285H8.08331L8.08331 1.66619C8.08331 1.55568 8.03941 1.4497 7.96127 1.37156C7.88313 1.29342 7.77715 1.24952 7.66664 1.24952H4.33331Z" stroke="#9CA3AF" stroke-linecap="round" stroke-linejoin="round"/>
</svg>
