<svg width="20" height="20" viewBox="0 0 20 20" fill="none" xmlns="http://www.w3.org/2000/svg">
<g clip-path="url(#clip0_2299_1732)">
<path d="M8.74996 17.917C8.74996 18.359 8.57436 18.7829 8.2618 19.0955C7.94924 19.4081 7.52532 19.5837 7.08329 19.5837C6.64127 19.5837 6.21734 19.4081 5.90478 19.0955C5.59222 18.7829 5.41663 18.359 5.41663 17.917" stroke="#6B7280" stroke-width="0.8" stroke-linecap="round" stroke-linejoin="round"/>
<path d="M17.9167 17.917C17.9167 18.359 17.7411 18.7829 17.4286 19.0955C17.116 19.4081 16.6921 19.5837 16.25 19.5837C15.808 19.5837 15.3841 19.4081 15.0715 19.0955C14.759 18.7829 14.5834 18.359 14.5834 17.917" stroke="#6B7280" stroke-width="0.8" stroke-linecap="round" stroke-linejoin="round"/>
<path d="M3.75 10.417H17.9167C18.3587 10.417 18.7826 10.5926 19.0952 10.9051C19.4077 11.2177 19.5833 11.6416 19.5833 12.0837V17.0837C19.5833 17.3047 19.4955 17.5166 19.3393 17.6729C19.183 17.8292 18.971 17.917 18.75 17.917H4.58333C4.36232 17.917 4.15036 17.8292 3.99408 17.6729C3.8378 17.5166 3.75 17.3047 3.75 17.0837V10.417Z" stroke="#6B7280" stroke-width="0.8" stroke-linecap="round" stroke-linejoin="round"/>
<path d="M0.416626 6.66699C0.857174 6.67176 1.27833 6.84889 1.58987 7.16042C1.9014 7.47195 2.07852 7.89311 2.08329 8.33366V8.75033C2.08329 9.19235 2.25889 9.61628 2.57145 9.92884C2.88401 10.2414 3.30793 10.417 3.74996 10.417" stroke="#6B7280" stroke-width="0.8" stroke-linecap="round" stroke-linejoin="round"/>
<path d="M7.08337 17.9167V13.75" stroke="#6B7280" stroke-width="0.8" stroke-linecap="round" stroke-linejoin="round"/>
<path d="M11.25 17.9167V13.75" stroke="#6B7280" stroke-width="0.8" stroke-linecap="round" stroke-linejoin="round"/>
<path d="M16.25 17.9167V13.75" stroke="#6B7280" stroke-width="0.8" stroke-linecap="round" stroke-linejoin="round"/>
<path d="M5.00171 7.91699H18.335" stroke="#6B7280" stroke-width="0.8" stroke-linecap="round" stroke-linejoin="round"/>
<path d="M11.6683 2.08366C12.1285 2.08366 12.5016 1.71056 12.5016 1.25033C12.5016 0.790088 12.1285 0.416992 11.6683 0.416992C11.2081 0.416992 10.835 0.790088 10.835 1.25033C10.835 1.71056 11.2081 2.08366 11.6683 2.08366Z" stroke="#6B7280" stroke-width="0.8" stroke-linecap="round" stroke-linejoin="round"/>
<path d="M6.66663 7.91699C6.66663 7.26038 6.79596 6.6102 7.04723 6.00357C7.2985 5.39695 7.6668 4.84575 8.13109 4.38146C8.59539 3.91717 9.14658 3.54887 9.75321 3.29759C10.3598 3.04632 11.01 2.91699 11.6666 2.91699C12.3232 2.91699 12.9734 3.04632 13.58 3.29759C14.1867 3.54887 14.7379 3.91717 15.2022 4.38146C15.6665 4.84575 16.0348 5.39695 16.286 6.00357C16.5373 6.6102 16.6666 7.26038 16.6666 7.91699" stroke="#6B7280" stroke-width="0.8" stroke-linecap="round" stroke-linejoin="round"/>
</g>
<defs>
<clipPath id="clip0_2299_1732">
<rect width="20" height="20" fill="white"/>
</clipPath>
</defs>
</svg>
