<svg width="64" height="87" viewBox="0 0 64 87" fill="none" xmlns="http://www.w3.org/2000/svg">
<path d="M0 79C0 83.4183 3.58172 87 8 87H19.2871C21.8137 87 24.1919 85.8064 25.7017 83.7805L37.5076 67.939C39.0174 65.9131 41.3956 64.7195 43.9222 64.7195H56C60.4183 64.7195 64 61.1378 64 56.7195V15.3878C64 11.3703 61.0204 7.97593 57.0369 7.45524L9.03685 1.1812C4.24757 0.5552 0 4.2837 0 9.11373V79Z" fill="#F9FAFB"/>
<path d="M64 44.5208C64 42.785 62.5929 41.3779 60.8571 41.3779V41.3779C50.4426 41.3779 42 49.8206 42 60.2351L42 61.3849C42 63.2265 43.4929 64.7194 45.3345 64.7194L56 64.7194C60.4183 64.7194 64 61.1377 64 56.7194L64 44.5208Z" fill="#E5E7EB"/>
<path d="M4 51.1707C4 53.3798 5.79086 55.1707 8 55.1707H32C34.2091 55.1707 36 53.3798 36 51.1707V11.9303C36 9.92114 34.5097 8.22375 32.5174 7.96386L8.51741 4.83312C6.1231 4.52078 4 6.38491 4 8.79951L4 51.1707Z" fill="#E5E7EB"/>
<path d="M14 23.3416L26 36.0732M26 23.3416L14 36.0733" stroke="#9CA3AF"/>
</svg>
