<svg width="24" height="24" viewBox="0 0 24 24" fill="none" xmlns="http://www.w3.org/2000/svg">
<path d="M13.5129 0.746094L21.3389 11.9961L13.5129 23.2461" stroke="#9CA3AF" stroke-linecap="round" stroke-linejoin="round"/>
<path d="M3.31806 0.746094C2.78006 0.746094 2.59106 1.10709 2.89806 1.54609L9.60706 11.1901C9.75757 11.4309 9.83737 11.7091 9.83737 11.9931C9.83737 12.2771 9.75757 12.5553 9.60706 12.7961L2.90006 22.4431C2.59306 22.8851 2.78206 23.2431 3.32006 23.2431H6.62006C6.91835 23.2265 7.20968 23.1465 7.47469 23.0086C7.73969 22.8706 7.9723 22.6779 8.15706 22.4431L14.8671 12.7991C15.018 12.5585 15.0981 12.2802 15.0981 11.9961C15.0981 11.712 15.018 11.4337 14.8671 11.1931L8.15906 1.54909C7.97431 1.31431 7.74169 1.12155 7.47669 0.983613C7.21168 0.845678 6.92035 0.765734 6.62206 0.749094L3.31806 0.746094Z" stroke="#9CA3AF" stroke-linecap="round" stroke-linejoin="round"/>
</svg>
