<svg width="49" height="48" viewBox="0 0 49 48" fill="none" xmlns="http://www.w3.org/2000/svg">
<path d="M6.2002 24.0052L0.565413 18.36L0.565413 29.64L6.2002 24.0052Z" fill="#BD8B13"/>
<path d="M19.8334 47.5221L31.6051 28.2743L41.8475 28.8065C43.8444 28.7656 45.7584 27.9934 47.2325 26.6341C48.0342 25.9803 48.5 24.9963 48.5 23.9566C48.5 22.9168 48.0342 21.9328 47.2325 21.279C45.7584 19.9197 43.8444 19.1476 41.8475 19.1066L31.6051 19.6388L19.8334 0.477936C19.6543 0.182644 19.3365 0.0018302 18.9933 0L15.0191 0C14.7128 0.00026396 14.4239 0.143392 14.2364 0.387702C14.0489 0.632011 13.984 0.950033 14.0606 1.24915L18.8318 20.3883L6.5 20.9206L8.14783 22.5716L8.40631 22.8432L20.135 22.3327C20.434 22.3186 20.7111 22.1703 20.8904 21.9286C21.0697 21.6868 21.1323 21.3768 21.0612 21.0835L16.29 2.0095H18.444L30.2265 21.2573C30.4153 21.5696 30.7582 21.7529 31.1205 21.7352L41.8906 21.1704C43.3744 21.2182 44.7951 21.7868 45.9078 22.778C46.2861 23.0742 46.5368 23.506 46.6079 23.9837C46.5482 24.4636 46.3094 24.9026 45.9401 25.2111C44.8334 26.1953 43.4193 26.7566 41.9444 26.797L31.1743 26.243C30.8121 26.2254 30.4692 26.4087 30.2804 26.721L18.4333 46.0014H16.2793L21.0612 26.8948C21.1323 26.6015 21.0697 26.2915 20.8904 26.0497C20.7111 25.8079 20.434 25.6597 20.135 25.6456L8.40631 25.1351L8.14783 25.4067L6.5 27.0577L18.8318 27.59L14.0606 46.7508C13.984 47.05 14.0489 47.368 14.2364 47.6123C14.4239 47.8566 14.7128 47.9997 15.0191 48H18.9933C19.3365 47.9982 19.6543 47.8174 19.8334 47.5221Z" fill="#4E4C4A"/>
</svg>
