<svg width="64" height="86" viewBox="0 0 64 86" fill="none" xmlns="http://www.w3.org/2000/svg">
<path d="M56.9611 7.86391L8.96106 1.66199C4.47466 1.08231 0.5 4.57646 0.5 9.10016V78C0.5 82.1421 3.85787 85.5 8 85.5H19.3148C21.6689 85.5 23.8864 84.3947 25.3036 82.515L37.1073 66.8586C38.7134 64.7283 41.2265 63.4756 43.8945 63.4756H56C60.1421 63.4756 63.5 60.1177 63.5 55.9756V15.3021C63.5 11.5315 60.7006 8.34708 56.9611 7.86391Z" fill="#F9FAFB" stroke="#F4D690"/>
<path d="M64 44.0452C64 42.3094 62.5929 40.9023 60.8571 40.9023V40.9023C50.4426 40.9023 42 49.345 42 59.7595L42 60.6793C42 62.4998 43.4757 63.9755 45.2962 63.9755L56 63.9755C60.4183 63.9755 64 60.3938 64 55.9755L64 44.0452Z" fill="#F4D690"/>
<path d="M4 50.5366C4 52.7458 5.79086 54.5366 8 54.5366H32C34.2091 54.5366 36 52.7458 36 50.5366V11.8388C36 9.82746 34.5064 8.12891 32.5116 7.87168L8.51156 4.77691C6.11914 4.46841 4 6.33184 4 8.74407L4 50.5366Z" fill="#F4D690"/>
</svg>
