<svg width="24" height="24" viewBox="0 0 24 24" fill="none" xmlns="http://www.w3.org/2000/svg">
<path d="M10.4871 23.2539L2.66106 12.0039L10.4871 0.753906" stroke="#9CA3AF" stroke-linecap="round" stroke-linejoin="round"/>
<path d="M20.6819 23.2539C21.2199 23.2539 21.4089 22.8929 21.1019 22.4539L14.3929 12.8099C14.2424 12.5691 14.1626 12.2909 14.1626 12.0069C14.1626 11.7229 14.2424 11.4447 14.3929 11.2039L21.0999 1.55691C21.4069 1.11491 21.2179 0.756907 20.6799 0.756907H17.3799C17.0817 0.773546 16.7903 0.85349 16.5253 0.991425C16.2603 1.12936 16.0277 1.32212 15.8429 1.55691L9.13295 11.2009C8.98198 11.4415 8.90191 11.7198 8.90191 12.0039C8.90191 12.288 8.98198 12.5663 9.13295 12.8069L15.8409 22.4509C16.0257 22.6857 16.2583 22.8785 16.5233 23.0164C16.7883 23.1543 17.0797 23.2343 17.3779 23.2509L20.6819 23.2539Z" stroke="#9CA3AF" stroke-linecap="round" stroke-linejoin="round"/>
</svg>
