<svg width="20" height="20" viewBox="0 0 20 20" fill="none" xmlns="http://www.w3.org/2000/svg">
<path d="M15.2102 4.58366C16.296 4.58366 17.0833 3.15389 17.0833 2.18793C17.0377 1.19712 16.2117 0.416992 15.2083 0.416992C14.2048 0.416992 13.3789 1.19712 13.3333 2.18793C13.3333 3.15006 14.1205 4.58366 15.2102 4.58366ZM15.2102 1.03415C15.8527 1.03415 16.3736 1.549 16.3736 2.1841C16.3736 2.89707 15.7841 3.88602 15.2102 3.88602C14.6363 3.88602 14.0468 2.89707 14.0468 2.1841C14.0468 1.549 14.5677 1.03415 15.2102 1.03415Z" fill="#6B7280"/>
<path d="M15.625 14.167L15.6025 17.9791L16.6698 17.9791C16.6945 17.9792 16.7151 17.9603 16.7173 17.9356L16.7433 14.167H17.5L17.4697 17.9312C17.4732 18.1487 17.3893 18.3585 17.237 18.5127C17.0847 18.667 16.877 18.7527 16.6611 18.7503H13.7036C13.4924 18.7515 13.2897 18.6666 13.1415 18.515C12.9948 18.3621 12.914 18.157 12.9167 17.9443L12.947 14.1757H13.6993L13.6734 17.9399L13.7123 17.9791L14.7937 17.9791L14.8159 14.167H15.625Z" fill="#6B7280"/>
<path d="M18.1092 14.1657H12.2948C12.0916 14.1719 11.8982 14.0776 11.7771 13.9132C11.6616 13.7439 11.6349 13.5287 11.7054 13.336L13.7723 7.35152C13.8379 7.16947 14.0359 7.07339 14.2183 7.13506C14.3992 7.20105 14.4934 7.40141 14.4294 7.584L12.3983 13.4683H18.0136L16.0582 7.57999C16.0037 7.4576 16.0229 7.31471 16.1077 7.21126C16.1925 7.10782 16.3282 7.06172 16.458 7.09233C16.5877 7.12293 16.689 7.22493 16.7193 7.35552L18.7105 13.336C18.7831 13.529 18.7543 13.7458 18.634 13.9129C18.5137 14.08 18.318 14.175 18.1131 14.1657H18.1092Z" fill="#6B7280"/>
<path d="M11.1236 12.4942C11.0904 12.5024 11.0561 12.5024 11.0228 12.4942C10.8726 12.4295 10.7959 12.2366 10.8512 12.0627L12.6013 6.71161C12.8694 5.95824 13.491 5.45315 14.1948 5.41699H16.0606C16.7581 5.45249 17.3801 5.93536 17.6727 6.66845L19.5609 12.0109C19.6228 12.1837 19.5517 12.3817 19.4023 12.4532C19.2529 12.5247 19.0817 12.4426 19.0198 12.2698L17.1353 6.94032C16.9319 6.46208 16.5241 6.14489 16.0643 6.10745H14.1985C13.7438 6.1438 13.3428 6.4651 13.1536 6.94464L11.3997 12.2784C11.3551 12.4094 11.2453 12.4951 11.1236 12.4942Z" fill="#6B7280"/>
<path d="M10 2.5L12.5 0H7.5L10 2.5Z" fill="#6B7280"/>
<path d="M4.37694 4.58366C5.46277 4.58366 6.25 3.15389 6.25 2.18793C6.2044 1.19712 5.37844 0.416992 4.375 0.416992C3.37156 0.416992 2.5456 1.19712 2.5 2.18793C2.5 3.15389 3.28723 4.58366 4.37694 4.58366ZM4.37694 1.03415C5.01946 1.03415 5.54033 1.549 5.54033 2.1841C5.54033 2.89707 4.95088 3.88602 4.37694 3.88602C3.803 3.88602 3.21355 2.89707 3.21355 2.1841C3.21355 1.87912 3.33612 1.58662 3.5543 1.37096C3.77247 1.15531 4.06839 1.03415 4.37694 1.03415Z" fill="#6B7280"/>
<path d="M6.11822 8.33301C6.20909 8.33301 6.29618 8.37046 6.36007 8.43697C6.42395 8.50349 6.45932 8.59356 6.45832 8.68709L6.41137 18.0094C6.40707 18.4211 6.08045 18.7519 5.68045 18.7497H3.00301C2.81489 18.7482 2.635 18.6701 2.5027 18.5324C2.36718 18.3925 2.29125 18.2029 2.29163 18.0053L2.35026 8.67905C2.35025 8.58658 2.38621 8.49795 2.45009 8.43294C2.50333 8.37877 2.57228 8.34476 2.64577 8.33553L2.69031 8.33301C2.78084 8.33301 2.86754 8.37056 2.93081 8.4372C2.99408 8.50385 3.02857 8.59394 3.02646 8.68709L2.96783 18.0094L3.00301 18.0456L3.95954 18.0455L3.99418 11.2427C3.99418 11.0165 4.1727 10.833 4.3929 10.833C4.61311 10.833 4.79163 11.0165 4.79163 11.2427L4.76829 18.0455L5.68045 18.0456C5.70203 18.0456 5.71953 18.0276 5.71953 18.0053L5.77426 8.67905C5.77818 8.50145 5.90864 8.35687 6.07573 8.33568L6.11822 8.33301Z" fill="#6B7280"/>
<path d="M0.77172 12.5003H0.730936C0.634867 12.4904 0.547467 12.4458 0.488955 12.3768C0.430443 12.3077 0.405888 12.2203 0.42097 12.1346L1.10208 6.7554C1.21652 5.99979 1.92803 5.43169 2.77834 5.41699H5.97996C6.8287 5.43347 7.53794 6.00114 7.65214 6.7554L8.33329 12.142C8.33618 12.3074 8.1987 12.4479 8.01537 12.4668C7.83204 12.4857 7.6626 12.3768 7.62359 12.2151L6.94248 6.82854C6.87151 6.39525 6.4641 6.07002 5.97588 6.05694H2.77834C2.28856 6.06828 1.8789 6.39392 1.80766 6.82854L1.12655 12.2151C1.1059 12.377 0.953489 12.4995 0.77172 12.5003Z" fill="#6B7280"/>
<path d="M10.4166 3.33301H9.58325V19.1663H10.4166V3.33301Z" fill="#6B7280"/>
</svg>
