<svg width="64" height="87" viewBox="0 0 64 87" fill="none" xmlns="http://www.w3.org/2000/svg">
<path d="M56.972 7.95102L8.97205 1.67699C4.48209 1.09011 0.5 4.58558 0.5 9.11373V79C0.5 83.1421 3.85787 86.5 8 86.5H19.2871C21.6558 86.5 23.8853 85.381 25.3008 83.4817L37.1067 67.6402C38.7109 65.4877 41.2377 64.2195 43.9222 64.2195H56C60.1421 64.2195 63.5 60.8616 63.5 56.7195V15.3878C63.5 11.6214 60.7067 8.43917 56.972 7.95102Z" fill="#F9FAFB" stroke="#BE8B13"/>
<path d="M64 44.5208C64 42.785 62.5929 41.3779 60.8571 41.3779V41.3779C50.4426 41.3779 42 49.8206 42 60.2351L42 61.3849C42 63.2265 43.4929 64.7194 45.3345 64.7194L56 64.7194C60.4183 64.7194 64 61.1377 64 56.7194L64 44.5208Z" fill="#BE8B13"/>
<path d="M8 54.6707H32C33.933 54.6707 35.5 53.1037 35.5 51.1707V11.9303C35.5 10.1723 34.1959 8.68706 32.4527 8.45966L8.45273 5.32891C6.35771 5.05562 4.5 6.68674 4.5 8.79951L4.5 51.1707C4.5 53.1037 6.067 54.6707 8 54.6707Z" fill="#E9AE25" stroke="#74550C"/>
</svg>
