<svg width="18" height="17" viewBox="0 0 18 17" fill="none" xmlns="http://www.w3.org/2000/svg">
<path d="M0.68968 8.5L0.0291555 6.44C-0.0315821 6.25333 0.0025823 6.08333 0.131651 5.93C0.260719 5.77667 0.431545 5.7 0.644127 5.7C0.826341 5.7 0.97439 5.72 1.08827 5.76C1.20216 5.8 1.28947 5.85333 1.35021 5.92L2.51182 7.3L7.5227 7.3L5.5639 1.48C5.48798 1.22667 5.53353 0.999999 5.70056 0.799999C5.86759 0.599999 6.10295 0.499999 6.40664 0.499999C6.63441 0.5 6.82421 0.533333 6.97606 0.6C7.1279 0.666666 7.24179 0.76 7.31771 0.88L11.6225 7.3L16.6334 7.3C17.013 7.3 17.3357 7.41667 17.6014 7.65C17.8671 7.88333 18 8.16667 18 8.5C18 8.83333 17.8671 9.11667 17.6014 9.35C17.3357 9.58333 17.013 9.7 16.6334 9.7L11.6225 9.7L7.31771 16.12C7.24179 16.24 7.1279 16.3333 6.97606 16.4C6.82421 16.4667 6.63441 16.5 6.40664 16.5C6.10295 16.5 5.86759 16.4 5.70056 16.2C5.53353 16 5.48798 15.7733 5.5639 15.52L7.5227 9.7L2.51182 9.7L1.35021 11.08C1.28947 11.1467 1.20216 11.2 1.08827 11.24C0.97439 11.28 0.826341 11.3 0.644126 11.3C0.431545 11.3 0.260719 11.2233 0.13165 11.07C0.00258209 10.9167 -0.0315823 10.7467 0.0291553 10.56L0.68968 8.5Z" fill="#2E4755"/>
</svg>
