<svg width="24" height="25" viewBox="0 0 24 25" fill="none" xmlns="http://www.w3.org/2000/svg">
<g clip-path="url(#clip0_3830_225692)">
<path d="M5.49948 23.1599C5.44922 23.1141 5.39179 23.077 5.32947 23.0499C5.14369 22.9751 4.9312 23.0184 4.78947 23.1599C4.64942 23.3027 4.60799 23.5153 4.68416 23.7003C4.76033 23.8853 4.93944 24.0071 5.13947 24.0099C5.20511 24.0121 5.27032 23.9984 5.32947 23.9699C5.39376 23.9466 5.4519 23.909 5.49948 23.8599C5.54411 23.8145 5.57825 23.7599 5.59948 23.6999C5.62802 23.6407 5.64175 23.5755 5.63947 23.5099C5.64063 23.4443 5.62695 23.3794 5.59948 23.3199C5.57588 23.261 5.54202 23.2068 5.49948 23.1599Z" fill="#111827"/>
<path d="M8.61029 14.7049C8.46945 14.3336 8.18716 14.0333 7.82529 13.8699L6.43529 13.2449C6.07037 13.0765 5.65317 13.0617 5.2772 13.2036C4.90122 13.3455 4.59793 13.6324 4.43529 13.9999L1.66529 20.2049C1.49695 20.5698 1.48208 20.987 1.62401 21.363C1.76594 21.7389 2.0528 22.0422 2.42029 22.2049L3.81029 22.8249C4.00183 22.9118 4.20995 22.9561 4.42029 22.9549C5.01145 22.9556 5.54791 22.6091 5.79029 22.0699L8.57529 15.8499C8.7413 15.4886 8.75393 15.0756 8.61029 14.7049ZM7.66529 15.4449L4.88029 21.6449C4.82665 21.7663 4.72694 21.8614 4.60315 21.9092C4.47935 21.957 4.34161 21.9537 4.22029 21.8999L2.83029 21.2749C2.57941 21.1613 2.46763 20.8662 2.58029 20.6149L5.36529 14.4099C5.42052 14.2896 5.52121 14.1961 5.64529 14.1499C5.76702 14.0999 5.90356 14.0999 6.02529 14.1499L7.41529 14.7699C7.53706 14.8244 7.63198 14.9254 7.67893 15.0503C7.72589 15.1751 7.72097 15.3136 7.66529 15.4349V15.4449Z" fill="#111827"/>
<path d="M20.9395 12.335L18.5845 11.235C18.2672 11.089 18.0033 10.8479 17.8295 10.545L16.1395 7.58998C16.1395 7.58998 16.1395 7.58998 16.1145 7.55998C15.8232 7.02996 15.2981 6.6692 14.6989 6.5874C14.0997 6.50559 13.4971 6.71242 13.0745 7.14498L10.1095 9.46498C10.0478 9.51691 9.99828 9.58178 9.96446 9.65498L8.46446 12.945C8.40846 13.0656 8.40282 13.2036 8.4488 13.3284C8.49478 13.4532 8.58858 13.5545 8.70946 13.61C8.77566 13.6391 8.84712 13.6545 8.91946 13.655C9.11591 13.6546 9.29392 13.5392 9.37446 13.36L10.8195 10.18L12.4995 8.84998V12.91C12.5011 13.3281 12.5986 13.7404 12.7845 14.115L17.3945 23.32C17.6671 23.7535 18.1475 24.0117 18.6595 24C18.9352 23.9981 19.2051 23.9202 19.4395 23.775C20.1138 23.3609 20.3356 22.485 19.9395 21.8L16.3695 14.37V9.99998L16.9645 11.04C17.241 11.5232 17.6601 11.9092 18.1645 12.145L20.4995 13.24C20.5657 13.2691 20.6371 13.2845 20.7095 13.285C20.942 13.2836 21.1429 13.1221 21.1942 12.8954C21.2455 12.6686 21.1337 12.4363 20.9245 12.335H20.9395ZM19.0595 22.295C19.1951 22.5147 19.1282 22.8027 18.9095 22.94C18.7027 23.0583 18.4412 23.0144 18.2845 22.835L13.6995 13.665C13.5732 13.433 13.5046 13.174 13.4995 12.91V8.49998C13.5021 8.26927 13.5913 8.04798 13.7495 7.87998L13.7795 7.84498C14.041 7.56676 14.4472 7.47901 14.8002 7.62445C15.1533 7.76988 15.3798 8.11828 15.3695 8.49998V14.5C15.3695 14.5756 15.3848 14.6504 15.4145 14.72L19.0595 22.295Z" fill="#111827"/>
<path d="M13.1745 17.745L12.8645 18.685C12.8363 18.7592 12.7939 18.8272 12.7395 18.885L10.3045 22.625C10.2382 22.7432 10.1227 22.8257 9.98949 22.85C9.85592 22.8723 9.71925 22.8358 9.61449 22.75C9.45645 22.6158 9.40916 22.3917 9.49949 22.205L11.9995 18.325C12.0208 18.2882 12.0392 18.2497 12.0545 18.21L12.6595 16.37L12.0445 15.145C12.0058 15.193 11.9754 15.2471 11.9545 15.305L11.1245 17.835L8.65949 21.69C8.32495 22.2913 8.45392 23.0443 8.96949 23.5C9.23473 23.7175 9.5665 23.8375 9.90949 23.84C9.99433 23.8475 10.0797 23.8475 10.1645 23.84C10.5835 23.7694 10.9498 23.5167 11.1645 23.15L13.5395 19.5C13.6634 19.3532 13.7568 19.1833 13.8145 19L13.8695 18.835L13.2545 17.6C13.2199 17.6436 13.1929 17.6926 13.1745 17.745Z" fill="#111827"/>
<path d="M14.6659 5.45023C15.8159 5.45023 16.5759 3.99023 16.5759 3.02523C16.5759 1.97037 15.7207 1.11523 14.6659 1.11523C13.611 1.11523 12.7559 1.97037 12.7559 3.02523C12.7559 4.00023 13.5009 5.45023 14.6659 5.45023ZM14.6659 2.11523C15.1673 2.11797 15.5731 2.52379 15.5759 3.02523C15.5759 3.64023 15.0759 4.45023 14.6659 4.45023C14.2559 4.45023 13.7559 3.64023 13.7559 3.02523C13.7559 2.52266 14.1633 2.11523 14.6659 2.11523Z" fill="#111827"/>
<path d="M20.5 2.5V8.015L23.255 5.255L20.5 2.5Z" fill="#BE8B13"/>
</g>
<defs>
<clipPath id="clip0_3830_225692">
<rect width="24" height="24" fill="white" transform="translate(0 0.5)"/>
</clipPath>
</defs>
</svg>
