<svg width="12" height="15" viewBox="0 0 12 15" fill="none" xmlns="http://www.w3.org/2000/svg">
<path d="M7.66669 13.7505C7.7772 13.7505 7.88318 13.7066 7.96132 13.6284C8.03946 13.5503 8.08336 13.4443 8.08336 13.3338V7.91715H10.9167C10.9967 7.91706 11.075 7.89396 11.1422 7.85059C11.2094 7.80723 11.2627 7.74543 11.2957 7.67259C11.3288 7.59974 11.3401 7.51892 11.3285 7.43979C11.3168 7.36065 11.2827 7.28654 11.23 7.22631L6.31336 1.60881C6.27425 1.5642 6.22607 1.52845 6.17203 1.50396C6.11799 1.47947 6.05935 1.4668 6.00002 1.4668C5.9407 1.4668 5.88205 1.47947 5.82802 1.50396C5.77398 1.52845 5.7258 1.5642 5.68669 1.60881L0.770024 7.22631C0.717391 7.28654 0.683209 7.36065 0.671558 7.43979C0.659907 7.51892 0.671281 7.59974 0.704321 7.67259C0.737361 7.74543 0.79067 7.80723 0.857882 7.85059C0.925095 7.89396 1.00337 7.91706 1.08336 7.91715H3.91669V13.3338C3.91669 13.4443 3.96059 13.5503 4.03873 13.6284C4.11687 13.7066 4.22285 13.7505 4.33336 13.7505H7.66669Z" stroke="#9CA3AF" stroke-linecap="round" stroke-linejoin="round"/>
</svg>
