<?xml version="1.0" encoding="UTF-8"?>
<svg width="48px" height="48px" viewBox="0 0 48 48" version="1.1" xmlns="http://www.w3.org/2000/svg" xmlns:xlink="http://www.w3.org/1999/xlink">
    <!-- Generator: Sketch 62 (91390) - https://sketch.com -->
    <title>Atom/ Icon/ Rich icon/ Actions/ Emoji 2 Fair</title>
    <desc>Created with Sketch.</desc>
    <g id="Atom/-Icon/-Rich-icon/-Actions/-Emoji-2-Fair" stroke="none" stroke-width="1" fill="none" fill-rule="evenodd">
        <g id="ACTN_Emoji_2_Fair">
            <rect id="Rectangle" x="0" y="0" width="48" height="48"></rect>
            <g id="Group" fill-rule="nonzero">
                <path d="M17.7286957,16.1113043 C17.7286957,17.0910095 16.9344878,17.8852174 15.9547826,17.8852174 C14.9750775,17.8852174 14.1808696,17.0910095 14.1808696,16.1113043 C14.1808696,15.1315992 14.9750775,14.3373913 15.9547826,14.3373913 C16.9344878,14.3373913 17.7286957,15.1315992 17.7286957,16.1113043 Z" id="Path" fill="#4E4C4A"></path>
                <path d="M33.0991305,16.1113043 C33.0991305,17.0910095 32.3049225,17.8852174 31.3252174,17.8852174 C30.3455123,17.8852174 29.5513044,17.0910095 29.5513044,16.1113043 C29.5513044,15.1315992 30.3455123,14.3373913 31.3252174,14.3373913 C32.3049225,14.3373913 33.0991305,15.1315992 33.0991305,16.1113043 L33.0991305,16.1113043 Z" id="Path" fill="#4E4C4A"></path>
                <path d="M23.9894087,48 C10.735955,47.9941512 -0.00389773054,37.246396 0,23.9929409 C0.00389985288,10.7394858 10.7500741,-0.0019487507 24.0035289,0 C37.2569837,0.0019487507 48,10.746543 48,24 C47.9824841,37.2517058 37.2411215,47.9883309 23.9894087,48 Z M23.9894087,2.39364272 C12.0565484,2.39364272 2.38305386,12.0671378 2.38305386,23.9999987 C2.38305386,35.9328596 12.0565484,45.6063547 23.9894087,45.6063547 C35.9222689,45.6063547 45.5957635,35.9328596 45.5957635,23.9999987 C45.5840865,12.0719779 35.9174288,2.4053197 23.9894087,2.39364272 Z" id="Shape" fill="#4E4C4A"></path>
                <rect id="Rectangle" fill="#4E4C4A" x="14.1808696" y="28.5286957" width="18.9182609" height="2.36869565"></rect>
                <polygon id="Path" fill="#BD8B13" points="40 0 48 8 48 0"></polygon>
            </g>
        </g>
    </g>
</svg>