<svg width="24" height="25" viewBox="0 0 24 25" fill="none" xmlns="http://www.w3.org/2000/svg">
<g clip-path="url(#clip0_3830_225689)">
<path d="M21.9733 9.08802C21.6281 9.09154 21.2898 9.18574 20.992 9.36127V7.37352C20.9861 6.06093 19.9253 5 18.6187 5H13.3653C12.0596 5 11.0003 6.06179 10.9973 7.37352V9.36663C10.3835 9.0042 9.6237 8.99895 9.00498 9.35286C8.38626 9.70678 8.003 10.3659 8 11.0811V14.9656C8.00881 16.1234 8.94875 17.0557 10.1013 17.0498H11.0027V19H12V17.0498H20V19H21.0027V17.0498H21.8667C22.4257 17.0612 22.9661 16.8472 23.367 16.4556C23.7678 16.0639 23.9958 15.5273 24 14.9656V11.0811C23.9958 10.5464 23.7795 10.0354 23.3992 9.66129C23.0188 9.28719 22.5056 9.08087 21.9733 9.08802ZM11.9947 7.37352C11.9961 7.00974 12.1413 6.66143 12.3983 6.40521C12.6554 6.14899 13.0032 6.00585 13.3653 6.00726H18.6187C18.9808 6.00585 19.3286 6.14899 19.5857 6.40521C19.8427 6.66143 19.9879 7.00974 19.9893 7.37352V13.0314H11.9893V7.37352H11.9947ZM22.9867 14.9656C22.9666 15.5613 22.4814 16.0346 21.888 16.0371H10.096C9.50263 16.0346 9.01739 15.5613 8.99733 14.9656V11.0811C9.03563 10.5547 9.47193 10.1473 9.99733 10.1473C10.5227 10.1473 10.959 10.5547 10.9973 11.0811V13.535C10.9959 13.6681 11.0475 13.7962 11.1407 13.8908C11.2339 13.9854 11.3609 14.0387 11.4933 14.0387H20.4907C20.7675 14.0387 20.992 13.8132 20.992 13.535V11.0811C20.992 10.5278 21.4385 10.0792 21.9893 10.0792C22.5401 10.0792 22.9867 10.5278 22.9867 11.0811V14.9656Z" fill="#111827"/>
<path d="M0 13.9867H2.75838L0.848323 18.632L1.77668 19L3.5 14.808L5.22332 19L6.15168 18.632L4.24162 13.9867H7V13H0V13.9867Z" fill="#111827"/>
<path d="M13 12H17L13 8V12Z" fill="#BE8B13"/>
</g>
<defs>
<clipPath id="clip0_3830_225689">
<rect width="24" height="24" fill="white" transform="translate(0 0.5)"/>
</clipPath>
</defs>
</svg>
