<svg width="24" height="25" viewBox="0 0 24 25" fill="none" xmlns="http://www.w3.org/2000/svg">
<path d="M15.7778 16.5H21.7778C22.1756 16.5 22.5572 16.342 22.8385 16.0607C23.1198 15.7794 23.2778 15.3978 23.2778 15C23.2778 14.6022 23.1198 14.2207 22.8385 13.9393C22.5572 13.658 22.1756 13.5 21.7778 13.5H21.2778C21.2778 12.9696 21.0671 12.4609 20.692 12.0858C20.317 11.7107 19.8083 11.5 19.2778 11.5H7.27782C6.9638 11.5003 6.65336 11.4333 6.36738 11.3036C6.0814 11.1738 5.8265 10.9844 5.61982 10.748L3.07682 7.84101C2.98298 7.7339 2.86735 7.64808 2.73766 7.58927C2.60797 7.53046 2.46722 7.50003 2.32482 7.50001H1.72482C1.56294 7.49942 1.40334 7.53814 1.25973 7.61284C1.11612 7.68754 0.99279 7.79599 0.900336 7.92886C0.807882 8.06174 0.749068 8.21508 0.728947 8.3757C0.708826 8.53632 0.727999 8.69943 0.784819 8.85101L1.77882 11.5C1.42684 11.6902 1.14201 11.9843 0.963078 12.3421C0.78415 12.7 0.719812 13.1043 0.778819 13.5V13.517C0.778819 14.93 4.39982 16.5 7.18382 16.5H7.77882" stroke="#2E4755" stroke-linecap="round" stroke-linejoin="round"/>
<path d="M21.2788 13.5H19.2788" stroke="#2E4755" stroke-linecap="round" stroke-linejoin="round"/>
<path d="M7.77881 16.5C7.77881 16.7652 7.88417 17.0196 8.0717 17.2071C8.25924 17.3946 8.51359 17.5 8.77881 17.5H14.7788C15.044 17.5 15.2984 17.3946 15.4859 17.2071C15.6735 17.0196 15.7788 16.7652 15.7788 16.5C15.7788 16.2496 15.7255 16.0021 15.6225 15.7739C15.5195 15.5457 15.3691 15.342 15.1814 15.1763C14.9937 15.0107 14.7729 14.8868 14.5337 14.8129C14.2945 14.7391 14.0422 14.717 13.7938 14.748L8.77081 15.376C8.49692 15.4104 8.24499 15.5435 8.06233 15.7505C7.87967 15.9574 7.77886 16.224 7.77881 16.5Z" stroke="#2E4755" stroke-linecap="round" stroke-linejoin="round"/>
<path d="M6.27881 13.5V14.5" stroke="#2E4755" stroke-linecap="round" stroke-linejoin="round"/>
<path d="M17.2788 13.5V14.5" stroke="#2E4755" stroke-linecap="round" stroke-linejoin="round"/>
</svg>
