<svg width="24" height="24" viewBox="0 0 24 24" fill="none" xmlns="http://www.w3.org/2000/svg">
<g clip-path="url(#clip0_115_5125)">
<path d="M5.49999 22.66C5.44974 22.6143 5.39231 22.5771 5.32999 22.55C5.14421 22.4752 4.93172 22.5185 4.78999 22.66C4.64993 22.8029 4.60851 23.0154 4.68468 23.2004C4.76085 23.3854 4.93996 23.5072 5.13999 23.51C5.20563 23.5123 5.27084 23.4986 5.32999 23.47C5.39428 23.4467 5.45242 23.4091 5.49999 23.36C5.54463 23.3146 5.57877 23.26 5.59999 23.2C5.62854 23.1409 5.64226 23.0757 5.63999 23.01C5.64115 22.9445 5.62747 22.8795 5.59999 22.82C5.5764 22.7612 5.54254 22.707 5.49999 22.66Z" fill="#111827"/>
<path d="M8.61 14.205C8.46916 13.8337 8.18687 13.5335 7.825 13.37L6.435 12.745C6.07008 12.5767 5.65288 12.5618 5.27691 12.7037C4.90093 12.8456 4.59764 13.1325 4.435 13.5L1.665 19.705C1.49666 20.0699 1.48179 20.4871 1.62372 20.8631C1.76565 21.2391 2.05251 21.5424 2.42 21.705L3.81 22.325C4.00154 22.4119 4.20966 22.4563 4.42 22.455C5.01116 22.4557 5.54762 22.1092 5.79 21.57L8.575 15.35C8.74101 14.9888 8.75364 14.5757 8.61 14.205ZM7.665 14.945L4.88 21.145C4.82636 21.2664 4.72665 21.3615 4.60286 21.4093C4.47906 21.4571 4.34132 21.4538 4.22 21.4L2.83 20.775C2.57912 20.6614 2.46734 20.3663 2.58 20.115L5.365 13.91C5.42023 13.7897 5.52092 13.6962 5.645 13.65C5.76673 13.6 5.90327 13.6 6.025 13.65L7.415 14.27C7.53677 14.3245 7.63169 14.4255 7.67864 14.5504C7.7256 14.6753 7.72068 14.8137 7.665 14.935V14.945Z" fill="#111827"/>
<path d="M20.94 11.835L18.585 10.735C18.2677 10.5891 18.0038 10.3479 17.83 10.045L16.14 7.09001C16.14 7.09001 16.14 7.09001 16.115 7.06001C15.8237 6.52999 15.2987 6.16923 14.6994 6.08743C14.1002 6.00562 13.4977 6.21245 13.075 6.64501L10.11 8.96501C10.0483 9.01694 9.99882 9.08181 9.965 9.15501L8.465 12.445C8.40899 12.5656 8.40335 12.7036 8.44933 12.8284C8.49531 12.9532 8.58911 13.0545 8.71 13.11C8.77619 13.1392 8.84766 13.1545 8.92 13.155C9.11645 13.1546 9.29445 13.0392 9.375 12.86L10.82 9.68001L12.5 8.35001V12.41C12.5016 12.8282 12.5991 13.2404 12.785 13.615L17.395 22.82C17.6676 23.2535 18.148 23.5117 18.66 23.5C18.9357 23.4981 19.2056 23.4203 19.44 23.275C20.1143 22.861 20.3361 21.9851 19.94 21.3L16.37 13.87V9.50001L16.965 10.54C17.2415 11.0233 17.6606 11.4092 18.165 11.645L20.5 12.74C20.5662 12.7692 20.6377 12.7845 20.71 12.785C20.9425 12.7836 21.1434 12.6222 21.1947 12.3954C21.2461 12.1686 21.1343 11.9364 20.925 11.835H20.94ZM19.06 21.795C19.1957 22.0147 19.1287 22.3027 18.91 22.44C18.7033 22.5584 18.4417 22.5144 18.285 22.335L13.7 13.165C13.5737 12.933 13.5051 12.6741 13.5 12.41V8.00001C13.5026 7.7693 13.5919 7.54801 13.75 7.38001L13.78 7.34501C14.0415 7.06679 14.4477 6.97904 14.8008 7.12448C15.1538 7.26991 15.3803 7.61831 15.37 8.00001V14C15.37 14.0756 15.3853 14.1505 15.415 14.22L19.06 21.795Z" fill="#111827"/>
<path d="M13.175 17.245L12.865 18.185C12.8369 18.2592 12.7944 18.3272 12.74 18.385L10.305 22.125C10.2387 22.2431 10.1233 22.3256 9.99001 22.35C9.85644 22.3722 9.71977 22.3358 9.61501 22.25C9.45697 22.1157 9.40968 21.8916 9.50001 21.705L12 17.825C12.0213 17.7882 12.0397 17.7497 12.055 17.71L12.66 15.87L12.045 14.645C12.0063 14.693 11.9759 14.747 11.955 14.805L11.125 17.335L8.66001 21.19C8.32546 21.7913 8.45444 22.5443 8.97001 23C9.23525 23.2175 9.56702 23.3375 9.91001 23.34C9.99484 23.3474 10.0802 23.3474 10.165 23.34C10.5841 23.2694 10.9503 23.0167 11.165 22.65L13.54 19C13.6639 18.8532 13.7574 18.6832 13.815 18.5L13.87 18.335L13.255 17.1C13.2205 17.1435 13.1934 17.1925 13.175 17.245Z" fill="#111827"/>
<path d="M14.665 4.94999C15.815 4.94999 16.575 3.48999 16.575 2.52499C16.575 1.47013 15.7199 0.61499 14.665 0.61499C13.6101 0.61499 12.755 1.47013 12.755 2.52499C12.755 3.49999 13.5 4.94999 14.665 4.94999ZM14.665 1.61499C15.1664 1.61772 15.5723 2.02355 15.575 2.52499C15.575 3.13999 15.075 3.94999 14.665 3.94999C14.255 3.94999 13.755 3.13999 13.755 2.52499C13.755 2.02241 14.1624 1.61499 14.665 1.61499Z" fill="#111827"/>
<path d="M20.5 2V7.515L23.255 4.755L20.5 2Z" fill="#BE8B13"/>
</g>
<defs>
<clipPath id="clip0_115_5125">
<rect width="24" height="24" fill="white"/>
</clipPath>
</defs>
</svg>
