<svg width="540" height="453" viewBox="0 0 540 453" fill="none" xmlns="http://www.w3.org/2000/svg">
<path d="M0.650292 452.5C0.699371 452.316 0.759223 452.093 0.829771 451.83C1.05992 450.974 1.40392 449.703 1.85906 448.045C2.76934 444.729 4.12423 439.865 5.90223 433.673C9.45825 421.29 14.7067 403.6 21.4756 382.371C35.0139 339.911 54.6329 283.303 78.9573 226.697C103.284 170.087 132.307 113.505 164.645 71.0844C197.004 28.6368 232.583 0.5 270 0.5C307.417 0.5 342.996 28.6368 375.355 71.0844C407.693 113.505 436.716 170.087 461.043 226.697C485.367 283.303 504.986 339.911 518.524 382.371C525.293 403.6 530.542 421.29 534.098 433.673C535.876 439.865 537.231 444.729 538.141 448.045C538.596 449.703 538.94 450.974 539.17 451.83C539.241 452.093 539.301 452.316 539.35 452.5H270H0.650292Z" fill="white" stroke="#E5E7EB"/>
<path opacity="0.5" d="M501.662 368.02C506.006 383.879 493.941 399 477.498 399V399C467.265 399 458.004 392.936 453.912 383.557L418.604 302.622C414.246 292.634 406.002 284.856 395.777 281.086L283.837 239.816C274.906 236.523 265.094 236.523 256.163 239.816L144.223 281.086C133.998 284.856 125.754 292.634 121.396 302.622L86.0881 383.557C81.996 392.936 72.7351 399 62.5016 399V399C46.0586 399 33.9939 383.879 38.3385 368.02C61.5506 283.292 136.683 54 270 54C403.317 54 478.449 283.291 501.662 368.02Z" fill="#E5E7EB"/>
<mask id="path-3-inside-1_2682_2083" fill="white">
<path d="M0 365H540V453H0V365Z"/>
</mask>
<path d="M540 452H0V454H540V452Z" fill="#E5E7EB" mask="url(#path-3-inside-1_2682_2083)"/>
</svg>
