<svg width="65" height="64" viewBox="0 0 65 64" fill="none" xmlns="http://www.w3.org/2000/svg">
<path d="M32.9292 3.49927C46.9709 3.5648 58.891 13.8075 61.0692 27.6793C62.2818 35.8746 59.876 44.1927 54.4759 50.4755C49.0759 56.7583 41.2138 60.3867 32.9292 60.4193C22.1922 60.4217 12.3678 54.3811 7.5238 44.7989C2.67984 35.2166 3.64098 23.7239 10.0092 15.0793C15.3704 7.79096 23.8815 3.49084 32.9292 3.49927ZM32.9292 0.898838C31.3487 0.890547 29.7701 1.01095 28.2092 1.25928C12.1597 3.72435 0.717446 18.1356 1.9548 34.3261C3.19216 50.5166 16.6915 63.0218 32.9292 63.0193C34.5094 63.0172 36.0871 62.8969 37.6492 62.6593C53.6988 60.1942 65.141 45.7829 63.9037 29.5924C62.6663 13.4019 49.167 0.896798 32.9292 0.898838Z" fill="#0C8839"/>
<path d="M21.2695 33.0401L29.3695 39.4001C30.2842 40.1229 31.6092 39.9807 32.3495 39.0801L46.3495 22.0801" stroke="#0C8839" stroke-width="2.6"/>
</svg>
