<svg width="40" height="40" viewBox="0 0 40 40" fill="none" xmlns="http://www.w3.org/2000/svg">
<path d="M20 39.4595C8.9543 39.4595 0 30.7472 0 20C0 9.25284 8.9543 0.540539 20 0.540539C31.0457 0.540539 40 9.25284 40 20C40 30.7472 31.0457 39.4595 20 39.4595Z" fill="#2E4755"/>
<mask id="mask0_8192_37075" style="mask-type:alpha" maskUnits="userSpaceOnUse" x="2" y="1" width="36" height="37">
<path d="M20 37.5C10.0589 37.5 2 29.4411 2 19.5C2 9.55887 10.0589 1.5 20 1.5C29.9411 1.5 38 9.55887 38 19.5C38 29.4411 29.9411 37.5 20 37.5Z" fill="white"/>
</mask>
<g mask="url(#mask0_8192_37075)">
<mask id="mask1_8192_37075" style="mask-type:luminance" maskUnits="userSpaceOnUse" x="1" y="1" width="38" height="38">
<path d="M20.0106 38.3916C9.57246 38.3916 1.11064 30.1584 1.11064 20.0024C1.11064 9.8463 9.57246 1.61317 20.0106 1.61317C30.4488 1.61317 38.9106 9.8463 38.9106 20.0024C38.9106 30.1584 30.4488 38.3916 20.0106 38.3916Z" fill="white"/>
</mask>
<g mask="url(#mask1_8192_37075)">
<mask id="mask2_8192_37075" style="mask-type:luminance" maskUnits="userSpaceOnUse" x="6" y="8" width="43" height="33">
<path d="M18.7341 40.226L6.40186 8.10811H10.9969C12.6861 8.10811 14.3103 8.723 15.5565 9.8321L18.4152 12.3836L48.0705 40.2202H18.7459L18.7341 40.226Z" fill="white"/>
</mask>
<g mask="url(#mask2_8192_37075)">
<path d="M5.16919 7.80349L19.2792 19.0496L20.6081 13.0157L13.8986 5.32095L5.16919 7.80349Z" fill="#9E742B"/>
<path d="M19.2708 18.3905L20.387 13.3277L27.2206 19.8559L19.2708 18.3905Z" fill="#6C3921"/>
<path d="M19.2708 18.391L25.2833 24.856L30.5989 20.4828L19.2708 18.391Z" fill="white"/>
<path d="M25.0911 24.9757L28.6289 21.9932L32.1963 25.3435L29.3377 28.2168L25.0911 24.9757Z" fill="#CDC9B6"/>
<path d="M29.3359 28.2177L31.9347 25.1605L36.5534 29.2865L29.3359 28.2177Z" fill="#F6ECD5"/>
<path d="M29.3359 28.2137L31.9347 34.9487L36.5534 29.2826L29.3359 28.2137Z" fill="#CDC9B6"/>
<path d="M36.4748 29.3666L49.7048 41.716L40.3434 35.3143L31.927 34.9465L36.4748 29.3666Z" fill="#6C3921"/>
<path d="M31.927 34.9493L34.8624 44.3565L49.7048 41.7188L45.9543 35.5929L31.927 34.9493Z" fill="#F6ECD5"/>
<path d="M5.40796 7.36486L11.2906 22.0705L19.2758 18.3926L5.40796 7.36486Z" fill="#CD9B2B"/>
<path d="M11.1111 22.0689L19.2794 18.391L16.5744 29.2866L13.7512 28.4074L11.1111 22.0689Z" fill="#6C3921"/>
<path d="M13.7412 28.4037L16.5644 29.283L15.5013 33.2711L13.7412 28.4037Z" fill="#9E742B"/>
<path d="M19.2761 18.391L25.2887 24.856L21.113 31.0681L16.571 29.2866L19.2761 18.391Z" fill="#CDC9B6"/>
<path d="M16.5664 29.2821L15.3733 33.661L16.5664 35.5229L21.1083 31.0635L16.5664 29.2821Z" fill="#CD9B2B"/>
<path d="M25.2824 24.8564L29.3282 28.2182L21.1067 31.0685L25.2824 24.8564Z" fill="#6C3921"/>
<path d="M16.571 35.5236L16.9727 36.6039L23.4518 36.4488L21.113 31.0642L16.571 35.5236Z" fill="#CDC9B6"/>
<path d="M21.1067 31.064L29.3282 28.2137L23.4456 36.4486L21.1067 31.064Z" fill="#9C762B"/>
<path d="M29.3375 28.2137L31.9362 34.9487L23.4548 36.4486L29.3375 28.2137Z" fill="#F6ECD5"/>
<path d="M23.4548 36.4492L34.3637 42.736L31.9362 34.9493L23.4548 36.4492Z" fill="white"/>
<path d="M16.9689 36.6079L23.448 36.4527L16.6145 40.7857L16.9689 36.6079Z" fill="#F6ECD5"/>
<path d="M23.4466 36.4527L15.9634 41.1994H31.6858L23.4466 36.4527Z" fill="#CDC9B6"/>
</g>
</g>
</g>
</svg>
