<svg width="15" height="14" viewBox="0 0 15 14" fill="none" xmlns="http://www.w3.org/2000/svg">
<path d="M7.50045 12.3281L5.85156 13.9801H9.14934L7.50045 12.3281Z" fill="#B08747"/>
<path d="M14.1723 4.90122C13.3163 2.19367 10.9203 0.269798 8.10065 0.0260366C5.28099 -0.217725 2.59248 1.26659 1.28785 3.78735C-0.491957 7.23083 0.845414 11.4705 4.27542 13.2584C4.63276 13.4379 5.00387 13.5884 5.38518 13.7083L5.42279 13.6706L5.85228 13.2395C5.40092 13.1189 4.96372 12.9501 4.54816 12.7361C1.83093 11.3266 0.484198 8.18669 1.33165 5.23689C2.17909 2.28708 4.98467 0.349 8.03242 0.608008C11.0802 0.867017 13.5211 3.25097 13.8624 6.3018C14.2037 9.35262 12.3501 12.2205 9.43547 13.1514C9.33829 13.1829 9.24111 13.2017 9.14393 13.2301L9.57654 13.6643L9.62357 13.7083C13.3011 12.5333 15.3363 8.59139 14.1723 4.89807V4.90122Z" fill="white"/>
<path d="M9.93074 7.32893C10.2131 7.29418 10.4318 7.06507 10.4534 6.78137C10.6121 5.90093 10.8641 5.53693 10.9978 5.53693C11.0694 5.53693 11.3276 5.79204 11.5112 6.5387C11.673 7.1827 11.8534 7.74893 11.8627 7.78315C11.9 7.9045 12.0127 7.98682 12.1396 7.98537C12.1664 7.98967 12.1937 7.98967 12.2205 7.98537C12.3725 7.94294 12.4625 7.78654 12.4227 7.63381C12.3494 7.23572 12.3937 6.82488 12.5503 6.45159L12.569 6.39559C12.8334 5.71737 12.8801 5.59293 12.5503 5.15115L12.5192 5.10759C12.5793 5.05238 12.6225 4.98115 12.6436 4.90226C12.7058 4.6907 12.6281 4.42626 12.3916 4.01248C12.0805 3.45248 11.9623 3.23781 11.925 3.16004C11.9185 3.08983 11.8864 3.02447 11.8347 2.97648C11.7255 2.87989 11.5638 2.87213 11.4458 2.95781C11.2156 3.13826 11.2934 3.26893 11.8876 4.30493C11.9668 4.43125 12.0295 4.56716 12.0743 4.70937C11.9743 4.75876 11.9014 4.84991 11.8752 4.95826C11.8663 5.09771 11.9146 5.23478 12.009 5.33781L12.093 5.45604C12.233 5.65204 12.233 5.65204 12.0432 6.1467V6.16537C11.7881 5.30048 11.393 4.86804 10.9201 4.95204C10.4472 5.03604 10.0956 5.61781 9.90274 6.67559C9.90274 6.71292 9.88718 6.73781 9.90274 6.74715C9.8094 6.71915 9.54496 6.50137 9.34274 5.9227C9.09221 5.18556 8.42914 4.66659 7.6534 4.60048H7.60362C7.48127 4.54768 7.35081 4.51612 7.21785 4.50715C7.2384 4.39884 7.1963 4.28818 7.10896 4.22093C7.04802 4.17356 6.97069 4.15251 6.89416 4.16244C6.81762 4.17237 6.74823 4.21247 6.7014 4.27381C6.55797 4.41694 6.50531 4.62758 6.56451 4.82137C6.66718 5.04848 6.90985 5.06715 7.10585 5.0827C7.18541 5.0839 7.26464 5.09329 7.34229 5.1107C7.31336 5.24642 7.23453 5.36633 7.1214 5.4467C6.96357 5.59379 6.77251 5.70053 6.56451 5.75781C6.38718 5.4467 5.81785 4.56315 5.35118 4.58804C5.17343 4.60586 5.02886 4.73902 4.99651 4.9147C4.89696 5.3067 4.88762 6.30226 5.21429 6.80937C5.31333 6.97274 5.4775 7.08596 5.6654 7.12048C5.84065 7.15391 6.01911 7.16748 6.1974 7.16093C6.08423 7.28912 5.96373 7.41066 5.83651 7.52493C5.63602 7.69423 5.45826 7.88873 5.30762 8.10359C5.15788 8.37141 5.13618 8.69228 5.24851 8.97781C5.31696 9.2267 5.33562 9.33559 5.20185 9.48493C5.00195 9.71963 4.87062 10.0049 4.82229 10.3094C4.79643 10.5938 4.64463 10.8518 4.40851 11.0125C4.37429 11.0343 4.3214 11.0685 4.19696 11.0125C3.76451 10.7543 3.36629 9.76804 3.39118 9.45693C3.39628 9.10234 3.33508 8.74992 3.21073 8.41781C3.10996 8.12956 3.04721 7.8294 3.02407 7.52493V7.33515C3.02407 7.05204 3.02407 6.87781 2.84984 6.7627C2.69746 6.68028 2.51378 6.68028 2.3614 6.7627C2.30229 6.78448 2.22762 6.80937 2.13118 6.83737C2.06569 6.86211 1.99471 6.86856 1.92584 6.85604C1.81198 6.74376 1.62904 6.74376 1.51518 6.85604C1.46046 6.91036 1.42969 6.98427 1.42969 7.06137C1.42969 7.13847 1.46046 7.21238 1.51518 7.2667C1.72802 7.44633 2.02339 7.49196 2.28051 7.38493L2.43296 7.33826V7.53115C2.46314 7.89348 2.54485 8.24966 2.67562 8.58893C2.77477 8.85268 2.8274 9.13163 2.83118 9.41337C2.77207 9.93293 3.26673 11.1276 3.92007 11.5071C4.04815 11.5867 4.19553 11.6297 4.34629 11.6316C4.48505 11.6275 4.61985 11.5844 4.73518 11.5071C5.09602 11.2649 5.33606 10.88 5.39473 10.4494C5.42529 10.2428 5.5089 10.0477 5.6374 9.88315C5.89418 9.59746 5.96434 9.1898 5.81785 8.8347C5.76185 8.62004 5.74318 8.52359 5.81785 8.41781C5.94341 8.24887 6.08741 8.09443 6.24718 7.95737C6.62673 7.60581 7.05607 7.20759 6.8694 6.71293C6.81047 6.56825 6.65339 6.48971 6.50229 6.52937C6.26235 6.58557 6.01329 6.59087 5.77118 6.54492C5.74487 6.52923 5.72335 6.50664 5.70896 6.47959C5.54955 6.10831 5.48847 5.70223 5.53162 5.30048C5.7488 5.53635 5.93682 5.79748 6.09162 6.07826C6.20601 6.30688 6.47734 6.40863 6.71385 6.31159C7.1214 6.22448 7.81829 5.80137 7.92096 5.23826C8.32426 5.37636 8.6397 5.69525 8.7734 6.10004C9.03474 6.88715 9.48585 7.36626 9.93074 7.32893Z" fill="white"/>
<path d="M6.4061 9.60722C6.16601 9.85493 6.05154 10.1983 6.09499 10.5406C6.11083 10.6886 6.23541 10.8012 6.38432 10.8019H6.4061C6.56279 10.7855 6.67834 10.6479 6.66743 10.4908C6.64339 10.3305 6.69119 10.1677 6.7981 10.0459C6.90972 9.93516 6.91248 9.75556 6.80432 9.64145C6.69743 9.535 6.52958 9.52058 6.4061 9.60722Z" fill="white"/>
<path d="M11.36 10.777C11.3137 10.9316 11.4014 11.0946 11.556 11.141C11.584 11.144 11.6121 11.144 11.64 11.141C11.768 11.1349 11.8792 11.0509 11.92 10.9295C12.3929 9.3179 13.1178 9.10012 13.1458 9.09079C13.3007 9.05804 13.4005 8.90695 13.3698 8.75168C13.3399 8.59404 13.1886 8.48993 13.0307 8.51834C12.9187 8.55256 11.9449 8.79523 11.36 10.777Z" fill="white"/>
<path d="M2.69817 3.41981C2.58871 3.52217 2.57435 3.69072 2.6649 3.81012C2.75546 3.92953 2.92163 3.96116 3.04973 3.88337C3.07462 3.8647 3.63462 3.44781 3.95817 3.8367C4.22884 4.16337 4.46528 4.40914 4.78573 4.40914C4.9252 4.4048 5.06167 4.36749 5.18395 4.30025C5.27676 4.25357 5.33761 4.16092 5.34359 4.0572C5.34957 3.95349 5.29976 3.85446 5.21292 3.79743C5.12609 3.74039 5.01542 3.73402 4.92262 3.7807C4.77639 3.85225 4.74217 3.87092 4.40617 3.46959C3.86484 2.81937 3.05284 3.15537 2.69817 3.41981Z" fill="white"/>
<path d="M4.78045 2.1095C4.68007 1.99499 4.51155 1.96998 4.38223 2.05039C4.31887 2.09435 4.27567 2.16178 4.26224 2.23771C4.2488 2.31365 4.26624 2.39181 4.31067 2.45483C4.47349 2.66514 4.72961 2.78156 4.99512 2.76595C5.13397 2.76381 5.27197 2.74395 5.40578 2.70683C5.64174 2.66096 5.84924 2.52188 5.98134 2.32106C6.04449 2.21082 6.0634 2.08071 6.03423 1.95706C6.13558 1.92964 6.24038 1.91706 6.34534 1.91972C6.37625 1.91864 6.40676 1.91233 6.43556 1.90106C6.57929 1.91472 6.72363 1.92095 6.86801 1.91972C7.32074 1.94087 7.77143 1.84667 8.17778 1.64595C8.31524 1.56003 8.35703 1.37896 8.27112 1.2415C8.18521 1.10404 8.00413 1.06226 7.86667 1.14817C7.50578 1.36906 6.74667 1.34728 6.48223 1.31928C6.43865 1.31752 6.3952 1.32494 6.35467 1.34106H6.33601C5.88801 1.34106 5.60801 1.44995 5.48045 1.67083C5.41533 1.78856 5.39967 1.92733 5.4369 2.05661C5.37616 2.09985 5.30741 2.13052 5.23467 2.14683C4.97334 2.20906 4.8209 2.15306 4.78045 2.1095Z" fill="white"/>
</svg>
