<svg width="15" height="11" viewBox="0 0 15 11" fill="none" xmlns="http://www.w3.org/2000/svg">
<path d="M0.0771754 6.76758C0.0867099 7.08222 0.349503 7.32955 0.66414 7.32002C0.978777 7.31048 1.22611 7.04769 1.21658 6.73305L0.0771754 6.76758ZM1.21658 6.73305C1.20008 6.18872 1.33041 5.36047 1.75505 4.67731C2.16042 4.02518 2.84275 3.4831 4.02833 3.44423L3.99098 2.30492C2.39514 2.35724 1.37709 3.12607 0.786917 4.07553C0.216024 4.99397 0.0556727 6.05799 0.0771754 6.76758L1.21658 6.73305ZM4.02833 3.44423C6.79354 3.35357 9.83163 3.40649 11.0018 3.44424L11.0385 2.30491C9.85284 2.26666 6.7886 2.21319 3.99098 2.30492L4.02833 3.44423Z" fill="#111827"/>
<path d="M9.4862 1.00013L11.2192 2.73314C11.3082 2.82217 11.3082 2.96652 11.2192 3.05555L9.6071 4.66765" stroke="#111827" stroke-width="1.13992" stroke-linecap="round"/>
<path d="M14.2282 4.28906C14.2187 3.97442 13.9559 3.72709 13.6413 3.73662C13.3266 3.74616 13.0793 4.00895 13.0888 4.32359L14.2282 4.28906ZM13.0888 4.32359C13.1053 4.86792 12.975 5.69617 12.5504 6.37933C12.145 7.03146 11.4627 7.57354 10.2771 7.61241L10.3144 8.75173C11.9103 8.6994 12.9283 7.93057 13.5185 6.98111C14.0894 6.06267 14.2497 4.99865 14.2282 4.28906L13.0888 4.32359ZM10.2771 7.61241C7.51188 7.70308 4.47379 7.65015 3.30366 7.6124L3.2669 8.75174C4.45258 8.78998 7.51682 8.84345 10.3144 8.75173L10.2771 7.61241Z" fill="#111827"/>
<path d="M4.81947 10.0565L3.08646 8.32351C2.99743 8.23447 2.99743 8.09012 3.08646 8.00109L4.69856 6.38899" stroke="#111827" stroke-width="1.13992" stroke-linecap="round"/>
</svg>
