<svg width="14" height="17" viewBox="0 0 14 17" fill="none" xmlns="http://www.w3.org/2000/svg">
<path d="M3.91406 13.6204L6.47817 14.1213L4.40637 11.0117L3.91406 13.6204Z" fill="#B08747"/>
<path d="M7.63002 4.38888C7.68747 4.3265 7.72033 4.24478 7.72233 4.15932C7.7229 4.07024 7.68986 3.98434 7.63002 3.91932C7.49938 3.79773 7.29912 3.79773 7.16848 3.91932C7.10614 3.98325 7.0706 4.06928 7.06934 4.15932C7.0707 4.24629 7.10644 4.32904 7.16848 4.38888C7.22634 4.45338 7.30829 4.49001 7.39412 4.48976C7.48262 4.48847 7.56719 4.45231 7.63002 4.38888Z" fill="white"/>
<path d="M10.7308 5.13189C10.9133 5.11605 11.0511 4.95671 11.0433 4.77053C11.0355 4.58435 10.8849 4.4375 10.7017 4.4375C10.5186 4.4375 10.368 4.58435 10.3602 4.77053C10.3524 4.95671 10.4902 5.11605 10.6727 5.13189C10.6919 5.13549 10.7116 5.13549 10.7308 5.13189Z" fill="white"/>
<path d="M8.51202 4.70077C8.65529 4.66639 8.76085 4.54256 8.77404 4.39339C8.78723 4.24422 8.70508 4.10322 8.57014 4.04338C8.39317 4.01489 8.22461 4.13023 8.18381 4.30772C8.15994 4.48638 8.27422 4.65398 8.44706 4.69381C8.46815 4.69997 8.49013 4.70232 8.51202 4.70077Z" fill="white"/>
<path d="M9.55511 4.91411H9.62006C9.77334 4.90929 9.9047 4.80123 9.94143 4.64976C9.95838 4.56339 9.94036 4.47371 9.89145 4.40103C9.84254 4.32836 9.76688 4.27883 9.6816 4.26367C9.53357 4.28062 9.41337 4.39313 9.38445 4.5418C9.35554 4.69048 9.42457 4.84108 9.55511 4.91411Z" fill="white"/>
<path d="M12.0676 5.25098C12.1291 5.18792 12.1646 5.10329 12.1668 5.01446C12.1679 4.97107 12.1585 4.92806 12.1394 4.88924C12.1244 4.8479 12.0998 4.81089 12.0676 4.78141C11.938 4.66401 11.7425 4.66401 11.6129 4.78141C11.5797 4.80994 11.5548 4.84725 11.5411 4.88924C11.522 4.92806 11.5126 4.97107 11.5138 5.01446C11.5159 5.10329 11.5514 5.18792 11.6129 5.25098C11.7425 5.36839 11.938 5.36839 12.0676 5.25098Z" fill="white"/>
<path d="M6.53958 9.547L8.40967 9.12613L8.14984 10.42L7.21651 10.827L7.46608 11.4392L8.3789 11.06L9.15839 11.7557L9.59258 11.2618L8.79941 10.5487L9.06266 9.24439L10.6934 10.3505L11.0558 9.79743L9.19941 8.5383L9.43189 7.37656C9.45 7.29069 9.43339 7.20101 9.3858 7.12773C9.33822 7.05445 9.26365 7.00373 9.1789 6.987C9.00402 6.95798 8.83633 7.0697 8.79257 7.24439L8.5601 8.41656L6.40625 8.90004L6.53958 9.547Z" fill="white"/>
<path d="M13.1823 1.64064L11.4558 1.30324L11.3498 1.54324C11.1559 2.01739 10.6618 2.28832 10.1659 2.19246C9.66997 2.0966 9.30801 1.6602 9.29851 1.14672V0.885854L7.35322 0.51368C7.09945 0.470499 6.83916 0.530456 6.62843 0.680636C6.41359 0.828536 6.26586 1.05775 6.21817 1.31716L6.19424 1.4389L4.58398 10.0963L4.96005 10.6389L5.10706 10.8615L6.85749 1.42846C6.87519 1.34274 6.92402 1.26697 6.99424 1.21629C7.04927 1.18013 7.11335 1.16081 7.17886 1.16064C7.19923 1.1572 7.22002 1.1572 7.24039 1.16064L8.68313 1.4389C8.84637 2.25261 9.55233 2.83535 10.3686 2.8302C10.9423 2.82713 11.4774 2.5354 11.7977 2.05107L13.0455 2.29107C13.2185 2.3325 13.3314 2.50182 13.3054 2.68064L11.1857 14.0198C11.168 14.1055 11.1192 14.1813 11.0489 14.2319C10.9774 14.283 10.8884 14.3019 10.8028 14.2841L6.85407 13.5189L7.0045 13.7485L7.34638 14.2806L10.8165 14.9415H10.878C11.3476 14.9401 11.7503 14.6003 11.8387 14.1311L13.9618 2.79194C14.0535 2.25623 13.707 1.74435 13.1823 1.64064Z" fill="white"/>
<path d="M4.41987 15.5736C4.33558 15.5917 4.24767 15.5768 4.17372 15.5318C4.10164 15.4832 4.05033 15.4087 4.03013 15.3231L1.49338 4.07445C1.46008 3.89724 1.56548 3.72356 1.73611 3.67445L3.23013 3.32662C3.55296 3.76454 4.0596 4.02227 4.59765 4.02227C4.7625 4.02057 4.92616 3.9936 5.08312 3.94227L5.22671 3.11445C5.04374 3.2591 4.8191 3.33855 4.58739 3.34053C4.20146 3.33921 3.84613 3.12655 3.65748 2.78401L3.53782 2.56836L1.5891 3.02749C1.06575 3.15494 0.739925 3.68626 0.857478 4.22053L3.39765 15.4727C3.45452 15.7311 3.61095 15.9554 3.83184 16.0953C3.98819 16.193 4.16803 16.2447 4.3515 16.2449C4.42511 16.2454 4.49853 16.2372 4.5703 16.2205L8.79936 15.2327L7.17201 14.9405L4.41987 15.5736Z" fill="white"/>
</svg>
