<svg width="13" height="14" viewBox="0 0 13 14" fill="none" xmlns="http://www.w3.org/2000/svg">
<path d="M6.50469 1.575L8.0826 0H4.92969L6.50469 1.575Z" fill="#B08747"/>
<path d="M5.91667 7.80672H9.52458V7.24964H6.18208V2.79297H5.625V7.52672C5.63127 7.68323 5.76003 7.80684 5.91667 7.80672Z" fill="white"/>
<path d="M8.09266 0.875L7.63183 1.33795C10.5848 1.92513 12.6124 4.66745 12.3187 7.67711C12.0251 10.6868 9.50606 12.9814 6.49579 12.9814C3.48551 12.9814 0.966507 10.6868 0.672858 7.67711C0.379209 4.66745 2.40676 1.92513 5.35975 1.33795L4.89891 0.875C1.7703 1.68651 -0.269593 4.70847 0.137555 7.92864C0.544703 11.1488 3.27186 13.5625 6.50308 13.5625C9.7343 13.5625 12.4615 11.1488 12.8686 7.92864C13.2758 4.70847 11.2359 1.68651 8.10725 0.875H8.09266Z" fill="white"/>
</svg>
