<svg width="24" height="24" viewBox="0 0 24 24" fill="none" xmlns="http://www.w3.org/2000/svg">
<path d="M0 12C0 5.37258 5.37258 0 12 0C18.6274 0 24 5.37258 24 12C24 18.6274 18.6274 24 12 24C5.37258 24 0 18.6274 0 12Z" fill="#2E4755"/>
<mask id="mask0_1329_24264" style="mask-type:luminance" maskUnits="userSpaceOnUse" x="1" y="1" width="22" height="22">
<path d="M12 23C5.92487 23 1 18.0751 1 12C1 5.92487 5.92487 1 12 1C18.0751 1 23 5.92487 23 12C23 18.0751 18.0751 23 12 23Z" fill="white"/>
</mask>
<g mask="url(#mask0_1329_24264)">
<mask id="mask1_1329_24264" style="mask-type:luminance" maskUnits="userSpaceOnUse" x="3" y="4" width="26" height="21">
<path d="M11.2405 24.1356L3.84115 4.86486H6.59819C7.6117 4.86486 8.58623 5.23379 9.33396 5.89925L11.0491 7.43015L28.8423 24.1321H11.2476L11.2405 24.1356Z" fill="white"/>
</mask>
<g mask="url(#mask1_1329_24264)">
<path d="M3.10156 4.68209L11.5676 11.4298L12.3649 7.8094L8.33923 3.19257L3.10156 4.68209Z" fill="#9E742B"/>
<path d="M11.5625 11.0343L12.2323 7.99662L16.3324 11.9135L11.5625 11.0343Z" fill="#6C3921"/>
<path d="M11.5625 11.0346L15.17 14.9136L18.3594 12.2897L11.5625 11.0346Z" fill="white"/>
<path d="M15.0547 14.9854L17.1774 13.1959L19.3178 15.2061L17.6026 16.9301L15.0547 14.9854Z" fill="#CDC9B6"/>
<path d="M17.6016 16.9306L19.1608 15.0963L21.932 17.5719L17.6016 16.9306Z" fill="#F6ECD5"/>
<path d="M17.6016 16.9282L19.1608 20.9692L21.932 17.5695L17.6016 16.9282Z" fill="#CDC9B6"/>
<path d="M3.24479 4.41891L6.77436 13.2423L11.5655 11.0356L3.24479 4.41891Z" fill="#CD9B2B"/>
<path d="M6.66666 13.2413L11.5677 11.0346L9.94463 17.572L8.25072 17.0444L6.66666 13.2413Z" fill="#6C3921"/>
<path d="M8.24479 17.0422L9.9387 17.5698L9.30083 19.9627L8.24479 17.0422Z" fill="#9E742B"/>
<path d="M11.5657 11.0346L15.1733 14.9136L12.6679 18.6409L9.94271 17.572L11.5657 11.0346Z" fill="#CDC9B6"/>
<path d="M9.9398 17.5693L9.22396 20.1966L9.9398 21.3138L12.6649 18.6381L9.9398 17.5693Z" fill="#CD9B2B"/>
<path d="M15.1695 14.9138L17.597 16.9309L12.6641 18.6411L15.1695 14.9138Z" fill="#6C3921"/>
<path d="M9.94271 21.3141L10.1837 21.9624L14.0712 21.8693L12.6679 18.6385L9.94271 21.3141Z" fill="#CDC9B6"/>
<path d="M12.6641 18.6384L17.597 16.9282L14.0674 21.8692L12.6641 18.6384Z" fill="#9C762B"/>
<path d="M17.6025 16.9282L19.1617 20.9692L14.0729 21.8692L17.6025 16.9282Z" fill="#F6ECD5"/>
<path d="M14.0729 21.8695L20.6182 25.6416L19.1617 20.9696L14.0729 21.8695Z" fill="white"/>
<path d="M10.1814 21.9647L14.0689 21.8716L9.96875 24.4714L10.1814 21.9647Z" fill="#F6ECD5"/>
<path d="M14.0681 21.8716L9.57812 24.7196H19.0116L14.0681 21.8716Z" fill="#CDC9B6"/>
</g>
</g>
</svg>
