<svg width="25" height="24" viewBox="0 0 25 24" fill="none" xmlns="http://www.w3.org/2000/svg">
<path d="M12.8672 23.6757C6.23977 23.6757 0.867188 18.4483 0.867188 12C0.867188 5.55172 6.23977 0.324341 12.8672 0.324341C19.4946 0.324341 24.8672 5.55172 24.8672 12C24.8672 18.4483 19.4946 23.6757 12.8672 23.6757Z" fill="#2E4755"/>
<mask id="mask0_4189_36691" style="mask-type:alpha" maskUnits="userSpaceOnUse" x="2" y="0" width="22" height="23">
<path d="M12.868 22.5C6.90329 22.5 2.06797 17.6647 2.06797 11.7C2.06797 5.73535 6.90329 0.900024 12.868 0.900024C18.8326 0.900024 23.668 5.73535 23.668 11.7C23.668 17.6647 18.8326 22.5 12.868 22.5Z" fill="white"/>
</mask>
<g mask="url(#mask0_4189_36691)">
<mask id="mask1_4189_36691" style="mask-type:luminance" maskUnits="userSpaceOnUse" x="1" y="0" width="24" height="24">
<path d="M12.8729 23.0349C6.60998 23.0349 1.53289 18.0951 1.53289 12.0014C1.53289 5.90777 6.60998 0.967896 12.8729 0.967896C19.1358 0.967896 24.2129 5.90777 24.2129 12.0014C24.2129 18.0951 19.1358 23.0349 12.8729 23.0349Z" fill="white"/>
</mask>
<g mask="url(#mask1_4189_36691)">
<mask id="mask2_4189_36691" style="mask-type:luminance" maskUnits="userSpaceOnUse" x="4" y="4" width="26" height="21">
<path d="M12.1064 24.1356L4.70703 4.86487H7.46407C8.47758 4.86487 9.45211 5.2338 10.1998 5.89926L11.915 7.43016L29.7082 24.1321H12.1135L12.1064 24.1356Z" fill="white"/>
</mask>
<g mask="url(#mask2_4189_36691)">
<path d="M3.9668 4.68215L12.4328 11.4298L13.2302 7.80946L9.20446 3.19263L3.9668 4.68215Z" fill="#9E742B"/>
<path d="M12.4277 11.0344L13.0975 7.9967L17.1976 11.9136L12.4277 11.0344Z" fill="#6C3921"/>
<path d="M12.4277 11.0347L16.0353 14.9136L19.2246 12.2897L12.4277 11.0347Z" fill="white"/>
<path d="M15.9199 14.9855L18.0426 13.196L20.1831 15.2062L18.4679 16.9302L15.9199 14.9855Z" fill="#CDC9B6"/>
<path d="M18.4668 16.9306L20.026 15.0963L22.7973 17.572L18.4668 16.9306Z" fill="#F6ECD5"/>
<path d="M18.4668 16.9282L20.026 20.9692L22.7973 17.5695L18.4668 16.9282Z" fill="#CDC9B6"/>
<path d="M22.7502 17.62L30.6882 25.0297L25.0713 21.1886L20.0215 20.968L22.7502 17.62Z" fill="#6C3921"/>
<path d="M20.0215 20.9696L21.7827 26.6139L30.6882 25.0313L28.4379 21.3558L20.0215 20.9696Z" fill="#F6ECD5"/>
<path d="M4.10938 4.41895L7.63895 13.2423L12.4301 11.0356L4.10938 4.41895Z" fill="#CD9B2B"/>
<path d="M7.53125 13.2414L12.4323 11.0347L10.8092 17.572L9.11531 17.0445L7.53125 13.2414Z" fill="#6C3921"/>
<path d="M9.10938 17.0422L10.8033 17.5698L10.1654 19.9627L9.10938 17.0422Z" fill="#9E742B"/>
<path d="M12.4316 11.0347L16.0392 14.9136L13.5337 18.6409L10.8086 17.572L12.4316 11.0347Z" fill="#CDC9B6"/>
<path d="M10.8057 17.5693L10.0898 20.1967L10.8057 21.3138L13.5308 18.6382L10.8057 17.5693Z" fill="#CD9B2B"/>
<path d="M16.0347 14.9139L18.4622 16.931L13.5293 18.6412L16.0347 14.9139Z" fill="#6C3921"/>
<path d="M10.8086 21.3142L11.0496 21.9624L14.9371 21.8693L13.5337 18.6385L10.8086 21.3142Z" fill="#CDC9B6"/>
<path d="M13.5293 18.6384L18.4622 16.9282L14.9326 21.8692L13.5293 18.6384Z" fill="#9C762B"/>
<path d="M18.4671 16.9282L20.0263 20.9692L14.9375 21.8692L18.4671 16.9282Z" fill="#F6ECD5"/>
<path d="M14.9375 21.8695L21.4828 25.6416L20.0263 20.9696L14.9375 21.8695Z" fill="white"/>
<path d="M11.0466 21.9648L14.9341 21.8717L10.834 24.4715L11.0466 21.9648Z" fill="#F6ECD5"/>
<path d="M14.9333 21.8717L10.4434 24.7197H19.8768L14.9333 21.8717Z" fill="#CDC9B6"/>
</g>
</g>
</g>
</svg>
