<svg width="24" height="24" viewBox="0 0 24 24" fill="none" xmlns="http://www.w3.org/2000/svg">
<path d="M8 0V4L12 0H8Z" fill="#B08747"/>
<rect x="11.9219" y="3.97656" width="7.94609" height="0.991304" fill="#111827"/>
<rect x="11.9219" y="5.95703" width="7.94609" height="0.991304" fill="#111827"/>
<rect x="13.9043" y="7.94531" width="3.97565" height="0.991304" fill="#111827"/>
<path fill-rule="evenodd" clip-rule="evenodd" d="M12.0001 12.9224C12.0001 15.0719 10.2888 18.2598 7.94102 18.2598C5.59841 18.2598 3.89754 15.0719 3.91319 12.9224C3.91319 10.6892 5.72352 8.87891 7.95667 8.87891C10.1898 8.87891 12.0001 10.6892 12.0001 12.9224ZM10.9932 12.9224C10.9903 11.2388 9.62465 9.87543 7.94102 9.87543C6.25942 9.8783 4.89693 11.2408 4.89406 12.9224C4.89406 14.6076 6.28711 17.2685 7.94102 17.2685C9.59493 17.2685 10.9932 14.6024 10.9932 12.9224Z" fill="#111827"/>
<path d="M14.4523 19.2676C13.2961 18.7519 12.0795 18.3837 10.8314 18.172L10.4349 18.1094L10.2783 18.4589C9.83486 19.4398 8.95312 20.5876 7.92529 20.5876C7.08529 20.5876 6.16182 19.7529 5.57747 18.4589L5.41573 18.1094L5.04008 18.172C3.79397 18.3827 2.57926 18.7491 1.42442 19.2624C0.548893 19.6723 -0.0075115 20.5548 7.66449e-05 21.5215V23.8329H0.991381V21.5215C0.986412 20.9407 1.32369 20.4112 1.85225 20.1702C2.81491 19.7412 3.82308 19.4227 4.85747 19.2207C5.48877 20.4207 6.57921 21.5789 7.94095 21.5789C9.30268 21.5789 10.3931 20.4207 11.0244 19.2207C12.0637 19.4234 13.0769 19.7419 14.0453 20.1702C14.5708 20.4167 14.9049 20.9463 14.9009 21.5268V23.8329H15.8923V21.5268C15.897 20.5564 15.3339 19.673 14.4523 19.2676Z" fill="#111827"/>
<path d="M23.3427 0H13.3253L12.6209 0.704348L12.334 0.991304H22.847V10.4348C22.847 11.2589 22.179 11.927 21.3549 11.927H15.407C15.277 11.9287 15.1524 11.979 15.0575 12.0678L12.7096 14.4157L13.4088 15.1304L15.6105 12.9287H21.3496C22.011 12.9301 22.6456 12.6676 23.1128 12.1995C23.58 11.7313 23.8411 11.0962 23.8383 10.4348V0.521739C23.8387 0.243478 23.6206 0.0139128 23.3427 0Z" fill="#111827"/>
<path d="M8.94281 4.38281L8.65064 4.67499L7.94629 5.37933V7.94629H8.94281V4.38281Z" fill="#111827"/>
</svg>
