<svg width="16" height="16" viewBox="0 0 16 16" fill="none" xmlns="http://www.w3.org/2000/svg">
<path d="M9.33479 2.33244V2.66667H9.99967V2.33244C9.99967 1.04427 8.9554 0 7.66723 0H5.66545C4.37728 0 3.33301 1.04427 3.33301 2.33244V16H3.9979V2.33244C3.99985 1.41229 4.7453 0.666845 5.66545 0.664889H7.66723C8.58738 0.666845 9.33283 1.41229 9.33479 2.33244Z" fill="#111827"/>
<rect x="9.33301" y="5.33594" width="0.666667" height="1.33333" fill="#111827"/>
<rect x="9.33301" y="7.66406" width="0.666667" height="1.33333" fill="#111827"/>
<rect x="9.33301" y="10" width="0.666667" height="1.33333" fill="#111827"/>
<rect x="9.33301" y="12.5" width="0.666667" height="1" fill="#111827"/>
<path d="M7.14746 8.9375L7.32835 7.67753L7.98649 7.77202L7.8056 9.03199L7.14746 8.9375Z" fill="#111827"/>
<path d="M7.49121 6.53906L7.6721 5.27909L8.33024 5.37358L8.14935 6.63355L7.49121 6.53906Z" fill="#111827"/>
<path d="M6.52051 13.3125L6.63982 12.4783L7.29801 12.5725L7.1787 13.4066L6.52051 13.3125Z" fill="#111827"/>
<path d="M6.80469 11.3359L6.98558 10.076L7.64372 10.1705L7.46283 11.4304L6.80469 11.3359Z" fill="#111827"/>
<path d="M10.9688 5.39844L11.627 5.30535L11.8052 6.56551L11.147 6.6586L10.9688 5.39844Z" fill="#111827"/>
<path d="M12.0166 12.5625L12.6748 12.4684L12.7941 13.3025L12.1359 13.3967L12.0166 12.5625Z" fill="#111827"/>
<path d="M11.6709 10.1719L12.329 10.0774L12.5099 11.3374L11.8518 11.4318L11.6709 10.1719Z" fill="#111827"/>
<path d="M11.3262 7.77344L11.9843 7.67895L12.1652 8.93892L11.5071 9.03341L11.3262 7.77344Z" fill="#111827"/>
<rect x="8" y="3.33594" width="3.33333" height="0.666667" fill="#111827"/>
<path d="M9.66602 14L7.66602 16H11.666L9.66602 14Z" fill="#B08747"/>
</svg>
