<svg width="25" height="24" viewBox="0 0 25 24" fill="none" xmlns="http://www.w3.org/2000/svg">
<path d="M2.24295 9.85694L5.57255 7.61351L0 6.52734L2.24295 9.85694Z" fill="#B08747"/>
<path d="M21.833 5.59771C22.4638 5.35751 23.9381 4.70658 24.0025 3.83851C24.0167 3.43474 23.7806 3.06397 23.4087 2.90607C21.8124 2.01014 18.7422 3.20199 18.4059 3.33842L14.4153 4.85358L8.6083 1.70125C8.47967 1.63163 8.3271 1.62146 8.19036 1.67338L7.76858 1.83384C7.62505 1.88859 7.5145 2.00603 7.46851 2.1526C7.42253 2.29917 7.44618 2.45872 7.53271 2.58565L11.102 7.79646L11.9302 7.2296L9.11272 3.11744L14.14 5.84559C14.2686 5.91546 14.4213 5.92564 14.558 5.87345L18.7724 4.27135C19.5891 3.94564 21.92 3.22025 22.9197 3.78087C22.9374 3.79047 22.9519 3.80008 22.9643 3.80777C22.5256 4.18266 22.0205 4.47204 21.4751 4.66094L9.94572 9.15741C8.15385 9.4487 6.3389 9.57382 4.52401 9.53116L3.07227 10.5068C3.08524 10.5068 3.0958 10.5164 3.10878 10.5169C3.66539 10.5329 4.18838 10.5406 4.67774 10.54C6.53869 10.5899 8.39982 10.4476 10.2315 10.1153L21.833 5.59771Z" fill="#111827"/>
<path d="M7.66711 8.48993L9.75681 7.43547L9.30572 6.53906L7.93517 7.23179L6.13321 8.44526L5.86035 8.62925C6.08896 8.68255 6.32268 8.7109 6.5574 8.7138C6.93807 8.70947 7.31453 8.63352 7.66711 8.48993Z" fill="#111827"/>
<path d="M18.5717 12.5469C18.3992 12.5469 18.2292 12.5574 18.0605 12.5728C18.5237 12.8697 18.9477 13.2236 19.3225 13.6263C21.4954 13.9856 23.0891 15.8645 23.0891 18.0668C23.0891 20.2692 21.4954 22.1481 19.3225 22.5073C18.9483 22.9099 18.525 23.2638 18.0625 23.5608C18.2311 23.5762 18.4011 23.5868 18.5736 23.5868C21.6222 23.5862 24.0931 21.1144 24.0926 18.0659C24.0921 15.0173 21.6203 12.5463 18.5717 12.5469Z" fill="#111827"/>
<path fill-rule="evenodd" clip-rule="evenodd" d="M16.6695 12.9669C18.7323 13.821 20.0775 15.8336 20.0777 18.0663C20.0779 21.1141 17.6078 23.5854 14.5599 23.5864C12.3272 23.5872 10.314 22.2429 9.45901 20.1805C8.60403 18.118 9.07571 15.7436 10.6541 14.1646C12.2325 12.5855 14.6067 12.1128 16.6695 12.9669ZM10.0423 18.0663C10.0423 20.5602 12.064 22.5819 14.558 22.5819L14.5599 22.5829C17.0534 22.5818 19.0742 20.5598 19.0736 18.0663C19.0736 15.5723 17.0519 13.5506 14.558 13.5506C12.064 13.5506 10.0423 15.5723 10.0423 18.0663Z" fill="#111827"/>
<path d="M15.059 17.5658V14.5547H14.055V17.5658H11.042V18.5693H14.0531V21.5804H15.0566V18.5693H18.0672V17.5658H15.059Z" fill="#111827"/>
</svg>
