<svg width="24" height="24" viewBox="0 0 24 24" fill="none" xmlns="http://www.w3.org/2000/svg">
<path fill-rule="evenodd" clip-rule="evenodd" d="M0 12C0 18.6274 5.37258 24 12 24C18.625 23.9942 23.9942 18.625 24 12C24 5.37258 18.6274 0 12 0C5.37258 0 0 5.37258 0 12ZM1.00969 12C1.00969 5.93022 5.93022 1.00969 12 1.00969C18.0662 1.01843 22.9816 5.93384 22.9903 12C22.9903 18.0698 18.0698 22.9903 12 22.9903C5.93022 22.9903 1.00969 18.0698 1.00969 12Z" fill="#111827"/>
<path d="M17.2636 13L16.9245 12.6346C15.6447 11.2829 13.8647 10.5171 12.0026 10.5171C10.1406 10.5171 8.36062 11.2829 7.08079 12.6346L6.73642 13L6 12.3064L6.34437 11.941C7.80832 10.3789 9.85581 9.49477 11.9974 9.50004C14.1407 9.49329 16.1904 10.3775 17.6556 11.941L18 12.3064L17.2636 13Z" fill="#111827"/>
<path d="M19.7798 10.5L19.4329 10.1176C17.4841 8.11133 14.8019 6.97868 12 6.97868C9.19805 6.97868 6.51594 8.11133 4.5671 10.1176L4.22016 10.479L3.5 9.80327L3.84694 9.44705C5.97628 7.23388 8.92332 5.98793 12 6.00009C15.0767 5.98793 18.0237 7.23388 20.1531 9.44705L20.5 9.80327L19.7798 10.5Z" fill="#111827"/>
<path d="M14.7288 15.5L14.3891 15.116C13.7841 14.4288 12.914 14.0352 12 14.0352C11.086 14.0352 10.2159 14.4288 9.61094 15.116L9.27119 15.5L8.5 14.8185L8.83975 14.429C9.64026 13.5204 10.7911 13 12 13C13.2089 13 14.3597 13.5204 15.1602 14.429L15.5 14.8185L14.7288 15.5Z" fill="#111827"/>
<path d="M11.9971 16L9.17969 18.8174H14.8145L11.9971 16Z" fill="#B08747"/>
</svg>
