<svg width="24" height="23" viewBox="0 0 24 23" fill="none" xmlns="http://www.w3.org/2000/svg">
<path d="M22.4583 3.05664H18.375L22.4583 7.14755V3.05664Z" fill="#B08747"/>
<path d="M23.5853 0.990234H15.557C15.4238 0.990234 15.2961 1.04277 15.2019 1.13662C15.1077 1.23046 15.0549 1.35778 15.055 1.4905V8.99114H10.5393C10.4061 8.99101 10.2784 9.04368 10.1842 9.13752C10.09 9.23137 10.0372 9.35869 10.0373 9.4914V14.9919H5.52163C5.38845 14.9918 5.26068 15.0445 5.16651 15.1383C5.07234 15.2322 5.01949 15.3595 5.01962 15.4922V18.9926H0.503932C0.370419 18.992 0.242162 19.0444 0.147573 19.1383C0.0529835 19.2322 0 19.3598 0 19.4929V22.4935C0 22.6262 0.0527218 22.7536 0.146895 22.8474C0.241067 22.9413 0.36883 22.9938 0.50201 22.9938H23.5853C23.7185 22.9938 23.8463 22.9413 23.9404 22.8474C24.0346 22.7536 24.0873 22.6262 24.0873 22.4935V1.4905C24.0873 1.35778 24.0346 1.23046 23.9404 1.13662C23.8463 1.04277 23.7185 0.990234 23.5853 0.990234ZM1.00402 19.9927H5.01866V21.9928H1.00402V19.9927ZM6.02172 19.4929V15.9925H10.0364V21.9933H6.02172V19.4929ZM11.0413 15.4922V9.99023H15.056V21.9918H11.0413V15.4922ZM23.0848 21.9933H16.0581V1.99029H23.0833L23.0848 21.9933Z" fill="#111827"/>
<path d="M0.547367 10.9907C5.11508 10.5302 8.73388 6.94273 9.21989 2.39335L10.3397 3.86638C10.4479 4.00877 10.6241 4.08281 10.802 4.06061C10.9798 4.03841 11.1322 3.92335 11.2019 3.75877C11.2715 3.59419 11.2477 3.4051 11.1395 3.26271L9.1901 0.697713C9.17705 0.684799 9.16325 0.672651 9.14879 0.66133C9.13586 0.648467 9.12222 0.636321 9.10795 0.624947C9.07065 0.593237 9.02869 0.567405 8.98353 0.548351C8.97056 0.542606 8.95711 0.539255 8.94366 0.534468C8.91584 0.521894 8.88688 0.511957 8.85719 0.504787C8.84115 0.504732 8.82511 0.505531 8.80915 0.507181C8.79666 0.507181 8.78609 0.5 8.77312 0.5C8.75512 0.50311 8.73731 0.507266 8.7198 0.512447C8.68525 0.51654 8.65126 0.524407 8.61844 0.535904C8.58845 0.547088 8.55964 0.561199 8.53244 0.578032C8.51601 0.585142 8.49998 0.593133 8.48441 0.601968L5.93352 2.52979C5.79064 2.63762 5.71635 2.81323 5.73862 2.99045C5.76089 3.16768 5.87636 3.3196 6.04151 3.38899C6.20666 3.45838 6.39642 3.4347 6.5393 3.32686L8.25286 2.03431C7.92603 6.21643 4.64455 9.56711 0.457054 9.99452C0.19139 10.0204 -0.0074815 10.249 0.00441298 10.5147C0.0163075 10.7804 0.234808 10.9904 0.50173 10.9927C0.517103 10.9927 0.531995 10.9922 0.547367 10.9907Z" fill="#111827"/>
</svg>
