<svg width="16" height="16" viewBox="0 0 16 16" fill="none" xmlns="http://www.w3.org/2000/svg">
<path d="M6.2041 12.4548H9.0166L6.2041 9.66406V12.4548Z" fill="#B08747"/>
<path fill-rule="evenodd" clip-rule="evenodd" d="M9.47336 1.47567C9.47336 2.26823 8.85086 3.46264 7.91336 3.46264C6.97586 3.46264 6.34961 2.26823 6.34961 1.47567C6.39043 0.649247 7.07761 0 7.91148 0C8.74536 0 9.43254 0.649247 9.47336 1.47567ZM8.77211 1.47567C8.77006 1.00592 8.38678 0.625612 7.91336 0.623574C7.43994 0.625612 7.05666 1.00592 7.05461 1.47567C7.05461 2.01892 7.50086 2.76311 7.91336 2.76311C8.32586 2.76311 8.77211 2.00776 8.77211 1.47567Z" fill="#111827"/>
<path d="M6.70231 9.17014L7.24981 9.71711L6.66106 5.9627C6.67458 5.35534 7.14944 4.85682 7.75981 4.80921C8.50981 4.78688 8.88481 5.42688 8.94481 6.052L9.11731 7.28735C9.13348 7.41816 9.22391 7.52814 9.34981 7.57014L11.3598 8.25479C11.4817 8.30925 11.6241 8.29066 11.7276 8.20678C11.8311 8.1229 11.8779 7.98816 11.8484 7.85881C11.819 7.72947 11.7183 7.62778 11.5886 7.59618L9.78106 6.98223L9.63481 5.9627C9.49606 4.81293 8.72731 4.07618 7.71481 4.10223C6.72106 4.17996 5.95493 5.00336 5.95606 5.99246L6.41731 8.87991L6.70231 9.17014Z" fill="#111827"/>
<path d="M13.2612 9.58643C12.9273 9.19425 12.4361 8.96822 11.9187 8.96875H9.36492C9.18526 8.98721 9.04873 9.13744 9.04873 9.31666C9.04873 9.49588 9.18526 9.6461 9.36492 9.66456H11.9187C12.2285 9.6659 12.5221 9.80197 12.722 10.0368C12.9219 10.2717 13.008 10.5817 12.9574 10.885L12.2074 15.2385H11.8324C11.7323 15.2392 11.6367 15.1972 11.5699 15.1232C11.5025 15.051 11.4709 14.9528 11.4837 14.8553L11.8249 11.4394C11.8323 11.3426 11.7983 11.2471 11.7313 11.1764C11.6642 11.1056 11.5703 11.066 11.4724 11.0674H8.60742L9.31242 11.7632H11.0862L10.7824 14.7957C10.7521 15.089 10.8489 15.3812 11.0487 15.5994C11.2495 15.8187 11.5338 15.9443 11.8324 15.9455H12.5074C12.6781 15.9444 12.8234 15.8221 12.8524 15.6553L13.6512 11.0078C13.74 10.5001 13.5972 9.9794 13.2612 9.58643Z" fill="#111827"/>
<path d="M9.60875 12.9365C9.20208 14.3808 7.82205 15.3375 6.31544 15.2195C4.80882 15.1015 3.59708 13.942 3.42372 12.4523C3.25036 10.9626 4.16388 9.55952 5.60375 9.10397L5.9375 8.99978L5.7275 8.33746L5.39 8.44164C5.18464 8.5067 4.98518 8.58885 4.79375 8.68722L4.085 6.41746C4.0404 6.27159 3.90487 6.17187 3.75125 6.17188H2V6.86769H3.5L4.18625 9.08164C2.86166 10.1054 2.35537 11.8611 2.93367 13.4252C3.51196 14.9893 5.04236 16.0035 6.71996 15.9344C8.39755 15.8653 9.83802 14.7288 10.2837 13.1226L10.3775 12.7877L9.7025 12.6016L9.60875 12.9365Z" fill="#111827"/>
</svg>
