<svg width="17" height="24" viewBox="0 0 17 24" fill="none" xmlns="http://www.w3.org/2000/svg">
<path fill-rule="evenodd" clip-rule="evenodd" d="M13.7758 14.778L12.651 13.6347L12.6514 14.9244C12.6514 14.9782 12.6444 15.0297 12.6373 15.0813L12.6373 15.0813C12.6324 15.1172 12.6275 15.1532 12.625 15.1899L14.6385 17.2366C15.2761 17.8833 15.3978 18.8885 14.9337 19.6731L13.1865 22.6304C12.8201 23.2493 12.1527 23.6181 11.4425 23.5943C10.7322 23.5704 10.0903 23.1575 9.76497 22.5153C9.43963 21.8731 9.48182 21.1022 9.87524 20.5006L10.5628 19.4561L9.90688 18.7092C9.14405 18.9813 8.31284 18.9813 7.55001 18.7092L6.8941 19.4561L7.57882 20.5001C7.91781 21.0167 8.00037 21.6645 7.8021 22.2519C7.60383 22.8393 7.14741 23.2991 6.56779 23.4953C6.3656 23.564 6.15386 23.5991 5.94068 23.5995C5.25367 23.5988 4.61779 23.2304 4.26713 22.6299L2.5199 19.6726C2.05576 18.888 2.17752 17.8828 2.81504 17.2361L4.8286 15.1894C4.82607 15.1527 4.82115 15.1166 4.81623 15.0805C4.80919 15.0289 4.80215 14.9774 4.80215 14.924V13.6347L3.67732 14.778C3.20465 15.269 2.50894 15.4639 1.85556 15.2885C1.20218 15.1131 0.691889 14.5944 0.519332 13.9303C0.346775 13.2661 0.538564 12.559 1.02154 12.0785L4.35496 8.69067C4.26307 9.03078 4.35626 9.39489 4.59957 9.64635L4.70063 9.74907L1.71524 12.7836C1.47821 13.0117 1.38174 13.3527 1.46334 13.6739C1.54494 13.9952 1.79173 14.246 2.10777 14.329C2.42381 14.4119 2.75923 14.3138 2.98363 14.0729L4.94618 12.079C5.08649 11.9366 5.2973 11.8941 5.48046 11.9712C5.66363 12.0483 5.78317 12.2298 5.78343 12.4313V13.9265H11.6706V12.4308C11.6709 12.2293 11.7904 12.0478 11.9736 11.9707C12.1568 11.8936 12.3676 11.9362 12.5079 12.0785L14.47 14.0729C14.8229 14.4125 15.3776 14.4048 15.7212 14.0555C16.0649 13.7062 16.0724 13.1423 15.7383 12.7836L12.753 9.74907L12.854 9.64635C13.0973 9.39489 13.1905 9.03078 13.0986 8.69067L16.4316 12.0785C16.9145 12.559 17.1063 13.2661 16.9338 13.9303C16.7612 14.5944 16.2509 15.1131 15.5976 15.2885C14.9442 15.4639 14.2485 15.269 13.7758 14.778ZM6.75857 21.0512L5.8656 19.6884C5.73911 19.5 5.75447 19.2484 5.9029 19.0774L6.61124 18.2729C5.90981 17.8141 5.37017 17.1403 5.07038 16.3491L3.5059 17.9393C3.18722 18.2627 3.12644 18.7653 3.35857 19.1576L5.10579 22.1148C5.28543 22.4311 5.62107 22.6219 5.98021 22.612C6.33935 22.6021 6.66427 22.3929 6.82671 22.0672C6.98915 21.7415 6.96299 21.3515 6.75857 21.0512ZM11.6697 14.924C11.6697 16.5763 10.3519 17.9158 8.72632 17.9158C7.10075 17.9158 5.78296 16.5763 5.78296 14.924H11.6697ZM14.0917 19.1595C14.3238 18.7672 14.2631 18.2647 13.9444 17.9412L12.378 16.3515C12.0785 17.1423 11.5394 17.8159 10.8386 18.2748L11.5469 19.0793C11.6956 19.2488 11.7129 19.499 11.5889 19.688L10.6917 21.0531C10.4873 21.3534 10.4611 21.7434 10.6236 22.0691C10.786 22.3949 11.1109 22.604 11.4701 22.6139C11.8292 22.6239 12.1649 22.433 12.3445 22.1168L14.0917 19.1595Z" fill="#111827"/>
<path fill-rule="evenodd" clip-rule="evenodd" d="M8.71964 7.90982C7.8901 7.90974 7.08261 7.63827 6.41661 7.13558H6.41708C4.9243 6.01479 4.41827 3.97822 5.20844 2.27133C5.99862 0.564435 7.86494 -0.337415 9.66608 0.117294C11.4672 0.572004 12.7015 2.25664 12.6142 4.14097C12.5269 6.02531 11.1423 7.58456 9.30708 7.86518C9.11262 7.89476 8.91627 7.90968 8.71964 7.90982ZM9.96654 1.27723C8.71018 0.676958 7.21161 1.0624 6.38733 2.19782V2.1983C5.92929 2.8293 5.7365 3.61935 5.85136 4.39478C6.05823 5.79013 7.206 6.84261 8.59272 6.90856C9.97943 6.9745 11.2189 6.03554 11.553 4.66593C11.8871 3.29631 11.2229 1.87751 9.96654 1.27723Z" fill="#111827"/>
</svg>
