<svg width="24" height="27" viewBox="0 0 24 27" fill="none" xmlns="http://www.w3.org/2000/svg">
<path d="M3 15.1367V19.5403L7 15.1367H3Z" fill="#B08747"/>
<path fill-rule="evenodd" clip-rule="evenodd" d="M11.792 11.9224H15.232C15.8883 11.9161 16.5197 12.1984 16.9862 12.7065C17.4528 13.2146 17.7159 13.9066 17.7173 14.6291V22.2032C17.7144 23.6968 16.6153 24.9067 15.2587 24.91H2.45867C1.102 24.9067 0.00293334 23.6968 0 22.2032V14.6291C0.00293334 13.1356 1.102 11.9256 2.45867 11.9224H5.89867V11.3822C5.90159 10.4886 6.55892 9.76494 7.37067 9.76172H10.32C11.1317 9.76494 11.7891 10.4886 11.792 11.3822V11.9224ZM7.02371 11.0003C6.93169 11.1016 6.88 11.239 6.88 11.3822V11.9224H10.8107V11.3822C10.8107 11.239 10.759 11.1016 10.667 11.0003C10.5749 10.899 10.4501 10.8421 10.32 10.8421H7.37067C7.24053 10.8421 7.11573 10.899 7.02371 11.0003ZM4.92267 23.8238V18.8565L3.936 19.9369V23.8238H2.45867C1.64484 23.8238 0.984271 23.0992 0.981333 22.2032V14.6291C0.981333 13.7309 1.64276 13.0027 2.45867 13.0027H3.936V14.1124H4.92267V13.0027H12.8V23.8238H4.92267ZM15.232 23.8238C16.0458 23.8238 16.7064 23.0992 16.7093 22.2032V14.6291C16.7093 13.7309 16.0479 13.0027 15.232 13.0027H13.7653V23.8238H15.232Z" fill="#111827"/>
<path fill-rule="evenodd" clip-rule="evenodd" d="M21.1304 3.26811H17.6904V2.72794C17.6904 1.83201 17.0323 1.1048 16.2184 1.10156H13.2691C12.4532 1.10156 11.7918 1.82972 11.7918 2.72794V3.26811H8.35177C6.99597 3.27135 5.89843 4.48225 5.89844 5.97484V8.67569H6.87977V5.97484C6.87977 5.0789 7.53795 4.35169 8.35177 4.34845H9.83444V8.67569H10.8158V4.34845H18.6664V15.1695V16.2498H21.1251C21.7809 16.2514 22.4101 15.9645 22.8728 15.4529C23.3355 14.9413 23.5934 14.2474 23.5891 13.5255V5.97484C23.5862 4.4813 22.4871 3.27134 21.1304 3.26811ZM12.7998 3.26811V2.72794C12.7998 2.42962 13.0194 2.18777 13.2904 2.18777H16.2398C16.5108 2.18777 16.7304 2.42962 16.7304 2.72794V3.26811H12.7998ZM21.1304 15.146C21.9443 15.146 22.6048 14.4214 22.6078 13.5255V5.97484C22.6078 5.07661 21.9463 4.34845 21.1304 4.34845H19.6638V15.146H21.1304Z" fill="#111827"/>
</svg>
