<svg width="24" height="24" viewBox="0 0 24 24" fill="none" xmlns="http://www.w3.org/2000/svg">
<path d="M12 23.6756C5.37258 23.6756 0 18.4482 0 11.9999C0 5.5516 5.37258 0.324219 12 0.324219C18.6274 0.324219 24 5.5516 24 11.9999C24 18.4482 18.6274 23.6756 12 23.6756Z" fill="#2E4755"/>
<mask id="mask0_5785_14264" style="mask-type:alpha" maskUnits="userSpaceOnUse" x="1" y="0" width="22" height="23">
<path d="M11.9998 22.5004C6.03513 22.5004 1.1998 17.6651 1.1998 11.7004C1.1998 5.73571 6.03513 0.900391 11.9998 0.900391C17.9645 0.900391 22.7998 5.73571 22.7998 11.7004C22.7998 17.6651 17.9645 22.5004 11.9998 22.5004Z" fill="white"/>
</mask>
<g mask="url(#mask0_5785_14264)">
<mask id="mask1_5785_14264" style="mask-type:luminance" maskUnits="userSpaceOnUse" x="0" y="0" width="24" height="24">
<path d="M12.0067 23.0358C5.74377 23.0358 0.666677 18.0959 0.666677 12.0023C0.666677 5.90862 5.74377 0.96875 12.0067 0.96875C18.2696 0.96875 23.3467 5.90862 23.3467 12.0023C23.3467 18.0959 18.2696 23.0358 12.0067 23.0358Z" fill="white"/>
</mask>
<g mask="url(#mask1_5785_14264)">
<mask id="mask2_5785_14264" style="mask-type:luminance" maskUnits="userSpaceOnUse" x="3" y="4" width="26" height="21">
<path d="M11.2411 24.136L3.8418 4.86523H6.59883C7.61235 4.86523 8.58688 5.23417 9.33461 5.89963L11.0498 7.43053L28.843 24.1325H11.2482L11.2411 24.136Z" fill="white"/>
</mask>
<g mask="url(#mask2_5785_14264)">
<path d="M3.10254 4.68288L11.5686 11.4306L12.3659 7.8102L8.3402 3.19336L3.10254 4.68288Z" fill="#9E742B"/>
<path d="M11.5635 11.0357L12.2332 7.99805L16.3334 11.9149L11.5635 11.0357Z" fill="#6C3921"/>
<path d="M11.5635 11.0352L15.171 14.9141L18.3604 12.2902L11.5635 11.0352Z" fill="white"/>
<path d="M15.0557 14.9868L17.1784 13.1973L19.3188 15.2074L17.6036 16.9314L15.0557 14.9868Z" fill="#CDC9B6"/>
<path d="M17.6025 16.932L19.1618 15.0977L21.933 17.5733L17.6025 16.932Z" fill="#F6ECD5"/>
<path d="M17.6025 16.9297L19.1618 20.9707L21.933 17.571L17.6025 16.9297Z" fill="#CDC9B6"/>
<path d="M21.8859 17.6211L29.8239 25.0308L24.2071 21.1897L19.1572 20.9691L21.8859 17.6211Z" fill="#6C3921"/>
<path d="M19.1572 20.9707L20.9185 26.615L29.8239 25.0324L27.5736 21.3569L19.1572 20.9707Z" fill="#F6ECD5"/>
<path d="M3.24609 4.41992L6.77567 13.2433L11.5668 11.0366L3.24609 4.41992Z" fill="#CD9B2B"/>
<path d="M6.66797 13.2419L11.569 11.0352L9.94594 17.5725L8.25203 17.045L6.66797 13.2419Z" fill="#6C3921"/>
<path d="M8.24609 17.043L9.94001 17.5705L9.30213 19.9634L8.24609 17.043Z" fill="#9E742B"/>
<path d="M11.5664 11.0352L15.1739 14.9141L12.6685 18.6414L9.94336 17.5725L11.5664 11.0352Z" fill="#CDC9B6"/>
<path d="M9.94045 17.5703L9.22461 20.1977L9.94045 21.3148L12.6656 18.6392L9.94045 17.5703Z" fill="#CD9B2B"/>
<path d="M15.1705 14.9141L17.5979 16.9311L12.665 18.6413L15.1705 14.9141Z" fill="#6C3921"/>
<path d="M9.94336 21.3143L10.1843 21.9625L14.0718 21.8694L12.6685 18.6387L9.94336 21.3143Z" fill="#CDC9B6"/>
<path d="M12.665 18.6399L17.5979 16.9297L14.0684 21.8706L12.665 18.6399Z" fill="#9C762B"/>
<path d="M17.6038 16.9297L19.163 20.9707L14.0742 21.8706L17.6038 16.9297Z" fill="#F6ECD5"/>
<path d="M14.0742 21.8706L20.6195 25.6427L19.163 20.9707L14.0742 21.8706Z" fill="white"/>
<path d="M10.1824 21.9661L14.0698 21.873L9.96973 24.4728L10.1824 21.9661Z" fill="#F6ECD5"/>
<path d="M14.069 21.873L9.5791 24.7211H19.0126L14.069 21.873Z" fill="#CDC9B6"/>
</g>
</g>
</g>
</svg>
