<svg width="64" height="64" viewBox="0 0 64 64" fill="none" xmlns="http://www.w3.org/2000/svg">
<g clip-path="url(#clip0_6357_37057)">
<path d="M32 3.49927C46.0417 3.5648 57.9618 13.8075 60.14 27.6793C61.3526 35.8746 58.9468 44.1927 53.5467 50.4755C48.1467 56.7583 40.2846 60.3867 32 60.4193C21.263 60.4217 11.4386 54.3811 6.5946 44.7989C1.75064 35.2166 2.71178 23.7239 9.08004 15.0793C14.4412 7.79096 22.9523 3.49084 32 3.49927ZM32 0.898838C30.4195 0.890547 28.8409 1.01095 27.28 1.25928C11.2305 3.72435 -0.211753 18.1356 1.0256 34.3261C2.26296 50.5166 15.7623 63.0218 32 63.0193C33.5802 63.0172 35.1579 62.8969 36.72 62.6593C52.7696 60.1942 64.2118 45.7829 62.9745 29.5924C61.7371 13.4019 48.2378 0.896798 32 0.898838Z" fill="#B08747"/>
<path d="M20.3398 33.0381L28.4398 39.3981C29.3545 40.121 30.6795 39.9787 31.4198 39.0781L45.4198 22.0781" stroke="#B08747" stroke-width="2.6"/>
</g>
<defs>
<clipPath id="clip0_6357_37057">
<rect width="64" height="64" fill="white"/>
</clipPath>
</defs>
</svg>
