<svg width="32" height="31" viewBox="0 0 32 31" fill="none" xmlns="http://www.w3.org/2000/svg">
<path fill-rule="evenodd" clip-rule="evenodd" d="M12.6348 26.8483H19.8408L16.2374 23.2456L12.6348 26.8483Z" fill="#B08747"/>
<path fill-rule="evenodd" clip-rule="evenodd" d="M28.542 29.4153H3.93467C2.76133 29.4153 1.80733 28.4606 1.80733 27.2879V16.3779H13.5813V17.6633C13.5813 18.3706 14.1573 18.9466 14.864 18.9466H17.5487C18.256 18.9466 18.8307 18.3706 18.8307 17.6633V16.3779H30.6687V27.2879C30.6687 28.4606 29.7153 29.4153 28.542 29.4153ZM14.87 15.6319L14.864 15.0046L17.5233 14.9799V17.6393L14.8887 17.6633L14.8713 15.8086C14.8753 15.7793 14.8887 15.7539 14.8887 15.7246C14.8887 15.6919 14.8747 15.6639 14.87 15.6319ZM3.93467 8.49727H28.542C29.7153 8.49727 30.6687 9.45127 30.6687 10.6239V15.0706H18.8307V14.9799C18.8307 14.2719 18.256 13.6973 17.5487 13.6973H14.864C14.1573 13.6973 13.5813 14.2719 13.5813 14.9799V15.0706H1.80733V10.6239C1.80733 9.45127 2.76133 8.49727 3.93467 8.49727ZM28.542 7.18994H3.93467C2.04133 7.18994 0.5 8.73127 0.5 10.6239V27.2879C0.5 29.1813 2.04133 30.7226 3.93467 30.7226H28.542C30.4353 30.7226 31.976 29.1813 31.976 27.2879V10.6239C31.976 8.73127 30.4353 7.18994 28.542 7.18994Z" fill="#111827"/>
<path fill-rule="evenodd" clip-rule="evenodd" d="M11.0183 4.52275C11.0183 3.11741 12.2449 1.97341 13.7543 1.97341H18.7043C20.2129 1.97341 21.4403 3.11741 21.4403 4.52275V5.88208H22.7476V4.52275C22.7476 2.39608 20.9329 0.666748 18.7043 0.666748H13.7543C11.5249 0.666748 9.71094 2.39608 9.71094 4.52275V5.88208H11.0183V4.52275Z" fill="#111827"/>
</svg>
