<svg width="36" height="52" viewBox="0 0 36 52" fill="none" xmlns="http://www.w3.org/2000/svg">
<path fill-rule="evenodd" clip-rule="evenodd" d="M25.2541 5.34152H23.7521V3.9505C23.7211 1.80757 21.8745 0.0667799 19.5615 0H16.5574C14.1742 0.00766357 12.2466 1.79903 12.2466 4.00614V5.39716H10.7446C5.18762 5.40479 0.682548 9.57071 0.666016 14.717V41.3272C0.666016 43.5397 2.60275 45.3333 4.99184 45.3333H31.0069C33.3959 45.3333 35.3327 43.5397 35.3327 41.3272V14.6613C35.3161 9.51507 30.8111 5.34915 25.2541 5.34152ZM15.1755 3.9505C15.1755 3.18226 15.848 2.55948 16.6776 2.55948H19.5615C20.391 2.55948 21.0635 3.18226 21.0635 3.9505V5.34152H15.1755V3.9505ZM30.9468 42.6626C31.7763 42.6626 32.4488 42.0398 32.4488 41.2716L32.3887 14.6613C32.3805 10.9847 29.1641 8.00602 25.194 7.99836H10.8047C6.83458 8.00602 3.61824 10.9847 3.60998 14.6613V41.2716C3.60998 42.0398 4.28246 42.6626 5.112 42.6626H30.9468Z" fill="#111827"/>
<path d="M8.65907 49.3116C7.89201 49.3116 7.27019 48.7244 7.27019 48H4.67299C4.5855 49.4003 5.32685 50.7311 6.59837 51.4562C7.86988 52.1813 9.46215 52.1813 10.7337 51.4562C12.0052 50.7311 12.7465 49.4003 12.659 48H9.9924C9.99299 48.7044 9.40435 49.2835 8.65907 49.3116Z" fill="#111827"/>
<path d="M27.339 49.3116C26.5719 49.3116 25.9501 48.7244 25.9501 48H23.339C23.2515 49.4003 23.9929 50.7311 25.2644 51.4562C26.5359 52.1813 28.1282 52.1813 29.3997 51.4562C30.6712 50.7311 31.4125 49.4003 31.3251 48H28.6723C28.6729 48.7044 28.0843 49.2835 27.339 49.3116Z" fill="#111827"/>
<path d="M27.3327 13.3333H16.666L27.3327 23.9999V13.3333Z" fill="#B08747"/>
</svg>
