<svg width="24" height="28" viewBox="0 0 24 28" fill="none" xmlns="http://www.w3.org/2000/svg">
<path d="M18.3344 11.6016L16.4194 13.7098H20.2494L18.3344 11.6016Z" fill="#B08747"/>
<rect x="5.96191" y="5.23438" width="4.00125" height="1.0939" fill="#111827"/>
<path fill-rule="evenodd" clip-rule="evenodd" d="M2.48437 26.0207H13.4131C13.7539 26.0192 14.0837 25.8878 14.3464 25.6489C14.7041 25.8054 15.083 25.8953 15.4675 25.9149C15.0058 26.6648 14.2365 27.1141 13.4136 27.1146H2.48437C1.11313 27.1129 0.00183477 25.8897 0 24.3801V7.96999C0.000160079 7.89026 0.0164067 7.81156 0.047566 7.73959L0.0523226 7.72545L0.772947 6.14193C1.02391 5.58518 1.54023 5.23358 2.10479 5.23497H2.99333V6.32835H2.10479C1.91648 6.32756 1.74416 6.44475 1.66053 6.6305L1.30093 7.42225H3.95226V5.24649C3.97616 2.83317 5.76003 0.890625 7.95232 0.890625C10.1446 0.890625 11.9285 2.83317 11.9524 5.24649V7.42278H14.598L14.2384 6.63102C14.1548 6.44528 13.9824 6.32808 13.7941 6.32888H12.9436V5.23497H13.7941C14.3587 5.23358 14.875 5.58518 15.126 6.14193L15.849 7.72545L15.8518 7.73959C15.883 7.81156 15.8992 7.89026 15.8994 7.96999V9.73207C15.8958 9.73573 15.8919 9.73894 15.8879 9.74217C15.8833 9.74587 15.8787 9.74959 15.8747 9.75406L14.9057 10.8207V8.51668H11.9524V10.5065C11.958 10.706 11.8645 10.893 11.7085 10.9945C11.5525 11.0961 11.3586 11.0961 11.2026 10.9945C11.0466 10.893 10.9531 10.706 10.9587 10.5065V8.51668H4.94971V10.5065C4.94984 10.6517 4.89759 10.7909 4.80446 10.8936C4.71134 10.9964 4.58495 11.0541 4.45312 11.0543C4.32101 11.0548 4.19414 10.9974 4.10058 10.8947C4.00703 10.792 3.95451 10.6525 3.95463 10.5071V8.5172H0.993653V24.3796C0.99444 25.2856 1.6614 26.0198 2.48437 26.0207ZM6.43904 2.34529C5.50326 2.94585 4.93324 4.05412 4.94686 5.24649V7.42278H10.9597V5.24649C10.9733 4.05412 10.4033 2.94585 9.46749 2.34529C8.53171 1.74474 7.37483 1.74474 6.43904 2.34529Z" fill="#111827"/>
<path fill-rule="evenodd" clip-rule="evenodd" d="M23.1408 13.8834L20.0914 10.5263C19.1204 9.46 17.5487 9.46 16.5777 10.5263L10.8636 16.8163C9.89378 17.8845 9.89378 19.6158 10.8636 20.684L13.9135 24.0416C14.8845 25.1079 16.4562 25.1079 17.4272 24.0416L23.1408 17.7516C24.1094 16.6826 24.1094 14.9523 23.1408 13.8834ZM11.5661 19.9106C10.9849 19.2695 10.9849 18.2314 11.5661 17.5903L17.2802 11.2997C17.8629 10.6603 18.8057 10.6603 19.3884 11.2997L21.8941 14.0583L14.0719 22.6692L11.5661 19.9106ZM16.7247 23.2682L22.4378 16.9781L22.4383 16.9776C22.9483 16.405 23.002 15.5082 22.5648 14.8668L14.8068 23.407C15.3894 23.8888 16.2043 23.8298 16.7247 23.2682Z" fill="#111827"/>
</svg>
