<svg width="64" height="62" viewBox="0 0 64 62" fill="none" xmlns="http://www.w3.org/2000/svg">
<path d="M5.95209 22.6497L14.7968 16.6921L0 13.7968L5.95209 22.6497Z" fill="#BD8B13"/>
<path d="M63.7622 6.65603C63.7996 5.58062 63.1684 4.59423 62.1769 4.17834C58.0049 1.79808 49.786 4.95784 48.8959 5.31975L38.299 9.35644L22.8625 1.00467C22.5283 0.810349 22.1236 0.779588 21.7639 0.921148L20.6374 1.35266C20.279 1.49732 19.9968 1.78477 19.8587 2.14607C19.7231 2.51316 19.7588 2.92171 19.956 3.25964L27.8133 17.0401L30.1357 15.7316L23.7108 4.47065L37.6176 11.9872C37.9567 12.182 38.3657 12.2127 38.7301 12.0708L49.8694 7.81136C52.025 6.93442 58.2135 5.02744 60.8836 6.50292H60.9948C59.8297 7.52855 58.4798 8.32224 57.0175 8.84141L26.4226 20.7984C21.6617 21.5793 16.8384 21.9148 12.0153 21.8006L8.16309 24.3896H8.26043C9.73455 24.3896 11.1252 24.3896 12.4325 24.3896C17.3718 24.5198 22.3114 24.142 27.1736 23.2621L58.0049 11.333C59.6737 10.6927 63.5954 8.92493 63.7622 6.65603Z" fill="#4E4C4A"/>
<path d="M20.3598 19.0167L25.0325 16.6782L23.8365 14.2979L21.0552 15.6899L16.2712 18.9192L15.5342 19.4064C16.1458 19.5459 16.7704 19.6205 17.3977 19.6291C18.4148 19.6138 19.4199 19.406 20.3598 19.0167Z" fill="#4E4C4A"/>
<path d="M46.7004 40.4946H44.0303V52.5073C44.0352 52.8608 44.1745 53.1992 44.4197 53.4538C44.674 53.6992 45.0121 53.8386 45.3653 53.8435H49.3705V51.1571H46.6726L46.7004 40.4946Z" fill="#4E4C4A"/>
<path d="M45.3654 38.3649C46.1334 38.3649 46.756 37.7417 46.756 36.973V36.4858C46.583 35.8919 46.0391 35.4836 45.421 35.4836C44.8029 35.4836 44.259 35.8919 44.0859 36.4858V37.0287C44.1119 37.7345 44.6619 38.3089 45.3654 38.3649Z" fill="#4E4C4A"/>
<path d="M46.6706 27.1457C39.6596 27.1345 33.3327 31.353 30.642 37.8331C27.9512 44.3131 29.4268 51.7776 34.3803 56.7437C39.3338 61.7097 46.789 63.1987 53.2674 60.5159C59.7458 57.833 63.9706 51.507 63.9706 44.4896C63.9629 34.9249 56.2264 27.1687 46.6706 27.1457ZM46.6706 59.1609C38.5753 59.1609 32.0129 52.5923 32.0129 44.4896C32.0129 36.3869 38.5753 29.8183 46.6706 29.8183C54.7658 29.8183 61.3283 36.3869 61.3283 44.4896C61.3206 52.5891 54.7626 59.1532 46.6706 59.1609Z" fill="#4E4C4A"/>
</svg>
