<svg width="24" height="24" viewBox="0 0 24 24" fill="none" xmlns="http://www.w3.org/2000/svg">
<path d="M4.00195 7V11L8.00195 7H4.00195Z" fill="#B08747"/>
<path fill-rule="evenodd" clip-rule="evenodd" d="M21.5009 4.01679H15V3.49566C14.9971 2.67082 14.3284 2.00286 13.5026 2H10.4974C9.67159 2.00286 9.00286 2.67082 9 3.49566V4.01679H2.49913C1.11806 4.01967 -2.99713e-06 5.13876 0 6.51824V17.5038C0.00287002 18.8812 1.12009 19.9971 2.49913 20H21.5009C22.8799 19.9971 23.9971 18.8812 24 17.5038V6.51824C24 5.13876 22.8819 4.01967 21.5009 4.01679ZM10.0226 3.49566C10.0357 3.22784 10.2501 3.01367 10.5183 3.00058H13.5235C13.7916 3.01367 14.006 3.22784 14.0191 3.49566V4.01679H10.0017L10.0226 3.49566ZM21.5009 18.9994C22.3267 18.9966 22.9954 18.3286 22.9983 17.5038L23.0035 6.51824C23.0035 5.69136 22.3339 5.02024 21.5061 5.01737H19.007V7.01332H18.0052V5.01737H6.00522V6.01795H5.00348V5.01737H2.49913C1.6713 5.02024 1.00173 5.69136 1.00174 6.51824V17.5038C1.0046 18.3286 1.67333 18.9966 2.49913 18.9994H5.00348V11.4169L6.00522 10.4215V18.9994H18.0052V16.0029H19.007V18.9994H21.5009Z" fill="#111827"/>
<path d="M0.305625 21.5398C0.244246 21.56 0.190204 21.5981 0.15035 21.6494C0.0587644 21.7343 0.00471303 21.8527 0.000249991 21.9781C-0.00209876 22.045 0.0121336 22.1113 0.0416568 22.1712C0.061714 22.2331 0.0995434 22.2876 0.15035 22.3278C0.190204 22.379 0.244246 22.4171 0.305625 22.4374C0.369088 22.478 0.442656 22.4997 0.517835 22.5C0.649443 22.5012 0.775418 22.4462 0.864617 22.3486C0.913802 22.3069 0.95128 22.253 0.97331 22.1921C0.999356 22.124 1.00651 22.05 0.994014 21.9781C0.995216 21.8454 0.94069 21.7184 0.843914 21.6285C0.695748 21.4983 0.487206 21.4639 0.305625 21.5398Z" fill="#111827"/>
<path d="M2.93865 21.6365C2.74069 21.4545 2.43968 21.4545 2.24173 21.6365C2.19052 21.6794 2.15259 21.7364 2.13251 21.8008C2.10387 21.8601 2.08961 21.9255 2.0909 21.9916C2.08976 22.0593 2.104 22.1264 2.13251 22.1876C2.15266 22.2505 2.19068 22.3058 2.24173 22.3466C2.33215 22.4445 2.45824 22.5 2.59019 22.5C2.72213 22.5 2.84823 22.4445 2.93865 22.3466C2.9897 22.3058 3.02771 22.2505 3.04787 22.1876C3.08112 22.1205 3.09552 22.0453 3.08947 21.9704C3.09077 21.9043 3.0765 21.8389 3.04787 21.7796C3.02443 21.723 2.98676 21.6736 2.93865 21.6365Z" fill="#111827"/>
<path d="M5.02957 21.6393C4.98652 21.5893 4.93107 21.5511 4.8686 21.5284C4.6826 21.4658 4.47674 21.5084 4.33202 21.6393C4.23311 21.7308 4.17848 21.8595 4.18178 21.9931C4.18016 22.0601 4.19296 22.1267 4.21934 22.1884C4.24218 22.25 4.28103 22.3047 4.33202 22.3469C4.42564 22.444 4.55549 22.4993 4.69153 22.5C4.75301 22.4991 4.81351 22.4846 4.8686 22.4578C4.9927 22.4057 5.09232 22.3095 5.14762 22.1884C5.17532 22.1197 5.18634 22.0456 5.17982 21.9719C5.18039 21.9067 5.16761 21.8421 5.14225 21.7818C5.11652 21.7263 5.07793 21.6775 5.02957 21.6393Z" fill="#111827"/>
<path d="M6.95987 21.539C6.83849 21.487 6.70123 21.487 6.57985 21.539C6.51812 21.5592 6.46376 21.5974 6.42368 21.6486C6.32634 21.7386 6.2715 21.8657 6.27271 21.9985C6.27035 22.0653 6.28466 22.1317 6.31436 22.1917C6.36873 22.3091 6.46278 22.4034 6.57985 22.458C6.63959 22.4878 6.70579 22.5021 6.77246 22.4997C6.83746 22.5021 6.90199 22.4878 6.95987 22.458C7.02308 22.4378 7.07913 22.3997 7.12124 22.3483C7.17071 22.3066 7.20841 22.2526 7.23056 22.1917C7.26026 22.1317 7.27457 22.0653 7.27221 21.9985C7.27342 21.8657 7.21858 21.7386 7.12124 21.6486C7.07913 21.5972 7.02308 21.5591 6.95987 21.539Z" fill="#111827"/>
<path d="M8.67588 21.5374C8.61266 21.5575 8.55661 21.5957 8.5145 21.6472C8.41716 21.7373 8.36232 21.8646 8.36353 21.9976C8.36117 22.0646 8.37548 22.1311 8.40518 22.1912C8.42535 22.2532 8.4634 22.3078 8.5145 22.3481C8.55661 22.3996 8.61266 22.4377 8.67588 22.4579C8.73375 22.4877 8.79828 22.5021 8.86328 22.4997C8.99565 22.501 9.12235 22.4459 9.21206 22.3481C9.26316 22.3078 9.30121 22.2532 9.32138 22.1912C9.35108 22.1311 9.36539 22.0646 9.36303 21.9976C9.36424 21.8646 9.3094 21.7373 9.21206 21.6472C9.07232 21.5042 8.86018 21.4608 8.67588 21.5374Z" fill="#111827"/>
<path d="M11.3074 21.6385C11.1074 21.4538 10.8007 21.4538 10.6007 21.6385C10.5507 21.6827 10.5129 21.7391 10.4908 21.8024C10.466 21.8626 10.4536 21.9273 10.4541 21.9926C10.454 22.0595 10.4664 22.1259 10.4908 22.1881C10.513 22.2497 10.5509 22.3044 10.6007 22.3466C10.6926 22.4445 10.8204 22.5 10.954 22.5C11.0877 22.5 11.2155 22.4445 11.3074 22.3466C11.3571 22.3044 11.395 22.2497 11.4173 22.1881C11.4431 22.1263 11.4555 22.0596 11.454 21.9926C11.4545 21.9273 11.4421 21.8626 11.4173 21.8024C11.3952 21.7391 11.3573 21.6827 11.3074 21.6385Z" fill="#111827"/>
<path d="M13.3774 21.6433C13.3361 21.5916 13.2812 21.5533 13.2193 21.533C13.043 21.4631 12.8434 21.5063 12.7093 21.6433C12.6134 21.7261 12.5545 21.8457 12.5461 21.9743C12.5438 22.0416 12.5579 22.1085 12.5869 22.1687C12.6067 22.231 12.644 22.2859 12.694 22.3264C12.7827 22.438 12.9161 22.5019 13.0561 22.4997C13.1198 22.5021 13.183 22.4877 13.2397 22.4577C13.3016 22.4374 13.3565 22.3991 13.3978 22.3474C13.4462 22.3054 13.4832 22.251 13.5049 22.1898C13.5339 22.1295 13.548 22.0626 13.5457 21.9954C13.5469 21.9299 13.5329 21.865 13.5049 21.8062C13.4776 21.7409 13.4335 21.6846 13.3774 21.6433Z" fill="#111827"/>
<path d="M15.3293 21.539C15.208 21.487 15.0707 21.487 14.9493 21.539C14.8861 21.5591 14.83 21.5972 14.7879 21.6486C14.6906 21.7386 14.6358 21.8657 14.637 21.9985C14.6346 22.0653 14.6489 22.1317 14.6786 22.1917C14.6988 22.2536 14.7368 22.3081 14.7879 22.3483C14.83 22.3997 14.8861 22.4378 14.9493 22.458C15.0072 22.4878 15.0717 22.5021 15.1367 22.4997C15.2034 22.5021 15.2696 22.4878 15.3293 22.458C15.4464 22.4034 15.5404 22.3091 15.5948 22.1917C15.6245 22.1317 15.6388 22.0653 15.6365 21.9985C15.6377 21.8657 15.5828 21.7386 15.4855 21.6486C15.4454 21.5974 15.3911 21.5592 15.3293 21.539Z" fill="#111827"/>
<path d="M17.0365 21.5337C16.9737 21.5554 16.9177 21.5935 16.8742 21.6439C16.7777 21.735 16.7245 21.8629 16.7277 21.9958C16.7261 22.0624 16.7386 22.1286 16.7643 22.19C16.8183 22.3105 16.9154 22.4061 17.0365 22.4579C17.0949 22.4872 17.1596 22.5016 17.2249 22.4999C17.3593 22.5 17.4879 22.445 17.5808 22.3476C17.6306 22.3056 17.6685 22.2513 17.6908 22.19C17.7165 22.1286 17.729 22.0624 17.7274 21.9958C17.7306 21.8629 17.6773 21.735 17.5808 21.6439C17.4354 21.5057 17.224 21.4629 17.0365 21.5337Z" fill="#111827"/>
<path d="M19.6671 21.6365C19.469 21.4545 19.1677 21.4545 18.9696 21.6365C18.9183 21.6794 18.8804 21.7364 18.8603 21.8008C18.8316 21.8601 18.8173 21.9255 18.8186 21.9916C18.8162 22.0594 18.8306 22.1268 18.8603 22.1876C18.8804 22.2505 18.9185 22.3058 18.9696 22.3466C19.0601 22.4445 19.1863 22.5 19.3184 22.5C19.4504 22.5 19.5766 22.4445 19.6671 22.3466C19.7166 22.3042 19.7543 22.2494 19.7765 22.1876C19.8062 22.1268 19.8205 22.0594 19.8181 21.9916C19.8194 21.9255 19.8051 21.8601 19.7765 21.8008C19.7545 21.7374 19.7168 21.6808 19.6671 21.6365Z" fill="#111827"/>
<path d="M21.7371 21.6392C21.6971 21.5874 21.6427 21.5488 21.581 21.5284C21.4005 21.4658 21.2008 21.5084 21.0604 21.6392C20.9631 21.7302 20.9082 21.8587 20.9094 21.9929C20.9071 22.0605 20.9214 22.1277 20.9511 22.1883C20.9712 22.2509 21.0093 22.306 21.0604 22.3466C21.1501 22.4454 21.2768 22.501 21.4092 22.4997C21.4758 22.5021 21.5421 22.4876 21.6018 22.4575C21.7189 22.4024 21.8129 22.307 21.8673 22.1883C21.897 22.1277 21.9113 22.0605 21.9089 21.9929C21.9102 21.9271 21.8959 21.862 21.8673 21.8029C21.8416 21.736 21.7961 21.6789 21.7371 21.6392Z" fill="#111827"/>
<path d="M23.691 21.539C23.569 21.487 23.431 21.487 23.309 21.539C23.2461 21.5606 23.1901 21.5984 23.1467 21.6486C23.0502 21.7391 22.9969 21.8664 23.0001 21.9985C22.9986 22.0647 23.011 22.1306 23.0368 22.1917C23.0907 22.3114 23.1879 22.4065 23.309 22.458C23.3674 22.4871 23.4321 22.5015 23.4974 22.4997C23.5644 22.5021 23.631 22.4878 23.691 22.458C23.8121 22.4065 23.9093 22.3114 23.9632 22.1917C23.989 22.1306 24.0014 22.0647 23.9999 21.9985C24.0031 21.8664 23.9498 21.7391 23.8533 21.6486C23.8099 21.5984 23.7539 21.5606 23.691 21.539Z" fill="#111827"/>
<path fill-rule="evenodd" clip-rule="evenodd" d="M16.498 6.92578C16.6305 6.92761 16.7573 6.97889 16.8527 7.0692L20.8701 10.9977C21.0557 11.1942 21.0557 11.4979 20.8701 11.6943L17.8336 14.619C17.7382 14.7093 17.6114 14.7605 17.4788 14.7624C17.3463 14.7605 17.2195 14.7093 17.1241 14.619L13.1275 10.6904C13.0355 10.5967 12.9833 10.4722 12.9814 10.3421V7.43798C12.9814 7.1551 13.215 6.92578 13.5032 6.92578H16.498ZM13.9988 10.1577L17.4997 13.5946L19.7954 11.3665L16.2945 7.9092H13.9988V10.1577Z" fill="#111827"/>
<path d="M16.1465 11L17.1463 10.0185L17.8546 10.7139L16.8548 11.6954L16.1465 11Z" fill="#111827"/>
<path d="M15.1465 10.0195L16.1463 9.03803L16.8546 9.73341L15.8548 10.7149L15.1465 10.0195Z" fill="#111827"/>
</svg>
