<svg width="24" height="24" viewBox="0 0 24 24" fill="none" xmlns="http://www.w3.org/2000/svg">
<g clip-path="url(#clip0_6116_14328)">
<path d="M14.0388 20.4819C13.6934 20.8273 13.2653 21 12.7547 21C12.2441 21 11.816 20.8273 11.4706 20.4819L3.54068 12.5519C3.37547 12.3867 3.24406 12.1915 3.14643 11.9662C3.04881 11.7409 3 11.5006 3 11.2453L3 4.80225C3 4.30663 3.17647 3.88235 3.52941 3.52941C3.88235 3.17647 4.30663 3 4.80225 3L11.2453 3C11.5006 3 11.7409 3.04881 11.9662 3.14643C12.1915 3.24406 12.3867 3.37547 12.5519 3.54068L20.4819 11.4931C20.8273 11.8385 21 12.2628 21 12.766C21 13.2691 20.8273 13.6934 20.4819 14.0388L14.0388 20.4819ZM7.05507 8.40676C7.43054 8.40676 7.74969 8.27534 8.01252 8.01252C8.27534 7.74969 8.40676 7.43054 8.40676 7.05507C8.40676 6.6796 8.27534 6.36045 8.01252 6.09762C7.74969 5.83479 7.43054 5.70338 7.05507 5.70338C6.6796 5.70338 6.36045 5.83479 6.09762 6.09762C5.83479 6.36045 5.70338 6.6796 5.70338 7.05507C5.70338 7.43054 5.83479 7.74969 6.09762 8.01252C6.36045 8.27534 6.6796 8.40676 7.05507 8.40676ZM13.5432 16.3367L16.0663 13.8135C16.2315 13.6483 16.363 13.4531 16.4606 13.2278C16.5582 13.0025 16.607 12.7622 16.607 12.5069C16.607 11.9962 16.4268 11.5607 16.0663 11.2003C15.7059 10.8398 15.2703 10.6596 14.7597 10.6596C14.4743 10.6596 14.1927 10.7422 13.9149 10.9074C13.637 11.0726 13.3029 11.3504 12.9124 11.7409C12.4618 11.3204 12.1089 11.035 11.8536 10.8849C11.5982 10.7347 11.3354 10.6596 11.0651 10.6596C10.5544 10.6596 10.1189 10.8398 9.75845 11.2003C9.398 11.5607 9.21777 11.9962 9.21777 12.5069C9.21777 12.7622 9.26658 13.0025 9.36421 13.2278C9.46183 13.4531 9.59324 13.6483 9.75845 13.8135L12.2816 16.3367C12.4618 16.5169 12.6721 16.607 12.9124 16.607C13.1527 16.607 13.363 16.5169 13.5432 16.3367Z" fill="#9CB9C9"/>
</g>
<defs>
<clipPath id="clip0_6116_14328">
<rect width="24" height="24" fill="white"/>
</clipPath>
</defs>
</svg>
