<svg width="24" height="27" viewBox="0 0 24 27" fill="none" xmlns="http://www.w3.org/2000/svg">
<path d="M13.7163 18.2091L16.5337 15.1016H10.8989L13.7163 18.2091Z" fill="#B08747"/>
<path fill-rule="evenodd" clip-rule="evenodd" d="M23.0794 9.60405C23.2033 9.58602 23.3161 9.51569 23.3938 9.40789C23.4862 9.26831 23.517 9.09047 23.4776 8.92325L21.5073 1.2152C21.4343 0.96749 21.2196 0.804373 20.9833 0.817102H5.00062C4.77976 0.824617 4.58692 0.98386 4.51852 1.2152L2.51676 8.92325C2.4774 9.09047 2.50817 9.26831 2.6006 9.40789C2.67834 9.51569 2.79107 9.58602 2.91502 9.60405L2.51676 11.1272C2.48434 11.292 2.51905 11.4642 2.61177 11.5985C2.70449 11.7328 2.84592 11.8156 2.99886 11.8253H23.006C23.159 11.8156 23.3004 11.7328 23.3931 11.5985C23.4858 11.4642 23.5205 11.292 23.4881 11.1272L23.0794 9.60405ZM6.46789 8.52515C6.41432 7.91196 6.17428 7.33663 5.78666 6.89239C5.37763 6.47553 4.86826 6.19713 4.3194 6.09043L4.81198 4.19226C6.03955 4.03713 7.09748 3.1696 7.58405 1.91908H18.599C19.0616 3.1163 20.0518 3.96666 21.2191 4.16918L21.7431 6.09043C21.1943 6.19713 20.6849 6.47553 20.2759 6.89239C19.8748 7.33086 19.6216 7.90682 19.558 8.52515H6.46789ZM4.0207 7.16355L3.69057 8.52515L5.467 8.53669C5.41239 8.2189 5.27386 7.92589 5.06875 7.69435C4.77734 7.40287 4.41134 7.21751 4.0207 7.16355ZM20.9833 7.68281C21.275 7.3908 21.6406 7.20363 22.0313 7.14624L22.3877 8.52515H20.5641C20.613 8.2112 20.7421 7.91904 20.9361 7.68281H20.9833ZM19.7833 1.91908C20.0627 2.38589 20.4676 2.74494 20.9414 2.94605L20.6741 1.91908H19.7833ZM6.42072 1.91908C6.11318 2.4484 5.64239 2.83767 5.09495 3.01528L5.37792 1.91908H6.42072ZM3.97354 9.62713L3.69057 10.7291H22.3458L22.0575 9.62713H3.97354Z" fill="#111827"/>
<ellipse cx="8" cy="5.21841" rx="0.5" ry="0.550445" fill="#111827"/>
<ellipse cx="18" cy="5.21841" rx="0.5" ry="0.550445" fill="#111827"/>
<path fill-rule="evenodd" clip-rule="evenodd" d="M9.5 5.21631C9.5 3.83218 11.0363 2.74219 12.9974 2.74219C14.9637 2.74219 16.5 3.82642 16.5 5.21631C16.5 6.6062 14.9584 7.69619 12.9974 7.69619C11.0363 7.69619 9.5 6.60043 9.5 5.21631ZM12.9974 3.84372C11.5502 3.84372 10.5015 4.56462 10.5015 5.21631C10.5015 5.868 11.5292 6.59466 12.9974 6.59397C14.4708 6.59397 15.4985 5.86223 15.4985 5.21631C15.4985 4.57038 14.4446 3.84372 12.9974 3.84372Z" fill="#111827"/>
<path d="M21.8035 19.2967C21.2929 18.8998 20.6264 18.8424 20.0661 19.1471L16.2 21.0691C15.9773 20.7933 15.6876 20.5936 15.3652 20.4937L9.89217 18.7673C7.42956 17.9789 3.1513 18.7673 1.09565 19.1528L0 19.3485L0.156522 20.3958L1.26261 20.1944C3.24522 19.8319 7.36696 19.0435 9.61043 19.7801L15.0835 21.5065C15.3101 21.5619 15.4929 21.746 15.5635 21.9899V22.0417C15.6198 22.3447 15.5334 22.6586 15.3339 22.8761C15.1496 23.0677 14.8829 23.1279 14.6452 23.0315L9.36522 21.3741L9.08348 22.4272L14.3791 24.1249C14.5485 24.1807 14.7241 24.2098 14.9009 24.2112C15.3216 24.214 15.7264 24.0342 16.0278 23.7105C16.4164 23.2852 16.6084 22.688 16.5496 22.0877L20.4417 20.1484C20.679 20.0072 20.9673 20.0204 21.193 20.1829C21.4249 20.3623 21.5585 20.6591 21.5478 20.9713C21.5121 21.2354 21.3478 21.4565 21.12 21.5468L18.3026 22.9624C14.8017 24.7349 14.8017 24.7349 12.7826 24.7349C10.5946 24.7027 8.43767 24.1594 6.45391 23.1408C5.58783 22.7207 4.32 23.1063 2.70783 23.5897C2.31652 23.7105 1.90435 23.8371 1.48174 23.9522L0.996522 24.0903L1.24174 25.1549L1.72696 25.0168L2.9687 24.6543C4.27826 24.2572 5.51478 23.8832 6.05217 24.1479C8.16245 25.2274 10.4566 25.8001 12.7826 25.8282C15.0157 25.8282 15.1565 25.7592 18.72 23.958C19.4765 23.5724 20.3948 23.112 21.5322 22.5481C22.0886 22.2903 22.4743 21.7195 22.5391 21.0576C22.5871 20.3697 22.3087 19.7035 21.8035 19.2967Z" fill="#111827"/>
</svg>
