<svg width="24" height="24" viewBox="0 0 24 24" fill="none" xmlns="http://www.w3.org/2000/svg">
<g clip-path="url(#clip0_7286_50577)">
<path d="M24 20.5996H0V21.58H1.29391L2.85913 23.1119C3.13623 23.383 3.51084 23.537 3.90261 23.5409H20.0765C20.4683 23.537 20.8429 23.383 21.12 23.1119L22.6852 21.58H24V20.5996ZM20.4365 22.4124C20.3451 22.5058 20.2191 22.5592 20.087 22.5605H3.91304C3.7809 22.5592 3.65486 22.5058 3.56348 22.4124L2.70783 21.58H21.2974L20.4365 22.4124Z" fill="#111827"/>
<path d="M1.49745 18.6437H22.4975C22.7757 18.644 23.0053 18.4306 23.0192 18.1586C23.0192 12.2045 18.3914 7.88965 12.0157 7.88965C5.64006 7.88965 0.996582 12.2045 0.996582 18.1586C1.0099 18.4229 1.22729 18.6334 1.49745 18.6437ZM12.0001 8.86497C17.6192 8.86497 21.7409 12.5365 21.9914 17.6684H2.00876C2.25397 12.5365 6.37571 8.86497 12.0001 8.86497Z" fill="#111827"/>
<path d="M11.9998 2.99234C12.2879 2.99234 12.5215 2.76372 12.5215 2.4817V0.510638C12.5215 0.228621 12.2879 0 11.9998 0C11.7116 0 11.478 0.228621 11.478 0.510638V2.50213C11.4892 2.77614 11.7196 2.99256 11.9998 2.99234Z" fill="#111827"/>
<path d="M17.5042 5.91302C17.6703 5.91063 17.8253 5.83099 17.9216 5.69855L19.9199 2.76238C20.092 2.62375 20.1552 2.39338 20.077 2.18904C19.9988 1.9847 19.7967 1.85153 19.5738 1.85762C19.351 1.86371 19.1567 2.00771 19.0903 2.216L17.0868 5.15217C16.9434 5.37734 17.0001 5.67248 17.2173 5.83132C17.3019 5.88711 17.4022 5.91567 17.5042 5.91302Z" fill="#111827"/>
<path d="M6.08331 5.69901C6.17963 5.83145 6.33462 5.91109 6.5007 5.91348C6.59917 5.91403 6.69552 5.88556 6.77722 5.83177C6.99797 5.67599 7.0593 5.38032 6.91809 5.15262L4.91461 2.21645C4.84234 2.1082 4.72848 2.03307 4.59884 2.00807C4.4692 1.98308 4.33474 2.01034 4.22592 2.08369C4.00517 2.23947 3.94384 2.53514 4.08505 2.76284L6.08331 5.69901Z" fill="#111827"/>
<path d="M12.0104 4.11621L9.18262 6.88387H14.8383L12.0104 4.11621Z" fill="#B08747"/>
</g>
<defs>
<clipPath id="clip0_7286_50577">
<rect width="24" height="24" fill="white"/>
</clipPath>
</defs>
</svg>
