<svg width="25" height="25" viewBox="0 0 25 25" fill="none" xmlns="http://www.w3.org/2000/svg">
<path d="M8.48112 1.82812L6.29102 4.01823H10.6698L8.48112 1.82812Z" fill="#B08747"/>
<path fill-rule="evenodd" clip-rule="evenodd" d="M4.01652 13.2385C4.99718 14.2167 6.58452 14.2167 7.56517 13.2385L13.3352 7.46756C14.3134 6.4869 14.3134 4.89956 13.3352 3.9189L10.2554 0.839109C9.27471 -0.139078 7.68737 -0.139078 6.70671 0.839109L0.935763 6.61006C-0.0436918 7.59001 -0.0436918 9.17829 0.935763 10.1582L4.01652 13.2385ZM12.6256 6.75802L6.85515 12.529C6.32965 13.0442 5.50663 13.0983 4.91821 12.6563L12.7534 4.82156C13.195 5.41 13.1407 6.23271 12.6256 6.75802ZM7.41625 1.54865L1.6453 7.3196C1.05824 7.90771 1.05824 8.86011 1.6453 9.44822L4.17601 11.9789L12.0761 4.07935L9.54535 1.54865C8.95686 0.962064 8.00475 0.962064 7.41625 1.54865Z" fill="#111827"/>
<path fill-rule="evenodd" clip-rule="evenodd" d="M23.5873 9.03125H15.5561C15.4229 9.03112 15.2951 9.08397 15.2009 9.17814C15.1068 9.27232 15.0539 9.40008 15.054 9.53326V14.0489H10.5384C10.4052 14.0488 10.2774 14.1017 10.1832 14.1958C10.0891 14.29 10.0362 14.4178 10.0364 14.551V18.0626H5.52067C5.38749 18.0625 5.25972 18.1153 5.16555 18.2095C5.07138 18.3037 5.01853 18.4315 5.01866 18.5646V21.0747H0.502971C0.369624 21.0743 0.241615 21.127 0.147234 21.2212C0.0528532 21.3154 -0.000127814 21.4433 2.31558e-07 21.5767V23.5838C-0.000127165 23.717 0.052722 23.8447 0.146895 23.9389C0.241068 24.0331 0.36883 24.0859 0.50201 24.0858H23.5873C23.7204 24.0859 23.8482 24.0331 23.9424 23.9389C24.0365 23.8447 24.0894 23.717 24.0893 23.5838V9.53326C24.0894 9.40008 24.0365 9.27232 23.9424 9.17814C23.8482 9.08397 23.7204 9.03112 23.5873 9.03125ZM1.00354 22.0782H5.01818V23.0818H1.00354V22.0782ZM6.02172 19.0676V21.5762V23.0822H10.0364V19.0676H6.02172ZM11.0399 18.5651V15.053H15.0545V23.0818H11.0399V18.5651ZM16.0581 23.0808H23.0833V10.0348H16.0581V23.0808Z" fill="#111827"/>
</svg>
