<svg width="16" height="16" viewBox="0 0 16 16" fill="none" xmlns="http://www.w3.org/2000/svg">
<path fill-rule="evenodd" clip-rule="evenodd" d="M6.06738 13.4263H9.67038L7.86872 11.625L6.06738 13.4263Z" fill="#B08747"/>
<path fill-rule="evenodd" clip-rule="evenodd" d="M14.021 14.7064H1.71733C1.13067 14.7064 0.653667 14.2291 0.653667 13.6427V8.18775H6.54067V8.83042C6.54067 9.18408 6.82867 9.47208 7.182 9.47208H8.52433C8.878 9.47208 9.16533 9.18408 9.16533 8.83042V8.18775H15.0843V13.6427C15.0843 14.2291 14.6077 14.7064 14.021 14.7064ZM7.185 7.81475L7.182 7.50108L8.51167 7.48875V8.81842L7.19433 8.83042L7.18567 7.90308C7.18767 7.88842 7.19433 7.87575 7.19433 7.86108C7.19433 7.84475 7.18733 7.83075 7.185 7.81475ZM1.71733 4.24742H14.021C14.6077 4.24742 15.0843 4.72442 15.0843 5.31075V7.53408H9.16533V7.48875C9.16533 7.13475 8.878 6.84742 8.52433 6.84742H7.182C6.82867 6.84742 6.54067 7.13475 6.54067 7.48875V7.53408H0.653667V5.31075C0.653667 4.72442 1.13067 4.24742 1.71733 4.24742ZM14.021 3.59375H1.71733C0.770667 3.59375 0 4.36442 0 5.31075V13.6427C0 14.5894 0.770667 15.3601 1.71733 15.3601H14.021C14.9677 15.3601 15.738 14.5894 15.738 13.6427V5.31075C15.738 4.36442 14.9677 3.59375 14.021 3.59375Z" fill="#111827"/>
<path fill-rule="evenodd" clip-rule="evenodd" d="M5.25914 2.26394C5.25914 1.56127 5.87247 0.989271 6.62714 0.989271H9.10214C9.85647 0.989271 10.4701 1.56127 10.4701 2.26394V2.9436H11.1238V2.26394C11.1238 1.2006 10.2165 0.335938 9.10214 0.335938H6.62714C5.51247 0.335938 4.60547 1.2006 4.60547 2.26394V2.9436H5.25914V2.26394Z" fill="#111827"/>
</svg>
