<svg width="24" height="24" viewBox="0 0 24 24" fill="none" xmlns="http://www.w3.org/2000/svg">
<path d="M5.49947 22.6601C5.44922 22.6144 5.39179 22.5772 5.32947 22.5501C5.14369 22.4753 4.9312 22.5186 4.78947 22.6601C4.64942 22.803 4.60799 23.0155 4.68416 23.2005C4.76033 23.3855 4.93944 23.5073 5.13947 23.5101C5.20511 23.5124 5.27032 23.4986 5.32947 23.4701C5.39376 23.4468 5.4519 23.4092 5.49947 23.3601C5.54411 23.3147 5.57825 23.2601 5.59947 23.2001C5.62802 23.141 5.64174 23.0757 5.63947 23.0101C5.64063 22.9446 5.62695 22.8796 5.59947 22.8201C5.57588 22.7613 5.54202 22.7071 5.49947 22.6601Z" fill="#111827"/>
<path fill-rule="evenodd" clip-rule="evenodd" d="M7.82529 13.3701C8.18716 13.5336 8.46945 13.8339 8.61029 14.2051C8.75393 14.5758 8.7413 14.9889 8.57529 15.3501L5.79029 21.5701C5.54791 22.1093 5.01145 22.4559 4.42029 22.4551C4.20995 22.4564 4.00183 22.412 3.81029 22.3251L2.42029 21.7051C2.0528 21.5425 1.76594 21.2392 1.62401 20.8632C1.48208 20.4872 1.49695 20.07 1.66529 19.7051L4.43529 13.5001C4.59793 13.1326 4.90122 12.8458 5.2772 12.7038C5.65317 12.5619 6.07037 12.5768 6.43529 12.7451L7.82529 13.3701ZM4.88029 21.1451L7.66529 14.9451V14.9351C7.72097 14.8139 7.72589 14.6754 7.67893 14.5505C7.63198 14.4256 7.53706 14.3247 7.41529 14.2701L6.02529 13.6501C5.90356 13.6001 5.76702 13.6001 5.64529 13.6501C5.52121 13.6963 5.42052 13.7898 5.36529 13.9101L2.58029 20.1151C2.46763 20.3664 2.57941 20.6615 2.83029 20.7751L4.22029 21.4001C4.34161 21.4539 4.47935 21.4573 4.60315 21.4094C4.72694 21.3616 4.82665 21.2665 4.88029 21.1451Z" fill="#111827"/>
<path fill-rule="evenodd" clip-rule="evenodd" d="M18.5845 10.735L20.9395 11.835H20.9245C21.1337 11.9363 21.2455 12.1686 21.1942 12.3954C21.1429 12.6221 20.942 12.7836 20.7095 12.785C20.6371 12.7845 20.5657 12.7691 20.4995 12.74L18.1645 11.645C17.6601 11.4092 17.241 11.0232 16.9645 10.54L16.3695 9.49998V13.87L19.9395 21.3C20.3356 21.985 20.1138 22.8609 19.4395 23.275C19.2051 23.4202 18.9352 23.4981 18.6595 23.5C18.1475 23.5117 17.6671 23.2535 17.3945 22.82L12.7845 13.615C12.5986 13.2404 12.5011 12.8281 12.4995 12.41V8.34998L10.8195 9.67998L9.37446 12.86C9.29392 13.0392 9.11591 13.1546 8.91946 13.155C8.84712 13.1545 8.77566 13.1391 8.70946 13.11C8.58858 13.0545 8.49478 12.9532 8.4488 12.8284C8.40282 12.7036 8.40846 12.5656 8.46446 12.445L9.96446 9.15498C9.99828 9.08178 10.0478 9.01691 10.1095 8.96498L13.0745 6.64498C13.4971 6.21242 14.0997 6.00559 14.6989 6.0874C15.2981 6.1692 15.8232 6.52996 16.1145 7.05998L16.1395 7.08998L17.8295 10.045C18.0033 10.3479 18.2672 10.589 18.5845 10.735ZM18.9095 22.44C19.1282 22.3027 19.1951 22.0147 19.0595 21.795L15.4145 14.22C15.3848 14.1504 15.3695 14.0756 15.3695 14V7.99997C15.3798 7.61828 15.1533 7.26988 14.8002 7.12444C14.4472 6.97901 14.041 7.06676 13.7795 7.34497L13.7495 7.37998C13.5913 7.54798 13.5021 7.76927 13.4995 7.99997V12.41C13.5046 12.674 13.5732 12.933 13.6995 13.165L18.2845 22.335C18.4412 22.5144 18.7027 22.5583 18.9095 22.44Z" fill="#111827"/>
<path d="M13.1745 17.245L12.8645 18.185C12.8363 18.2592 12.7939 18.3272 12.7395 18.385L10.3045 22.125C10.2382 22.2432 10.1227 22.3257 9.98949 22.35C9.85592 22.3723 9.71925 22.3358 9.61449 22.25C9.45645 22.1158 9.40916 21.8917 9.49949 21.705L11.9995 17.825C12.0208 17.7882 12.0392 17.7497 12.0545 17.71L12.6595 15.87L12.0445 14.645C12.0058 14.693 11.9754 14.7471 11.9545 14.805L11.1245 17.335L8.65949 21.19C8.32495 21.7913 8.45392 22.5443 8.96949 23C9.23473 23.2175 9.5665 23.3375 9.90949 23.34C9.99433 23.3475 10.0797 23.3475 10.1645 23.34C10.5835 23.2694 10.9498 23.0167 11.1645 22.65L13.5395 19C13.6634 18.8532 13.7568 18.6833 13.8145 18.5L13.8695 18.335L13.2545 17.1C13.2199 17.1436 13.1929 17.1926 13.1745 17.245Z" fill="#111827"/>
<path fill-rule="evenodd" clip-rule="evenodd" d="M16.5759 2.52499C16.5759 3.48999 15.8159 4.94999 14.6659 4.94999C13.5009 4.94999 12.7559 3.49999 12.7559 2.52499C12.7559 1.47013 13.611 0.61499 14.6659 0.61499C15.7207 0.61499 16.5759 1.47013 16.5759 2.52499ZM15.5759 2.52499C15.5731 2.02355 15.1673 1.61772 14.6659 1.61499C14.1633 1.61499 13.7559 2.02241 13.7559 2.52499C13.7559 3.13999 14.2559 3.94999 14.6659 3.94999C15.0759 3.94999 15.5759 3.13999 15.5759 2.52499Z" fill="#111827"/>
<path d="M20.5 2V7.515L23.255 4.755L20.5 2Z" fill="#B08747"/>
</svg>
