<svg width="24" height="27" viewBox="0 0 24 27" fill="none" xmlns="http://www.w3.org/2000/svg">
<path d="M10.4091 4.08234H11.685C11.889 4.64426 12.3833 5.01278 12.933 5.01278C13.4826 5.01278 13.9769 4.64426 14.181 4.08234H15.4616C15.5688 4.04545 15.6623 3.97129 15.728 3.87097C15.8286 3.72038 15.857 3.52555 15.8041 3.34789C15.7513 3.17023 15.6237 3.03164 15.4616 2.97581H13.7768C13.6376 2.97567 13.504 3.03656 13.4057 3.14504C13.3073 3.25352 13.2523 3.40064 13.2526 3.55391C13.2586 3.60497 13.2538 3.65686 13.2387 3.70557C13.2233 3.75363 13.1985 3.79744 13.1662 3.83398C13.1332 3.87047 13.0929 3.89813 13.0486 3.91483C13.0045 3.93054 12.9578 3.93541 12.9118 3.92909C12.8221 3.92909 12.5806 3.92909 12.5696 3.55338C12.57 3.40011 12.5149 3.25299 12.4166 3.14451C12.3182 3.03604 12.1847 2.97514 12.0454 2.97528H10.4091C10.3304 2.94833 10.247 2.94217 10.1658 2.95732C10.085 2.97331 10.0086 3.00947 9.94255 3.063C9.87618 3.11694 9.82212 3.18713 9.78463 3.26803C9.70981 3.43213 9.70981 3.62549 9.78463 3.78959C9.82212 3.87049 9.87618 3.94068 9.94255 3.99462C10.0086 4.04815 10.085 4.08431 10.1658 4.1003C10.247 4.11545 10.3304 4.10929 10.4091 4.08234Z" fill="#111827"/>
<path fill-rule="evenodd" clip-rule="evenodd" d="M4.89516 26.8427C6.42828 23.9565 9.50316 22.3379 12.7192 22.257C15.9457 22.1772 19.2256 23.6505 21.111 26.8427H22.119C20.103 22.9641 16.3278 21.2181 12.6966 21.308C9.0966 21.3978 5.53692 23.2996 3.9126 26.8427H4.89516Z" fill="#111827"/>
<path fill-rule="evenodd" clip-rule="evenodd" d="M7.09158 26.8446C8.56596 25.1157 10.6284 24.1419 12.7825 24.1576C15.0735 24.0434 17.2979 25.0228 18.8857 26.8446H20.0002C18.2818 24.2891 15.4666 23.1456 12.7633 23.2096C10.106 23.2724 7.46022 24.5111 6.00342 26.8446H7.09158Z" fill="#111827"/>
<path fill-rule="evenodd" clip-rule="evenodd" d="M17.1162 20.1977C18.8432 20.4642 20.5384 20.9389 22.1711 21.6134C23.2039 22.0967 23.8941 23.1884 23.9471 24.4225V26.8438H22.9439V24.4458C22.8912 23.6488 22.4338 22.9532 21.7626 22.6491C20.5057 22.135 19.2106 21.7421 17.8919 21.4749C17.416 21.3453 16.9345 21.2424 16.449 21.1669L16.2038 20.6332L15.2591 18.4423C14.5576 18.9172 13.7569 19.1858 12.934 19.2223C12.1148 19.1727 11.3192 18.9019 10.6175 18.4338L9.65752 20.6987L9.4564 21.0998C8.88616 21.2493 8.69896 21.2815 8.1988 21.3988C6.79341 21.6636 5.41352 22.0721 4.07704 22.619C3.39564 22.9376 2.94205 23.66 2.91208 24.4743V26.8432H1.91992V24.451C1.96205 23.2087 2.64775 22.1031 3.68344 21.6076C5.32816 20.9341 7.03401 20.4577 8.77144 20.1866L9.76168 17.7997C8.54425 16.8378 7.69787 15.4091 7.38904 13.7948C6.87405 13.6224 6.48375 13.1574 6.36839 12.5786C6.25303 11.9998 6.43059 11.3975 6.83272 11.0036C6.68186 10.4053 6.60596 9.78719 6.60712 9.16629C6.62741 8.42782 6.73504 7.69542 6.92728 6.98758V5.38697L5.35288 2.91922C5.30755 2.84567 5.2783 2.76157 5.26744 2.6735C5.25632 2.58473 5.26388 2.49433 5.28952 2.40929C5.31976 2.32453 5.36799 2.24898 5.43016 2.18893C5.49249 2.12899 5.56659 2.08576 5.64664 2.06264L10.99 0.65385C12.2685 0.34455 13.5928 0.34455 14.8713 0.65385L20.2079 2.06422C20.3684 2.11224 20.4989 2.24069 20.5602 2.41087C20.589 2.49512 20.5984 2.58588 20.5876 2.67508C20.5764 2.76371 20.5452 2.84783 20.4969 2.91975L18.9225 5.3875V6.9823C19.1238 7.69059 19.2401 8.4248 19.2686 9.16629C19.2532 9.78904 19.1631 10.4068 19.0007 11.0036C19.4124 11.3913 19.6003 11.9946 19.4911 12.5788C19.3819 13.1629 18.9929 13.6356 18.4756 13.8127C18.1474 15.4087 17.3117 16.8228 16.1193 17.7997L17.1162 20.1977ZM17.3418 8.57656L17.505 10.6332V10.666C17.683 10.5841 17.8737 10.5409 18.0666 10.5386C18.1784 10.0785 18.2385 9.605 18.2457 9.12877C18.2349 8.74875 18.1891 8.37092 18.1089 8.0011C17.8622 8.20725 17.606 8.39932 17.3414 8.57656H17.3418ZM7.62328 9.16629C7.62796 9.64231 7.68616 10.1159 7.79656 10.5761C7.99176 10.5527 8.18919 10.5685 8.37928 10.6226L8.5372 8.58924C8.26005 8.41878 7.99498 8.22553 7.74424 8.01114C7.66981 8.39093 7.62929 8.77782 7.62328 9.16629ZM17.2295 7.39288C14.3887 6.93875 11.5033 6.93875 8.66248 7.39288C11.9697 9.91824 14.877 8.92902 16.5465 7.8727L16.6151 7.82619C16.828 7.69476 17.034 7.55009 17.2319 7.39288H17.2295ZM11.2166 1.73554L6.60136 2.95092L7.83592 4.93887C7.8927 5.03287 7.92339 5.14304 7.92424 5.25592V6.41212C11.226 5.80735 14.5959 5.80735 17.8977 6.41212V5.20731C17.8977 5.09297 17.9314 4.98172 17.9937 4.89025L19.2681 2.94775L14.6442 1.73554C13.5153 1.46087 12.3455 1.46087 11.2166 1.73554ZM8.18104 12.9223C8.27783 13.0162 8.33985 13.146 8.35528 13.287C8.5444 15.9 11.29 18.0957 12.922 18.0957C14.554 18.0957 17.3106 15.8937 17.4998 13.2822C17.508 13.135 17.5702 12.9977 17.6721 12.9019C17.774 12.806 17.9068 12.7598 18.0402 12.7739C18.1518 12.7689 18.2586 12.7226 18.3431 12.6423C18.4712 12.5205 18.5337 12.3348 18.5086 12.1505C18.4834 11.9662 18.3742 11.809 18.2193 11.7339C17.9548 11.6251 17.6568 11.7185 17.4839 11.9643C17.3885 12.1132 17.2347 12.2036 17.0692 12.2079C17.0239 12.2157 16.9777 12.2157 16.9324 12.2079C16.8348 12.1782 16.7477 12.1164 16.6828 12.0309C16.6185 11.9449 16.5792 11.8396 16.57 11.7286L16.3708 9.20328C15.2778 9.7821 14.0825 10.0888 12.8697 10.1016C11.6981 10.0952 10.5428 9.79922 9.48904 9.23551L9.29704 11.7265C9.28472 11.8375 9.24393 11.9424 9.17944 12.0288C9.11404 12.115 9.02734 12.1785 8.92984 12.2116C8.88613 12.2194 8.84156 12.2194 8.79784 12.2116C8.63652 12.2069 8.48587 12.1218 8.3884 11.9802C8.21577 11.7161 7.90168 11.616 7.6276 11.7376C7.45632 11.833 7.34592 12.0237 7.3396 12.2349C7.33959 12.5337 7.55824 12.7768 7.82968 12.7797C7.95873 12.7776 8.0839 12.8283 8.18104 12.9218V12.9223Z" fill="#111827"/>
<path d="M13.128 24.6055L10.8652 26.8449L15.432 26.7921L13.128 24.6055Z" fill="#B08747"/>
</svg>
