<svg width="12" height="13" viewBox="0 0 12 13" fill="none" xmlns="http://www.w3.org/2000/svg">
<path d="M1.74379 12.9996C1.43695 12.9996 1.18076 12.8968 0.975203 12.6912C0.769648 12.4857 0.66687 12.2295 0.66687 11.9226V3.4098C0.66687 3.10297 0.769648 2.84678 0.975203 2.64122C1.18076 2.43566 1.43695 2.33289 1.74379 2.33289H2.92327V1.20469C2.92327 1.10126 2.95725 1.01558 3.0252 0.94762C3.09315 0.879675 3.17883 0.845703 3.28225 0.845703C3.38568 0.845703 3.47136 0.879675 3.5393 0.94762C3.60725 1.01558 3.64122 1.10126 3.64122 1.20469V2.33289H8.41045V1.17904C8.41045 1.08417 8.44229 1.0049 8.50597 0.94122C8.56965 0.877542 8.64893 0.845703 8.7438 0.845703C8.83867 0.845703 8.91794 0.877542 8.98162 0.94122C9.0453 1.0049 9.07714 1.08417 9.07714 1.17904V2.33289H10.2566C10.5635 2.33289 10.8196 2.43566 11.0252 2.64122C11.2308 2.84678 11.3335 3.10297 11.3335 3.4098V11.9226C11.3335 12.2295 11.2308 12.4857 11.0252 12.6912C10.8196 12.8968 10.5635 12.9996 10.2566 12.9996H1.74379ZM1.74379 12.3329H10.2566C10.3592 12.3329 10.4532 12.2902 10.5387 12.2047C10.6241 12.1192 10.6669 12.0252 10.6669 11.9226V6.07647H1.33354V11.9226C1.33354 12.0252 1.37627 12.1192 1.46174 12.2047C1.54721 12.2902 1.64123 12.3329 1.74379 12.3329ZM1.33354 5.4098H10.6669V3.4098C10.6669 3.30725 10.6241 3.21323 10.5387 3.12775C10.4532 3.04229 10.3592 2.99955 10.2566 2.99955H1.74379C1.64123 2.99955 1.54721 3.04229 1.46174 3.12775C1.37627 3.21323 1.33354 3.30725 1.33354 3.4098V5.4098ZM6.0002 8.43545C5.86259 8.43545 5.74272 8.38438 5.64059 8.28224C5.53845 8.1801 5.48739 8.06024 5.48739 7.92264C5.48739 7.78503 5.53845 7.66515 5.64059 7.56302C5.74272 7.46088 5.86259 7.4098 6.0002 7.4098C6.13781 7.4098 6.25769 7.46088 6.35982 7.56302C6.46195 7.66515 6.51302 7.78503 6.51302 7.92264C6.51302 8.06024 6.46195 8.1801 6.35982 8.28224C6.25769 8.38438 6.13781 8.43545 6.0002 8.43545ZM3.33354 8.43545C3.19593 8.43545 3.07605 8.38438 2.97392 8.28224C2.87179 8.1801 2.82072 8.06024 2.82072 7.92264C2.82072 7.78503 2.87179 7.66515 2.97392 7.56302C3.07605 7.46088 3.19593 7.4098 3.33354 7.4098C3.47115 7.4098 3.59102 7.46088 3.69315 7.56302C3.79529 7.66515 3.84635 7.78503 3.84635 7.92264C3.84635 8.06024 3.79529 8.1801 3.69315 8.28224C3.59102 8.38438 3.47115 8.43545 3.33354 8.43545ZM8.66687 8.43545C8.52926 8.43545 8.40939 8.38438 8.30725 8.28224C8.20512 8.1801 8.15405 8.06024 8.15405 7.92264C8.15405 7.78503 8.20512 7.66515 8.30725 7.56302C8.40939 7.46088 8.52926 7.4098 8.66687 7.4098C8.80448 7.4098 8.92435 7.46088 9.02649 7.56302C9.12862 7.66515 9.17969 7.78503 9.17969 7.92264C9.17969 8.06024 9.12862 8.1801 9.02649 8.28224C8.92435 8.38438 8.80448 8.43545 8.66687 8.43545ZM6.0002 10.9996C5.86259 10.9996 5.74272 10.9485 5.64059 10.8464C5.53845 10.7442 5.48739 10.6243 5.48739 10.4867C5.48739 10.3491 5.53845 10.2293 5.64059 10.1271C5.74272 10.025 5.86259 9.9739 6.0002 9.9739C6.13781 9.9739 6.25769 10.025 6.35982 10.1271C6.46195 10.2293 6.51302 10.3491 6.51302 10.4867C6.51302 10.6243 6.46195 10.7442 6.35982 10.8464C6.25769 10.9485 6.13781 10.9996 6.0002 10.9996ZM3.33354 10.9996C3.19593 10.9996 3.07605 10.9485 2.97392 10.8464C2.87179 10.7442 2.82072 10.6243 2.82072 10.4867C2.82072 10.3491 2.87179 10.2293 2.97392 10.1271C3.07605 10.025 3.19593 9.9739 3.33354 9.9739C3.47115 9.9739 3.59102 10.025 3.69315 10.1271C3.79529 10.2293 3.84635 10.3491 3.84635 10.4867C3.84635 10.6243 3.79529 10.7442 3.69315 10.8464C3.59102 10.9485 3.47115 10.9996 3.33354 10.9996ZM8.66687 10.9996C8.52926 10.9996 8.40939 10.9485 8.30725 10.8464C8.20512 10.7442 8.15405 10.6243 8.15405 10.4867C8.15405 10.3491 8.20512 10.2293 8.30725 10.1271C8.40939 10.025 8.52926 9.9739 8.66687 9.9739C8.80448 9.9739 8.92435 10.025 9.02649 10.1271C9.12862 10.2293 9.17969 10.3491 9.17969 10.4867C9.17969 10.6243 9.12862 10.7442 9.02649 10.8464C8.92435 10.9485 8.80448 10.9996 8.66687 10.9996Z" fill="white"/>
</svg>
