<svg width="24" height="24" viewBox="0 0 24 24" fill="none" xmlns="http://www.w3.org/2000/svg">
<g clip-path="url(#clip0_1722_114538)">
<path d="M23.5188 5.35134L18.5102 1.23643C18.169 0.969336 17.7041 0.92473 17.3185 1.12208C16.9329 1.31943 16.6966 1.72291 16.7126 2.15643C16.7126 2.15643 16.7126 2.65267 16.7126 3.04297C16.7126 3.1991 16.7126 3.36079 16.7126 3.50019C11.2809 4.18043 7.52441 7.00734 7.52441 10.4643C7.52441 12.979 9.66146 15.2483 13.2399 16.5307C13.3367 16.5636 13.4382 16.5806 13.5404 16.5809C13.8958 16.5797 14.2131 16.3574 14.3362 16.0233C14.5142 15.5966 14.3254 15.1052 13.9077 14.9082C12.4441 14.2168 11.6037 13.2689 11.6037 12.3043C11.6037 10.665 13.6851 9.35473 16.7348 9.02576V10.3416C16.7276 10.7607 16.9555 11.1484 17.3248 11.3453C17.716 11.5421 18.1843 11.5034 18.538 11.2449L23.5133 7.16903C23.8056 6.95376 23.979 6.61254 23.9808 6.24903C23.9786 5.89309 23.807 5.55956 23.5188 5.35134ZM17.8813 10.4197C17.8813 10.4197 17.8089 10.4197 17.7366 10.3472V7.90503L17.1801 7.94407C13.1954 8.20613 10.5018 9.96249 10.5018 12.3099C10.5359 13.2333 10.9536 14.1005 11.6538 14.7019C9.65033 13.5867 8.50389 12.0701 8.50389 10.4643C8.50389 7.46455 12.0879 5.00564 17.2023 4.49267L17.7588 4.44807L17.8813 2.06722L22.89 6.15982L22.9512 6.24903L17.8813 10.4197Z" fill="#111827"/>
<path d="M20.8584 22.9427H1.04626V7.2748H6.26087V6.22656H0.52313C0.236373 6.22656 0.00305061 6.45782 0 6.74511V23.4445C0 23.734 0.234213 23.9686 0.52313 23.9686H21.3816C21.6705 23.9686 21.9047 23.734 21.9047 23.4445V12.4937H20.8584V22.9427Z" fill="#111827"/>
<path d="M19 21V17L15 21H19Z" fill="#B08747"/>
</g>
<defs>
<clipPath id="clip0_1722_114538">
<rect width="24" height="24" fill="white"/>
</clipPath>
</defs>
</svg>
