<svg width="22" height="19" viewBox="0 0 22 19" fill="none" xmlns="http://www.w3.org/2000/svg">
<path d="M15 1.66796C16.4817 2.40431 17.5 3.93333 17.5 5.7002C17.5 7.46706 16.4817 8.99608 15 9.73244M17 14.9666C18.5115 15.6505 19.8725 16.7652 21 18.2002M1 18.2002C2.94649 15.7228 5.58918 14.2002 8.5 14.2002C11.4108 14.2002 14.0535 15.7228 16 18.2002M13 5.7002C13 8.18548 10.9853 10.2002 8.5 10.2002C6.01472 10.2002 4 8.18548 4 5.7002C4 3.21491 6.01472 1.2002 8.5 1.2002C10.9853 1.2002 13 3.21491 13 5.7002Z" stroke="#111827" stroke-linecap="round" stroke-linejoin="round"/>
</svg>
