<svg width="24" height="24" viewBox="0 0 24 24" fill="none" xmlns="http://www.w3.org/2000/svg">
<g clip-path="url(#clip0_7286_30999)">
<path d="M19.8957 9.5L17 12.3904H22.7913L19.8957 9.5Z" fill="#B08747"/>
<path d="M3.69371 4.50889C4.09404 4.88526 4.61609 5.10556 5.16502 5.12976C5.30949 5.12899 5.45327 5.10971 5.59284 5.07237C6.2552 4.83368 6.74933 4.27262 6.90241 3.58542C7.11397 2.95177 7.13753 2.27042 6.97024 1.62368C6.61257 0.434827 5.36946 -0.249345 4.17371 0.0845458C3.59111 0.248384 3.09808 0.638125 2.80417 1.16716C2.51026 1.6962 2.43982 2.32072 2.6085 2.90194C2.8112 3.52934 3.18746 4.08649 3.69371 4.50889ZM3.69371 1.66542C3.85236 1.37494 4.12127 1.16056 4.4398 1.07063C4.55297 1.03546 4.67086 1.01787 4.78937 1.01844C4.99947 1.01836 5.20608 1.07226 5.38937 1.17498C5.68138 1.33559 5.89732 1.60598 5.98937 1.92628C6.20328 2.67759 5.89024 3.91933 5.31111 4.08629C4.73198 4.25324 3.80328 3.36628 3.58415 2.61498C3.49425 2.29638 3.53362 1.95517 3.69371 1.66542Z" fill="#111827"/>
<path d="M13.5652 13.3212H11.2435L10.847 12.2778H12.9339C13.2221 12.2778 13.4557 12.0442 13.4557 11.756C13.4557 11.4679 13.2221 11.2343 12.9339 11.2343H10.4348L8.86957 7.24297C8.44416 5.97714 7.11928 5.24891 5.82261 5.56819L4.69565 5.89689C4.27428 6.0088 3.92014 6.29417 3.72119 6.68211C3.52225 7.07006 3.49716 7.52417 3.65217 7.93167L5.0087 11.276H4.58087L0.954783 1.91602L0 2.28645L3.8713 12.283L6.26087 18.4082L4.29913 22.8325C4.23207 22.9912 4.24769 23.1728 4.34087 23.3178C4.43702 23.46 4.597 23.5459 4.7687 23.5473H11.0296V22.5038H5.5513L7.11652 18.9091H11.3896V17.8656H7.14783L4.97739 12.2986H5.42609L7.09565 16.3995C7.32321 17.0021 7.89675 17.4038 8.54087 17.4117H12.3704L11.9322 21.8621C11.8925 22.2918 12.0358 22.7183 12.3267 23.0371C12.6176 23.3558 13.0293 23.5372 13.4609 23.5369H14.4417C14.6952 23.5415 14.9153 23.3632 14.9635 23.1143L16.127 16.2951C16.2489 15.5477 16.0338 14.7846 15.5396 14.2108C15.0453 13.637 14.3225 13.3114 13.5652 13.3212ZM15.0783 16.1334L14.0087 22.5247H13.4609C13.3159 22.5251 13.1774 22.4651 13.0784 22.3592C12.9794 22.2533 12.929 22.111 12.9391 21.9665L13.4348 16.9525C13.4484 16.808 13.4011 16.6643 13.3043 16.556C13.2073 16.4513 13.0715 16.391 12.9287 16.3891H8.54087C8.31849 16.3874 8.12159 16.245 8.05044 16.0343L6.52696 12.2986H7.30435V11.2551H6.10435L4.60174 7.56123C4.55647 7.42565 4.5688 7.27744 4.63586 7.15121C4.70292 7.02498 4.81883 6.93179 4.95652 6.89341L6.10957 6.60123C6.22905 6.57194 6.35177 6.55792 6.47478 6.55937C7.14331 6.56521 7.7344 6.9949 7.94609 7.62906L9.35478 11.2812H8.94783L7.23652 8.45862C7.06913 8.27866 6.79883 8.23992 6.58763 8.36564C6.37643 8.49135 6.28161 8.74742 6.36 8.98036L8.22261 12.0586C8.31591 12.2119 8.48144 12.3065 8.66087 12.3091H9.7513L10.4348 14.0151C10.5132 14.212 10.7029 14.3419 10.9148 14.3438H13.5652C14.0175 14.3418 14.4474 14.5402 14.7394 14.8855C15.0314 15.2309 15.1554 15.6878 15.0783 16.1334Z" fill="#111827"/>
<path d="M23.6763 3.10591H20.6085V0.0380859H19.5859V3.10591H16.5181V4.12852H19.5859V7.19635H20.6085V4.12852H23.6763V3.10591Z" fill="#111827"/>
</g>
<defs>
<clipPath id="clip0_7286_30999">
<rect width="24" height="24" fill="white"/>
</clipPath>
</defs>
</svg>
