<svg width="24" height="24" viewBox="0 0 24 24" fill="none" xmlns="http://www.w3.org/2000/svg">
<path d="M12.0009 19.8965L14.8918 17H9.10999L12.0009 19.8965Z" fill="#B08747"/>
<path d="M12 14.5C12.1322 14.5012 12.259 14.4442 12.35 14.3427L17.5 8.89325L16.7999 8.14606L12.4986 12.7022V0H11.5014V12.7022L7.2054 8.14606L6.5 8.89325L11.65 14.3427C11.741 14.4442 11.8678 14.5012 12 14.5Z" fill="#111827"/>
<path d="M21.394 18H15.3856L14.3388 19.0009H21.394C21.809 19.0009 22.207 19.1585 22.5004 19.4391C22.7939 19.7196 22.9587 20.1001 22.9587 20.4969V21.4925C22.9587 21.8892 22.7939 22.2697 22.5004 22.5503C22.207 22.8309 21.809 22.9885 21.394 22.9885H2.60608C1.7419 22.9885 1.04135 22.3187 1.04135 21.4925V20.4969C1.04135 20.1001 1.2062 19.7196 1.49964 19.4391C1.79309 19.1585 2.19108 19.0009 2.60608 19.0009H9.66129L8.61442 18H2.60608C1.16591 18.0029 2.34253e-05 19.12 2.34253e-05 20.4969V21.4925C-0.00291215 22.1556 0.270166 22.7926 0.759052 23.263C1.24794 23.7334 1.91247 23.9986 2.60608 24H21.394C22.8342 23.9971 24 22.88 24 21.5031V20.4969C24 19.12 22.8342 18.0029 21.394 18Z" fill="#111827"/>
</svg>
