<svg width="16" height="16" viewBox="0 0 16 16" fill="none" xmlns="http://www.w3.org/2000/svg">
<path fill-rule="evenodd" clip-rule="evenodd" d="M0 8C0 12.4183 3.58172 16 8 16C12.4167 15.9961 15.9961 12.4167 16 8C16 3.58172 12.4183 0 8 0C3.58172 0 0 3.58172 0 8ZM0.673128 8C0.673128 3.95348 3.95348 0.673128 8 0.673128C12.0441 0.678951 15.321 3.95589 15.3269 8C15.3269 12.0465 12.0465 15.3269 8 15.3269C3.95348 15.3269 0.673128 12.0465 0.673128 8Z" fill="#111827"/>
<path d="M11.5091 8.66927L11.283 8.4257C10.4298 7.52457 9.24312 7.01404 8.00177 7.01404C6.76041 7.01404 5.57375 7.52457 4.72053 8.4257L4.49095 8.66927L4 8.20685L4.22958 7.96328C5.20555 6.92186 6.57054 6.33245 7.99823 6.33596C9.42716 6.33147 10.7936 6.92096 11.7704 7.96328L12 8.20685L11.5091 8.66927Z" fill="#111827"/>
<path d="M13.1862 7L12.9549 6.74506C11.6557 5.40755 9.86764 4.65245 7.99967 4.65245C6.13171 4.65245 4.34364 5.40755 3.04441 6.74506L2.81312 6.98603L2.33301 6.53552L2.5643 6.29803C3.98386 4.82259 5.94855 3.99195 7.99967 4.00006C10.0508 3.99195 12.0155 4.82259 13.435 6.29803L13.6663 6.53552L13.1862 7Z" fill="#111827"/>
<path d="M9.81953 10.3307L9.59303 10.0747C9.18969 9.61658 8.60967 9.35419 8.00033 9.35419C7.39098 9.35419 6.81096 9.61658 6.40762 10.0747L6.18112 10.3307L5.66699 9.87637L5.89349 9.61674C6.42717 9.01098 7.19437 8.66406 8.00033 8.66406C8.80628 8.66406 9.57348 9.01098 10.1072 9.61674L10.3337 9.87637L9.81953 10.3307Z" fill="#111827"/>
<path d="M7.99838 10.6641L6.12012 12.5423H9.87664L7.99838 10.6641Z" fill="#B08747"/>
</svg>
