<svg width="22" height="15" viewBox="0 0 22 15" fill="none" xmlns="http://www.w3.org/2000/svg">
<path d="M1.26805 8.21318C1.12971 7.99754 1.06054 7.88972 1.02181 7.72342C0.992729 7.5985 0.992729 7.4015 1.02181 7.27658C1.06054 7.11028 1.12971 7.00246 1.26805 6.78682C2.41127 5.00484 5.81418 0.5 11 0.5C16.1858 0.5 19.5887 5.00484 20.7319 6.78682C20.8703 7.00246 20.9395 7.11028 20.9782 7.27658C21.0073 7.4015 21.0073 7.5985 20.9782 7.72342C20.9395 7.88972 20.8703 7.99754 20.7319 8.21318C19.5887 9.99516 16.1858 14.5 11 14.5C5.81418 14.5 2.41127 9.99516 1.26805 8.21318Z" stroke="#2E4755" stroke-linecap="round" stroke-linejoin="round"/>
<path d="M11 10.5C12.6831 10.5 14.0475 9.15685 14.0475 7.5C14.0475 5.84315 12.6831 4.5 11 4.5C9.31692 4.5 7.95251 5.84315 7.95251 7.5C7.95251 9.15685 9.31692 10.5 11 10.5Z" stroke="#2E4755" stroke-linecap="round" stroke-linejoin="round"/>
</svg>
