<svg width="19" height="25" viewBox="0 0 19 25" fill="none" xmlns="http://www.w3.org/2000/svg">
<rect x="3.10645" y="18.0547" width="6.8893" height="1.00354" fill="#111827"/>
<path fill-rule="evenodd" clip-rule="evenodd" d="M16.069 4.5169C16.069 5.90263 14.9456 7.02599 13.5599 7.02599C12.1741 7.02599 11.0508 5.90263 11.0508 4.5169C11.0508 3.13117 12.1741 2.00781 13.5599 2.00781C14.9456 2.00781 16.069 3.13117 16.069 4.5169ZM15.0654 4.5169C15.0654 3.68541 14.3914 3.01135 13.5599 3.01135C12.7284 3.01135 12.0543 3.68541 12.0543 4.5169C12.0543 5.34839 12.7284 6.02245 13.5599 6.02245C14.3914 6.02245 15.0654 5.34839 15.0654 4.5169Z" fill="#111827"/>
<path fill-rule="evenodd" clip-rule="evenodd" d="M7.06634 2.89006L6.41493 2.68782C6.23273 2.63094 6.09855 2.47566 6.06869 2.28714C6.03884 2.09863 6.11847 1.90949 6.27417 1.79909L6.83095 1.40517L6.8223 0.723013C6.81996 0.532087 6.92613 0.356362 7.09624 0.269627C7.26634 0.182893 7.47092 0.200169 7.62407 0.3142L8.17124 0.722053L8.81737 0.502994C8.99801 0.442194 9.19751 0.488943 9.33234 0.62367C9.46717 0.758397 9.51407 0.957859 9.45341 1.13855L9.23435 1.78468L9.6422 2.33137C9.75662 2.48459 9.77395 2.68954 9.68688 2.8598C9.58417 3.01419 9.41785 3.11461 9.23339 3.13362L8.55123 3.12497L8.15731 3.68223C8.06328 3.81532 7.91049 3.89449 7.74753 3.89456C7.7213 3.89467 7.69511 3.89258 7.66923 3.88832C7.48069 3.85843 7.32542 3.72419 7.26858 3.54195L7.06634 2.89006ZM8.18277 1.77315C8.06403 1.79775 7.9404 1.77828 7.83497 1.71839L7.83545 1.71983C7.82173 1.84051 7.76473 1.95214 7.675 2.034C7.7849 2.08384 7.8731 2.1717 7.92336 2.28141C8.00522 2.19167 8.11685 2.13467 8.23753 2.12095C8.17772 2.01549 8.15826 1.89189 8.18277 1.77315Z" fill="#111827"/>
<path fill-rule="evenodd" clip-rule="evenodd" d="M12.5341 12.043H15.5668C16.9509 12.0459 18.0719 13.1679 18.0735 14.5521V21.5773C18.0719 22.9614 16.9509 24.0835 15.5668 24.0864H2.51983C1.13476 24.0848 0.0123306 22.9624 0.0107422 21.5773V14.5521C0.0123306 13.167 1.13476 12.0446 2.51983 12.043H3.64875L3.37349 12.5234C3.28057 12.686 3.2147 12.8627 3.17845 13.0465H2.51983C1.68867 13.0473 1.01508 13.7209 1.01428 14.5521V21.0743H17.0704V14.5521C17.0696 13.7209 16.396 13.0473 15.5649 13.0465H10.9574L10.9392 12.7837L12.3419 12.1655C12.4087 12.129 12.4729 12.0881 12.5341 12.043ZM2.51983 23.0829H15.5668C16.2026 23.0808 16.7683 22.679 16.9796 22.0793H1.107C1.31831 22.679 1.88404 23.0808 2.51983 23.0829Z" fill="#111827"/>
<path fill-rule="evenodd" clip-rule="evenodd" d="M4.24384 13.0231L5.35979 11.0751L3.91045 9.32405C3.71015 9.08171 3.68528 8.73912 3.84848 8.47039C4.00968 8.19905 4.32784 8.06309 4.63536 8.13412L6.83844 8.61451L8.03029 6.71985C8.19755 6.45435 8.51434 6.32357 8.82018 6.39375C9.12601 6.46394 9.35408 6.71976 9.38884 7.03162L9.63624 9.28418L11.8283 9.85729C12.1309 9.9378 12.3498 10.2004 12.3745 10.5125C12.4026 10.8263 12.2261 11.1227 11.9368 11.2475L9.88893 12.1507L10.0436 14.4004C10.0673 14.7154 9.88594 15.0099 9.59397 15.1306C9.5027 15.169 9.40476 15.1891 9.30573 15.1896C9.09782 15.189 8.9001 15.0995 8.76241 14.9437L7.24341 13.2551L5.1537 14.0766C4.86227 14.1909 4.5304 14.1089 4.32578 13.872C4.12115 13.635 4.08831 13.2948 4.24384 13.0231ZM8.47465 7.89969L7.31307 9.74584L5.17436 9.28082L6.57758 10.9708L5.49046 12.8665L7.52348 12.0671L8.99252 13.6999L8.84263 11.5166L10.8382 10.637L8.71485 10.0821L8.47465 7.89969Z" fill="#111827"/>
</svg>
