<svg width="64" height="65" viewBox="0 0 64 65" fill="none" xmlns="http://www.w3.org/2000/svg">
<g clip-path="url(#clip0_6369_24238)">
<path d="M5.95209 23.6497L14.7968 17.6921L0 14.7968L5.95209 23.6497Z" fill="#BD8B13"/>
<path d="M63.7622 7.65603C63.7996 6.58062 63.1684 5.59423 62.1769 5.17834C58.0049 2.79808 49.786 5.95784 48.8959 6.31975L38.299 10.3564L22.8625 2.00467C22.5283 1.81035 22.1236 1.77959 21.7639 1.92115L20.6374 2.35266C20.279 2.49732 19.9968 2.78477 19.8587 3.14607C19.7231 3.51316 19.7588 3.92171 19.956 4.25964L27.8133 18.0401L30.1357 16.7316L23.7108 5.47065L37.6176 12.9872C37.9567 13.182 38.3657 13.2127 38.7301 13.0708L49.8694 8.81136C52.025 7.93442 58.2135 6.02744 60.8836 7.50292H60.9948C59.8297 8.52855 58.4798 9.32224 57.0175 9.84141L26.4226 21.7984C21.6617 22.5793 16.8384 22.9148 12.0153 22.8006L8.16309 25.3896H8.26043C9.73455 25.3896 11.1252 25.3896 12.4325 25.3896C17.3718 25.5198 22.3114 25.142 27.1736 24.2621L58.0049 12.333C59.6737 11.6927 63.5954 9.92493 63.7622 7.65603Z" fill="#4E4C4A"/>
<path d="M20.3598 20.0167L25.0325 17.6782L23.8365 15.2979L21.0552 16.6899L16.2712 19.9192L15.5342 20.4064C16.1458 20.5459 16.7704 20.6205 17.3977 20.6291C18.4148 20.6138 19.4199 20.406 20.3598 20.0167Z" fill="#4E4C4A"/>
<path d="M46.7004 41.4946H44.0303V53.5073C44.0352 53.8608 44.1745 54.1992 44.4197 54.4538C44.674 54.6992 45.0121 54.8386 45.3653 54.8435H49.3705V52.1571H46.6726L46.7004 41.4946Z" fill="#4E4C4A"/>
<path d="M45.3654 39.3649C46.1334 39.3649 46.756 38.7417 46.756 37.973V37.4858C46.583 36.8919 46.0391 36.4836 45.421 36.4836C44.8029 36.4836 44.259 36.8919 44.0859 37.4858V38.0287C44.1119 38.7345 44.6619 39.3089 45.3654 39.3649Z" fill="#4E4C4A"/>
<path d="M46.6706 28.1457C39.6596 28.1345 33.3327 32.353 30.642 38.8331C27.9512 45.3131 29.4268 52.7776 34.3803 57.7437C39.3338 62.7097 46.789 64.1987 53.2674 61.5159C59.7458 58.833 63.9706 52.507 63.9706 45.4896C63.9629 35.9249 56.2264 28.1687 46.6706 28.1457ZM46.6706 60.1609C38.5753 60.1609 32.0129 53.5923 32.0129 45.4896C32.0129 37.3869 38.5753 30.8183 46.6706 30.8183C54.7658 30.8183 61.3283 37.3869 61.3283 45.4896C61.3206 53.5891 54.7626 60.1532 46.6706 60.1609Z" fill="#4E4C4A"/>
</g>
<defs>
<clipPath id="clip0_6369_24238">
<rect width="64" height="64" fill="white" transform="translate(0 0.5)"/>
</clipPath>
</defs>
</svg>
