<svg width="24" height="24" viewBox="0 0 24 24" fill="none" xmlns="http://www.w3.org/2000/svg">
<path d="M4.60515 22.9935C4.42369 22.9187 4.21504 22.9611 4.07715 23.1008C3.98303 23.1897 3.92969 23.3134 3.92969 23.4429C3.92969 23.5724 3.98303 23.6961 4.07715 23.785C4.16525 23.8802 4.28958 23.9336 4.41927 23.9318C4.55183 23.9336 4.67922 23.8804 4.77127 23.785C4.95401 23.5935 4.95401 23.2923 4.77127 23.1008C4.72645 23.0508 4.6691 23.0138 4.60515 22.9935Z" fill="#111827"/>
<path fill-rule="evenodd" clip-rule="evenodd" d="M6.77073 14.7665C7.12659 14.9253 7.40415 15.2198 7.54155 15.5844H7.54108C7.68047 15.9478 7.66861 16.3518 7.50814 16.7063L5.09355 22.0842C4.9345 22.439 4.64102 22.716 4.27768 22.8544C3.91434 22.9928 3.5109 22.9812 3.15614 22.8221L2.07379 22.3364C1.71894 22.1772 1.44191 21.8835 1.30369 21.5199C1.16548 21.1564 1.1774 20.7528 1.33685 20.3981L3.74955 15.0183C3.90877 14.6633 4.20257 14.3862 4.56623 14.248C4.92988 14.1098 5.33357 14.1218 5.68837 14.2814L6.77073 14.7665ZM4.2032 21.6842L6.61685 16.3063L6.61826 16.3068C6.72878 16.0604 6.61885 15.771 6.37261 15.6602L5.29026 15.175C5.17199 15.1214 5.03724 15.1172 4.91586 15.1633C4.79448 15.2094 4.69651 15.302 4.64367 15.4207L2.22673 20.7981C2.17382 20.9166 2.17022 21.0513 2.21675 21.1725C2.26327 21.2938 2.35608 21.3915 2.47473 21.4442L3.55708 21.9298C3.67533 21.983 3.80987 21.987 3.93106 21.9409C4.05225 21.8949 4.15016 21.8025 4.2032 21.6842Z" fill="#111827"/>
<path fill-rule="evenodd" clip-rule="evenodd" d="M16.4516 12.4582L18.549 13.4361H18.5495C18.7078 13.51 18.8146 13.6627 18.8298 13.8367C18.8449 14.0107 18.7661 14.1796 18.623 14.2798C18.4798 14.3799 18.2941 14.3961 18.1358 14.3222L16.038 13.3443C15.5804 13.1316 15.2002 12.782 14.95 12.3438L14.4973 11.5537V15.2803L17.6747 21.9104C17.9272 22.3256 17.9376 22.8443 17.7019 23.2692C17.4662 23.6942 17.0206 23.96 16.5347 23.9656C16.0488 23.9712 15.5973 23.7157 15.3518 23.2963L11.237 15.0798C11.0674 14.7402 10.9789 14.3658 10.9782 13.9862V10.4568L9.54432 11.5801L8.25914 14.4097C8.17955 14.5844 8.00496 14.6962 7.81302 14.6954C7.74351 14.6955 7.6748 14.6806 7.61161 14.6516C7.49356 14.5981 7.40167 14.4997 7.3562 14.3783C7.31073 14.257 7.31543 14.1225 7.36926 14.0045L8.70479 11.0662C8.73706 10.9944 8.78632 10.9316 8.84832 10.8831L11.4864 8.81913C11.8727 8.42387 12.4231 8.23462 12.9707 8.3088C13.5183 8.38298 13.9986 8.71184 14.2657 9.1956C14.2688 9.20014 14.2727 9.20388 14.2766 9.20765C14.2813 9.21209 14.2859 9.21657 14.2893 9.22243L15.7998 11.8577C15.9496 12.1206 16.1773 12.3305 16.4516 12.4582ZM16.6987 22.9001C16.8742 22.7899 16.9277 22.5585 16.8182 22.3824L13.5213 15.3914V10.0511C13.5236 9.73808 13.3378 9.4542 13.0501 9.33088C12.7624 9.20756 12.4287 9.26887 12.2036 9.48642C12.1985 9.49114 12.1945 9.49665 12.1905 9.50213C12.1858 9.50867 12.1811 9.51519 12.1744 9.52031L12.1664 9.5269C12.0326 9.66898 11.9575 9.85642 11.9561 10.0516V13.989C11.9565 14.2168 12.0099 14.4413 12.1118 14.645L16.2036 22.8205C16.3308 22.9576 16.535 22.9904 16.6987 22.9001Z" fill="#111827"/>
<path d="M11.2889 19.1234C11.2648 19.1869 11.229 19.2453 11.1835 19.2957L9.01028 22.6326C8.95728 22.7271 8.86438 22.7925 8.75758 22.8105C8.6511 22.8314 8.54094 22.8019 8.45922 22.7305C8.33216 22.6259 8.29207 22.4485 8.36181 22.2994L10.5736 18.8392L11.15 17.1192L10.5345 15.8867L9.71805 18.3644L7.52275 21.7997C7.17122 22.4388 7.39471 23.2417 8.02591 23.6072C8.65712 23.9728 9.46474 23.7671 9.84417 23.1441L11.9656 19.8806C12.078 19.7484 12.1635 19.5956 12.2173 19.4307L12.2531 19.3225L11.6329 18.083L11.2889 19.1234Z" fill="#111827"/>
<path fill-rule="evenodd" clip-rule="evenodd" d="M14.6825 5.16988C14.6825 6.04846 13.9856 7.37599 12.9348 7.37599C11.8844 7.37599 11.1865 6.04705 11.1865 5.16988C11.1865 4.20448 11.9691 3.42188 12.9345 3.42188C13.8999 3.42188 14.6825 4.20448 14.6825 5.16988ZM13.7046 5.16987C13.7039 4.745 13.3596 4.40077 12.9348 4.39999C12.5097 4.40051 12.1652 4.74482 12.1644 5.16987C12.1644 5.69787 12.6039 6.39811 12.9348 6.39811C13.2656 6.39811 13.7046 5.69787 13.7046 5.16987Z" fill="#111827"/>
<path d="M22.4883 23.9324H23.4662V15.1211L22.4883 16.099V23.9324Z" fill="#111827"/>
<path d="M23.0411 2.42879L8.37568 0.473022C8.23599 0.45444 8.09507 0.497035 7.98906 0.589883C7.88305 0.682732 7.82226 0.816806 7.82227 0.957728V9.26879H8.80015V1.51632L22.4881 3.33938V11.7158L23.466 12.6937V2.91302C23.4658 2.66792 23.2841 2.46087 23.0411 2.42879Z" fill="#111827"/>
<path d="M22.4875 13.0969L20.5322 11.1406V16.6714L22.4875 14.7162L23.2969 13.9067L22.4875 13.0969Z" fill="#B08747"/>
</svg>
