<svg width="16" height="17" viewBox="0 0 16 17" fill="none" xmlns="http://www.w3.org/2000/svg">
<path fill-rule="evenodd" clip-rule="evenodd" d="M7.99984 1.16797C3.94975 1.16797 0.666504 4.45121 0.666504 8.5013C0.666504 12.5514 3.94975 15.8346 7.99984 15.8346C12.0499 15.8346 15.3332 12.5514 15.3332 8.5013C15.3332 4.45121 12.0499 1.16797 7.99984 1.16797ZM8.6665 5.83464C8.6665 5.46645 8.36803 5.16797 7.99984 5.16797C7.63165 5.16797 7.33317 5.46645 7.33317 5.83464V8.5013C7.33317 8.86949 7.63165 9.16797 7.99984 9.16797C8.36803 9.16797 8.6665 8.86949 8.6665 8.5013V5.83464ZM7.99984 10.5013C7.63165 10.5013 7.33317 10.7998 7.33317 11.168C7.33317 11.5362 7.63165 11.8346 7.99984 11.8346H8.0065C8.37469 11.8346 8.67317 11.5362 8.67317 11.168C8.67317 10.7998 8.37469 10.5013 8.0065 10.5013H7.99984Z" fill="#E6740A"/>
</svg>
