<svg width="25" height="24" viewBox="0 0 25 24" fill="none" xmlns="http://www.w3.org/2000/svg">
<path d="M7.92578 3H15.0258C17.266 3 18.3861 3 19.2417 3.43597C19.9944 3.81947 20.6063 4.43139 20.9898 5.18404C21.4258 6.03969 21.4258 7.15979 21.4258 9.4V16.5M6.62578 21H14.7258C15.8459 21 16.4059 21 16.8338 20.782C17.2101 20.5903 17.516 20.2843 17.7078 19.908C17.9258 19.4802 17.9258 18.9201 17.9258 17.8V9.7C17.9258 8.57989 17.9258 8.01984 17.7078 7.59202C17.516 7.21569 17.2101 6.90973 16.8338 6.71799C16.4059 6.5 15.8459 6.5 14.7258 6.5H6.62578C5.50568 6.5 4.94562 6.5 4.5178 6.71799C4.14148 6.90973 3.83551 7.21569 3.64377 7.59202C3.42578 8.01984 3.42578 8.57989 3.42578 9.7V17.8C3.42578 18.9201 3.42578 19.4802 3.64377 19.908C3.83551 20.2843 4.14148 20.5903 4.5178 20.782C4.94562 21 5.50568 21 6.62578 21Z" stroke="#111827" stroke-linecap="round" stroke-linejoin="round"/>
</svg>
