<svg width="55" height="81" viewBox="0 0 55 81" fill="none" xmlns="http://www.w3.org/2000/svg">
<path fill-rule="evenodd" clip-rule="evenodd" d="M38.7222 8.82516H36.3988V6.67342C36.3508 3.35859 33.4943 0.6658 29.9164 0.5625H25.2695C21.583 0.574355 18.6012 3.34537 18.6012 6.75949V8.91123H16.2778C7.68186 8.92304 0.713074 15.3672 0.6875 23.3278V64.4905C0.6875 67.913 3.68339 70.6875 7.37901 70.6875H47.621C51.3166 70.6875 54.3125 67.913 54.3125 64.4905V23.2418C54.2869 15.2811 47.3181 8.83697 38.7222 8.82516ZM23.1319 6.67342C23.1319 5.48505 24.1722 4.52169 25.4554 4.52169H29.9164C31.1996 4.52169 32.2398 5.48505 32.2398 6.67342V8.82516H23.1319V6.67342ZM47.5281 66.5562C48.8113 66.5562 49.8515 65.5928 49.8515 64.4044L49.7586 23.2418C49.7458 17.5544 44.7705 12.9468 38.6293 12.935H16.3707C10.2295 12.9468 5.25422 17.5544 5.24144 23.2418V64.4044C5.24144 65.5928 6.28168 66.5562 7.56488 66.5562H47.5281Z" fill="#111827"/>
<path d="M13.0518 76.8414C11.8652 76.8414 10.9033 75.933 10.9033 74.8125H6.88578C6.75045 76.9786 7.89724 79.0371 9.86411 80.1588C11.831 81.2804 14.294 81.2804 16.2609 80.1588C18.2278 79.0371 19.3745 76.9786 19.2392 74.8125H15.1142C15.1152 75.9021 14.2046 76.7978 13.0518 76.8414Z" fill="#111827"/>
<path d="M41.9482 76.8414C40.7617 76.8414 39.7998 75.933 39.7998 74.8125H35.7608C35.6255 76.9786 36.7722 79.0371 38.7391 80.1588C40.706 81.2804 43.169 81.2804 45.1359 80.1588C47.1028 79.0371 48.2495 76.9786 48.1142 74.8125H44.0107C44.0117 75.9021 43.1011 76.7978 41.9482 76.8414Z" fill="#111827"/>
<path d="M41.9375 21.1875H25.4375L41.9375 37.6875V21.1875Z" fill="#B08747"/>
</svg>
