<svg width="24" height="24" viewBox="0 0 24 24" fill="none" xmlns="http://www.w3.org/2000/svg">
<path d="M12.0411 2.82783L14.8772 0H9.20508L12.0411 2.82783Z" fill="#B08747"/>
<path fill-rule="evenodd" clip-rule="evenodd" d="M7.52007 17.0156H16.5462C17.9313 17.0156 19.055 18.1337 19.0579 19.5148V21.4974C19.0579 22.8805 17.9334 24.0017 16.5462 24.0017H7.52007C6.14108 23.9989 5.02229 22.888 5.01367 21.513V19.5148C5.01655 18.1357 6.13702 17.0185 7.52007 17.0156ZM16.5462 23.0156C17.3785 23.0156 18.0532 22.3429 18.0532 21.513V19.5148C18.0532 18.6849 17.3785 18.0121 16.5462 18.0121H7.52007C6.68779 18.0121 6.01309 18.6849 6.01309 19.5148V21.513C6.01309 22.3429 6.68779 23.0156 7.52007 23.0156H16.5462Z" fill="#111827"/>
<path d="M5.01337 16.0122H6.01279V6.51135C6.0128 5.68351 5.34128 5.01161 4.51105 5.00874H3.96163L3.72616 2.65569C3.68479 2.23344 3.82438 1.81343 4.11045 1.49937C4.39652 1.1853 4.80241 1.00646 5.22791 1.007H8.80174L8.49826 0.709606L7.79186 4.09873e-05H5.22791C4.517 -0.00402355 3.8381 0.294377 3.36153 0.820371C2.88496 1.34637 2.65596 2.05003 2.73198 2.75482L2.95174 5.00874H2.50174C1.67151 5.01161 0.999995 5.68351 1 6.51135V18.5113C0.999995 19.3392 1.67151 20.0111 2.50174 20.014H4.00872V19.0122H2.50174C2.21276 19.0122 1.97849 18.7786 1.97849 18.4905V6.49048C1.97849 6.20233 2.21276 5.96874 2.50174 5.96874H4.51105C4.80003 5.96874 5.0343 6.20233 5.0343 6.49048L5.01337 16.0122Z" fill="#111827"/>
<path d="M21.5642 5.00877H21.1142L21.3445 2.76529C21.4206 2.05682 21.1898 1.34964 20.7101 0.821516C20.2304 0.293389 19.5474 -0.00546435 18.8328 7.56791e-05H16.2898L15.5886 0.709641L15.2852 1.00703H18.8328C19.2621 1.00188 19.6731 1.17949 19.9629 1.49529C20.2526 1.81109 20.3935 2.23511 20.3503 2.66095L20.1096 5.00877H19.5549C18.7247 5.01165 18.0532 5.68355 18.0532 6.51138V16.0122H19.0578V6.51138C19.0578 6.22323 19.2921 5.98964 19.5811 5.98964H21.5904C21.8794 5.98964 22.1136 6.22323 22.1136 6.51138V18.5114C22.1136 18.7995 21.8794 19.0331 21.5904 19.0331H20.0572V20.0349H21.5642C22.3945 20.032 23.066 19.3601 23.066 18.5322V6.53225C23.0716 6.13103 22.916 5.74425 22.6339 5.45808C22.3518 5.17191 21.9666 5.01013 21.5642 5.00877Z" fill="#111827"/>
<path d="M11.4182 12.9125C11.5541 12.9051 11.6817 12.8452 11.7741 12.7456L15.5834 8.45167L14.8299 7.78906L11.3711 11.6917L9.52406 9.91254L8.82812 10.6325L11.0677 12.7978C11.1667 12.8772 11.2913 12.918 11.4182 12.9125Z" fill="#111827"/>
</svg>
