<svg width="16" height="17" viewBox="0 0 16 17" fill="none" xmlns="http://www.w3.org/2000/svg">
<path d="M10.6666 2.81184C11.6544 3.30274 12.3333 4.32209 12.3333 5.5C12.3333 6.67791 11.6544 7.69726 10.6666 8.18816M11.9999 11.6776C13.0076 12.1336 13.9149 12.8767 14.6666 13.8333M1.33325 13.8333C2.63091 12.1817 4.39271 11.1667 6.33325 11.1667C8.2738 11.1667 10.0356 12.1817 11.3333 13.8333M9.33325 5.5C9.33325 7.15685 7.99011 8.5 6.33325 8.5C4.6764 8.5 3.33325 7.15685 3.33325 5.5C3.33325 3.84315 4.6764 2.5 6.33325 2.5C7.99011 2.5 9.33325 3.84315 9.33325 5.5Z" stroke="#6B7280" stroke-width="0.75" stroke-linecap="round" stroke-linejoin="round"/>
</svg>
