<svg width="15" height="12" viewBox="0 0 15 12" fill="none" xmlns="http://www.w3.org/2000/svg">
<path d="M0.121582 11.526V10.1989C0.121582 9.82465 0.215292 9.50291 0.402711 9.23365C0.59013 8.96452 0.842016 8.7494 1.15837 8.58829C1.83487 8.25534 2.5065 7.9899 3.17325 7.79198C3.84014 7.59406 4.64252 7.4951 5.5804 7.4951C6.51814 7.4951 7.32046 7.59406 7.98734 7.79198C8.65423 7.9899 9.32586 8.25534 10.0022 8.58829C10.3186 8.7494 10.5705 8.96452 10.7579 9.23365C10.9454 9.50291 11.0392 9.82465 11.0392 10.1989V11.526H0.121582ZM12.5989 11.526V10.1616C12.5989 9.69438 12.5074 9.2534 12.3244 8.83862C12.1415 8.42383 11.8821 8.06797 11.5461 7.77102C11.929 7.85164 12.2979 7.9635 12.6529 8.1066C13.0077 8.24983 13.3586 8.4108 13.7056 8.5895C14.0436 8.76525 14.3085 8.99011 14.5005 9.26408C14.6923 9.53819 14.7882 9.83735 14.7882 10.1616V11.526H12.5989ZM5.5804 5.6965C4.93704 5.6965 4.38628 5.45968 3.92813 4.98605C3.46998 4.51241 3.24091 3.94304 3.24091 3.27794C3.24091 2.61283 3.46998 2.04346 3.92813 1.56983C4.38628 1.09619 4.93704 0.859375 5.5804 0.859375C6.22376 0.859375 6.77451 1.09619 7.23266 1.56983C7.69081 2.04346 7.91989 2.61283 7.91989 3.27794C7.91989 3.94304 7.69081 4.51241 7.23266 4.98605C6.77451 5.45968 6.22376 5.6965 5.5804 5.6965ZM11.2492 3.27794C11.2492 3.94304 11.0201 4.51241 10.562 4.98605C10.1038 5.45968 9.55305 5.6965 8.90969 5.6965C8.87668 5.6965 8.83463 5.69267 8.78355 5.68501C8.7326 5.67722 8.69062 5.66869 8.65761 5.65942C8.92184 5.32485 9.12486 4.95373 9.26666 4.54607C9.40859 4.13841 9.47955 3.71509 9.47955 3.27612C9.47955 2.83715 9.40527 2.41767 9.25671 2.01766C9.10829 1.61766 8.90858 1.24399 8.65761 0.896661C8.69959 0.881209 8.74157 0.871131 8.78355 0.866429C8.82553 0.861726 8.86758 0.859375 8.90969 0.859375C9.55305 0.859375 10.1038 1.09619 10.562 1.56983C11.0201 2.04346 11.2492 2.61283 11.2492 3.27794ZM0.901413 10.7199H10.2594V10.1989C10.2594 10.0097 10.2136 9.84427 10.1221 9.70265C10.0306 9.56116 9.86641 9.42579 9.62947 9.29653C9.04759 8.97513 8.43419 8.72891 7.78927 8.55786C7.14448 8.38682 6.40819 8.30129 5.5804 8.30129C4.75248 8.30129 4.01612 8.38682 3.37133 8.55786C2.72641 8.72891 2.11301 8.97513 1.53113 9.29653C1.29419 9.42579 1.12997 9.56116 1.03847 9.70265C0.947098 9.84427 0.901413 10.0097 0.901413 10.1989V10.7199ZM5.5804 4.89031C6.0093 4.89031 6.37647 4.73243 6.68191 4.41668C6.98734 4.10092 7.14006 3.72134 7.14006 3.27794C7.14006 2.83453 6.98734 2.45495 6.68191 2.1392C6.37647 1.82344 6.0093 1.66556 5.5804 1.66556C5.15149 1.66556 4.78432 1.82344 4.47889 2.1392C4.17345 2.45495 4.02074 2.83453 4.02074 3.27794C4.02074 3.72134 4.17345 4.10092 4.47889 4.41668C4.78432 4.73243 5.15149 4.89031 5.5804 4.89031Z" fill="white"/>
</svg>
