<svg width="28" height="28" viewBox="0 0 28 28" fill="none" xmlns="http://www.w3.org/2000/svg">
<path d="M14 12.7686C12.35 12.7686 10.9375 12.1811 9.7625 11.0061C8.5875 9.83105 8 8.41855 8 6.76855C8 5.11855 8.5875 3.70605 9.7625 2.53105C10.9375 1.35605 12.35 0.768555 14 0.768555C15.65 0.768555 17.0625 1.35605 18.2375 2.53105C19.4125 3.70605 20 5.11855 20 6.76855C20 8.41855 19.4125 9.83105 18.2375 11.0061C17.0625 12.1811 15.65 12.7686 14 12.7686ZM0 27.2306V23.9381C0 23.1124 0.240333 22.3399 0.721 21.6206C1.202 20.9016 1.84883 20.3432 2.6615 19.9456C4.54883 19.0406 6.43733 18.3617 8.327 17.9091C10.2167 17.4567 12.1077 17.2306 14 17.2306C15.8923 17.2306 17.7833 17.4567 19.673 17.9091C21.5627 18.3617 23.4512 19.0406 25.3385 19.9456C26.1512 20.3432 26.798 20.9016 27.279 21.6206C27.7597 22.3399 28 23.1124 28 23.9381V27.2306H0ZM2 25.2306H26V23.9381C26 23.4944 25.857 23.0777 25.571 22.6881C25.2853 22.2984 24.8898 21.9689 24.3845 21.6996C22.7385 20.9022 21.0413 20.2914 19.293 19.8671C17.5447 19.4427 15.7803 19.2306 14 19.2306C12.2197 19.2306 10.4553 19.4427 8.707 19.8671C6.95867 20.2914 5.2615 20.9022 3.6155 21.6996C3.11017 21.9689 2.71467 22.2984 2.429 22.6881C2.143 23.0777 2 23.4944 2 23.9381V25.2306ZM14 10.7686C15.1 10.7686 16.0417 10.3769 16.825 9.59355C17.6083 8.81022 18 7.86855 18 6.76855C18 5.66855 17.6083 4.72689 16.825 3.94355C16.0417 3.16022 15.1 2.76855 14 2.76855C12.9 2.76855 11.9583 3.16022 11.175 3.94355C10.3917 4.72689 10 5.66855 10 6.76855C10 7.86855 10.3917 8.81022 11.175 9.59355C11.9583 10.3769 12.9 10.7686 14 10.7686Z" fill="#111827"/>
</svg>
