<?xml version="1.0" encoding="UTF-8"?>
<svg width="48px" height="48px" viewBox="0 0 48 48" version="1.1" xmlns="http://www.w3.org/2000/svg" xmlns:xlink="http://www.w3.org/1999/xlink">
    <title>309EB317-97D6-4AEB-B2EC-2B6E0F8B6E90@2x</title>
    <g id="Symbols" stroke="none" stroke-width="1" fill="none" fill-rule="evenodd">
        <g id="JRNY_Book-with-miles">
            <rect id="Rectangle" x="0" y="0" width="48" height="48"></rect>
            <g id="Group" fill-rule="nonzero">
                <polygon id="Path" fill="#BD8B13" points="24.0052174 42.3 18.36 47.9347826 29.64 47.9347826"></polygon>
                <path d="M47.5220638,28.666613 L28.2742702,16.8948908 L28.8065173,6.65252324 C28.7655512,4.65556539 27.9934024,2.74155783 26.6340801,1.26747194 C25.9803422,0.465827706 24.9962832,1.52766688e-13 23.9565513,1.52766688e-13 C22.9168193,1.52766688e-13 21.9327603,0.465827706 21.2790224,1.26747194 C19.9197001,2.74155783 19.1475513,4.65556539 19.1065852,6.65252324 L19.6388323,16.8948908 L0.477936185,28.666613 C0.182644329,28.845669 0.00183019997,29.1634858 -6.53699317e-13,29.506681 L-6.53699317e-13,33.4808488 C-6.53699317e-13,33.7871576 0.143392061,34.0761251 0.387701766,34.2635967 C0.632011471,34.4510683 0.950033364,34.5159653 1.24915139,34.439388 L20.3883232,29.6682325 L20.9205703,42 L22.5716225,40.3521743 L22.8431772,40.0936918 L22.3326544,28.3650501 C22.3185787,28.0660146 22.1703419,27.7888972 21.9285534,27.6096143 C21.6867649,27.4303314 21.3767741,27.3676792 21.0835031,27.4388213 L2.00950441,32.2099767 L2.00950441,30.0559562 L21.257298,18.273464 C21.5695981,18.0846703 21.7529208,17.7417887 21.7352342,17.3795454 L21.1704005,6.60944283 C21.2182363,5.12562489 21.7867879,3.70486855 22.7780041,2.59219456 C23.0742204,2.21386264 23.5059977,1.96316352 23.9837067,1.89213789 C24.4636286,1.95177924 24.9025716,2.19057358 25.2111337,2.55988425 C26.1953188,3.66657964 26.7565601,5.08065745 26.7970129,6.55559232 L26.2430414,17.3256949 C26.2253549,17.6879382 26.4086775,18.0308198 26.7209776,18.2196134 L46.0013578,30.0667263 L46.0013578,32.2207468 L26.8947726,27.4388213 C26.6015015,27.3676792 26.2915108,27.4303314 26.0497222,27.6096143 C25.8079337,27.7888972 25.6596969,28.0660146 25.6456212,28.3650501 L25.1350984,40.0936918 L25.4066531,40.3521743 L27.0577054,42 L27.5899525,29.6682325 L46.7508486,34.439388 C47.0499666,34.5159653 47.3679885,34.4510683 47.6122982,34.2635967 C47.8566079,34.0761251 48,33.7871576 48,33.4808488 L48,29.506681 C47.9981698,29.1634858 47.8173557,28.845669 47.5220638,28.666613 Z" id="Path" fill="#4E4C4A"></path>
            </g>
        </g>
    </g>
</svg>