<svg width="20" height="20" viewBox="0 0 20 20" fill="none" xmlns="http://www.w3.org/2000/svg">
<path fill-rule="evenodd" clip-rule="evenodd" d="M8.666 14.268C8.54635 14.268 8.42797 14.2434 8.31822 14.1958C8.20847 14.1481 8.10969 14.0784 8.028 13.991L4.848 10.561L6.124 9.38L8.64 12.092L13.85 5.978L15.173 7.107L9.327 13.964C9.24705 14.0571 9.14837 14.1323 9.03741 14.1847C8.92644 14.237 8.80568 14.2654 8.683 14.268H8.665H8.666ZM10 0C4.477 0 0 4.478 0 10C0 15.523 4.477 20 10 20C15.522 20 20 15.523 20 10C20 4.478 15.522 0 10 0ZM10 1.739C14.555 1.739 18.261 5.445 18.261 10C18.261 14.555 14.555 18.262 10 18.262C5.444 18.262 1.738 14.555 1.738 10C1.738 5.445 5.444 1.739 10 1.739Z" fill="#009609"/>
</svg>
