<svg width="14" height="15" viewBox="0 0 14 15" fill="none" xmlns="http://www.w3.org/2000/svg">
<path d="M0 14.0781H2.625L0 11.4531V14.0781Z" fill="#BD8B13"/>
<path d="M13.2222 1.11738C13.1895 1.08393 13.1502 1.05757 13.1068 1.03992C13.0635 1.02228 13.0169 1.01374 12.9701 1.01482L7.75933 1L7.75499 1.71111L12.1094 1.72125L6.02539 7.77437L6.52892 8.28003L12.6129 2.22691L12.6001 6.57676L13.3142 6.57843L13.3237 1.36986C13.325 1.32308 13.3166 1.27653 13.2992 1.23309C13.2817 1.18966 13.2556 1.15028 13.2222 1.11738Z" fill="#005F96" stroke="#005F96" stroke-width="0.25"/>
<path fill-rule="evenodd" clip-rule="evenodd" d="M0 4.01562C0 2.80751 0.979377 1.82812 2.1875 1.82812H6.125V2.70312H2.1875C1.46263 2.70312 0.875 3.29076 0.875 4.01562V11.4531L0 10.5781V4.01562Z" fill="#005F96"/>
<path fill-rule="evenodd" clip-rule="evenodd" d="M11.375 11.8906V7.95312H12.25V11.8906C12.25 13.0987 11.2706 14.0781 10.0625 14.0781H3.5L2.625 13.2031H10.0625C10.7874 13.2031 11.375 12.6155 11.375 11.8906Z" fill="#005F96"/>
</svg>
