<?xml version="1.0" encoding="UTF-8"?>
<svg width="14.3246667px" height="15.9428px" viewBox="0 0 14.3246667 15.9428" version="1.1" xmlns="http://www.w3.org/2000/svg" xmlns:xlink="http://www.w3.org/1999/xlink">
    <title>Atom/ Icon/ Functional icon/ Digital components/ Trash</title>
    <g id="🚧-WIP" stroke="none" stroke-width="1" fill="none" fill-rule="evenodd">
        <g id="Multi-city-mobile" transform="translate(-344.6667, -714)">
            <g id="Trash" transform="translate(344, 714)">
                <g id="Group-32" transform="translate(0.6667, 0)" fill="#005F96">
                    <polygon id="Fill-20" points="5.9864 12.6390667 5.3444 4.21173333 4.34773333 4.2884 4.98906667 12.7150667"></polygon>
                    <polygon id="Fill-21" points="9.97733333 4.28813333 8.98 4.21213333 8.338 12.6388 9.33533333 12.7154667"></polygon>
                    <path d="M11.2553333,14.3988 C11.226,14.7088 10.968,14.9428 10.6573333,14.9428 L3.73333333,14.9428 C3.38466667,14.9428 3.096,14.6808 3.06266667,14.3334667 L1.93266667,2.52413333 L12.392,2.52413333 L11.2553333,14.3988 Z M14.3246667,1.52413333 L0,1.52413333 L0,2.52413333 L0.928,2.52413333 L2.06733333,14.4288 C2.15,15.2921333 2.866,15.9428 3.73333333,15.9428 L10.6573333,15.9428 C11.4866667,15.9428 12.1713333,15.3201333 12.2506667,14.4948 L13.396,2.52413333 L14.3246667,2.52413333 L14.3246667,1.52413333 Z" id="Fill-22"></path>
                    <polygon id="Fill-23" points="4.51306667 1 9.81173333 1 9.81173333 0 4.51306667 0"></polygon>
                </g>
                <rect id="Rectangle-Copy-8" x="0" y="0" width="16" height="16"></rect>
            </g>
        </g>
    </g>
</svg>